M48
; DRILL file {KiCad 9.0.2} date 2025-06-11T22:20:25+0100
; FORMAT={-:-/ absolute / inch / decimal}
; #@! TF.CreationDate,2025-06-11T22:20:25+01:00
; #@! TF.GenerationSoftware,Kicad,Pcbnew,9.0.2
; #@! TF.FileFunction,Plated,1,2,PTH
FMAT,2
INCH
; #@! TA.AperFunction,Plated,PTH,ViaDrill
T1C0.0197
; #@! TA.AperFunction,Plated,PTH,ComponentDrill
T2C0.0295
; #@! TA.AperFunction,Plated,PTH,ComponentDrill
T3C0.0374
; #@! TA.AperFunction,Plated,PTH,ViaDrill
T4C0.0394
; #@! TA.AperFunction,Plated,PTH,ComponentDrill
T5C0.0394
; #@! TA.AperFunction,Plated,PTH,ComponentDrill
T6C0.0433
; #@! TA.AperFunction,Plated,PTH,ViaDrill
T7C0.0591
; #@! TA.AperFunction,Plated,PTH,ComponentDrill
T8C0.0866
%
G90
G05
T1
X0.9646Y-2.4311
X1.213Y-2.2467
X1.3583Y-2.1949
T2
X0.9978Y-1.0879
X0.9978Y-1.1879
X0.9978Y-1.2879
X0.9978Y-1.3879
X0.9978Y-1.4879
X0.9978Y-1.5879
X0.9978Y-1.6879
X0.9978Y-1.7879
X0.9978Y-1.8879
X1.8978Y-1.0879
X1.8978Y-1.1879
X1.8978Y-1.2879
X1.8978Y-1.3879
X1.8978Y-1.4879
X1.8978Y-1.5879
X1.8978Y-1.6879
X1.8978Y-1.7879
X1.8978Y-1.8879
T3
X1.7734Y-0.6041
X1.7734Y-0.7025
X1.7734Y-0.8009
T4
X0.2421Y-2.3465
X0.261Y-1.3039
X0.7326Y-1.566
X0.7531Y-1.1858
X0.7972Y-2.3425
X0.822Y-0.5461
T5
X1.7859Y-2.2047
X1.7859Y-2.3031
T6
X0.5954Y-2.7559
X0.6954Y-2.7559
X1.2914Y-2.7559
X1.3914Y-2.7559
T7
X0.7972Y-2.7559
T8
X0.1969Y-0.1969
X0.1969Y-2.7559
X1.7717Y-0.1969
X1.7717Y-2.7559
M30
