%TF.GenerationSoftware,KiCad,Pcbnew,9.0.2*%
%TF.CreationDate,2025-06-11T22:20:25+01:00*%
%TF.ProjectId,Doorbell (Smaller),446f6f72-6265-46c6-9c20-28536d616c6c,1*%
%TF.SameCoordinates,Original*%
%TF.FileFunction,Soldermask,Top*%
%TF.FilePolarity,Negative*%
%FSLAX46Y46*%
G04 Gerber Fmt 4.6, Leading zero omitted, Abs format (unit mm)*
G04 Created by KiCad (PCBNEW 9.0.2) date 2025-06-11 22:20:25*
%MOMM*%
%LPD*%
G01*
G04 APERTURE LIST*
G04 Aperture macros list*
%AMRoundRect*
0 Rectangle with rounded corners*
0 $1 Rounding radius*
0 $2 $3 $4 $5 $6 $7 $8 $9 X,Y pos of 4 corners*
0 Add a 4 corners polygon primitive as box body*
4,1,4,$2,$3,$4,$5,$6,$7,$8,$9,$2,$3,0*
0 Add four circle primitives for the rounded corners*
1,1,$1+$1,$2,$3*
1,1,$1+$1,$4,$5*
1,1,$1+$1,$6,$7*
1,1,$1+$1,$8,$9*
0 Add four rect primitives between the rounded corners*
20,1,$1+$1,$2,$3,$4,$5,0*
20,1,$1+$1,$4,$5,$6,$7,0*
20,1,$1+$1,$6,$7,$8,$9,0*
20,1,$1+$1,$8,$9,$2,$3,0*%
G04 Aperture macros list end*
%ADD10RoundRect,0.250000X-0.475000X0.250000X-0.475000X-0.250000X0.475000X-0.250000X0.475000X0.250000X0*%
%ADD11C,4.400000*%
%ADD12RoundRect,0.375000X0.375000X-0.625000X0.375000X0.625000X-0.375000X0.625000X-0.375000X-0.625000X0*%
%ADD13RoundRect,0.500000X1.400000X-0.500000X1.400000X0.500000X-1.400000X0.500000X-1.400000X-0.500000X0*%
%ADD14RoundRect,0.250000X-0.262500X-0.450000X0.262500X-0.450000X0.262500X0.450000X-0.262500X0.450000X0*%
%ADD15R,1.500000X1.300000*%
%ADD16RoundRect,0.150000X0.150000X-0.825000X0.150000X0.825000X-0.150000X0.825000X-0.150000X-0.825000X0*%
%ADD17RoundRect,0.250000X0.262500X0.450000X-0.262500X0.450000X-0.262500X-0.450000X0.262500X-0.450000X0*%
%ADD18RoundRect,0.112500X0.112500X-0.187500X0.112500X0.187500X-0.112500X0.187500X-0.112500X-0.187500X0*%
%ADD19RoundRect,0.250000X-1.000000X0.375000X-1.000000X-0.375000X1.000000X-0.375000X1.000000X0.375000X0*%
%ADD20RoundRect,0.250000X0.725000X-0.600000X0.725000X0.600000X-0.725000X0.600000X-0.725000X-0.600000X0*%
%ADD21O,1.950000X1.700000*%
%ADD22RoundRect,0.249999X-0.850001X-0.850001X0.850001X-0.850001X0.850001X0.850001X-0.850001X0.850001X0*%
%ADD23C,2.200000*%
%ADD24RoundRect,0.190500X2.809500X0.444500X-2.809500X0.444500X-2.809500X-0.444500X2.809500X-0.444500X0*%
%ADD25RoundRect,0.190500X-2.809500X-0.444500X2.809500X-0.444500X2.809500X0.444500X-2.809500X0.444500X0*%
%ADD26RoundRect,0.250000X0.750000X-0.600000X0.750000X0.600000X-0.750000X0.600000X-0.750000X-0.600000X0*%
%ADD27O,2.000000X1.700000*%
%ADD28RoundRect,0.250000X-1.950000X-1.000000X1.950000X-1.000000X1.950000X1.000000X-1.950000X1.000000X0*%
%ADD29RoundRect,0.250000X-0.250000X-0.475000X0.250000X-0.475000X0.250000X0.475000X-0.250000X0.475000X0*%
%ADD30RoundRect,0.250000X0.475000X-0.250000X0.475000X0.250000X-0.475000X0.250000X-0.475000X-0.250000X0*%
G04 APERTURE END LIST*
D10*
%TO.C,C2*%
X24500000Y-58550000D03*
X24500000Y-60450000D03*
%TD*%
D11*
%TO.C,H1*%
X5000000Y-5000000D03*
%TD*%
D12*
%TO.C,U2*%
X6580000Y-30020000D03*
X8880000Y-30020000D03*
D13*
X8880000Y-23720000D03*
D12*
X11180000Y-30020000D03*
%TD*%
D11*
%TO.C,H4*%
X45000000Y-70000000D03*
%TD*%
%TO.C,H3*%
X5000000Y-70000000D03*
%TD*%
D14*
%TO.C,R2*%
X32675000Y-53000000D03*
X34500000Y-53000000D03*
%TD*%
D15*
%TO.C,D1*%
X8700000Y-54450000D03*
X8700000Y-59550000D03*
X17600000Y-59550000D03*
X17600000Y-54450000D03*
%TD*%
D10*
%TO.C,C7*%
X3630000Y-27870000D03*
X3630000Y-29770000D03*
%TD*%
D16*
%TO.C,U1*%
X27000000Y-64000000D03*
X28270000Y-64000000D03*
X29540000Y-64000000D03*
X30810000Y-64000000D03*
X30810000Y-59050000D03*
X29540000Y-59050000D03*
X28270000Y-59050000D03*
X27000000Y-59050000D03*
%TD*%
D17*
%TO.C,R3*%
X40325000Y-56000000D03*
X38500000Y-56000000D03*
%TD*%
D18*
%TO.C,D2*%
X25343750Y-15493750D03*
X25343750Y-13393750D03*
%TD*%
D19*
%TO.C,SW1*%
X5750000Y-40500000D03*
X5750000Y-43000000D03*
X5750000Y-45500000D03*
%TD*%
D20*
%TO.C,J4*%
X45043750Y-20343750D03*
D21*
X45043750Y-17843750D03*
X45043750Y-15343750D03*
%TD*%
D22*
%TO.C,J2*%
X32801133Y-70000000D03*
D23*
X35341133Y-70000000D03*
%TD*%
D24*
%TO.C,U3*%
X27343750Y-27633750D03*
X27343750Y-30173750D03*
X27343750Y-32713750D03*
X27343750Y-35253750D03*
X27343750Y-37793750D03*
X27343750Y-40333750D03*
X27343750Y-42873750D03*
X27343750Y-45413750D03*
X27343750Y-47953750D03*
D25*
X46203750Y-47953750D03*
X46203750Y-45413750D03*
X46203750Y-42873750D03*
X46203750Y-40333750D03*
X46203750Y-37793750D03*
X46203750Y-35253750D03*
X46203750Y-32713750D03*
X46203750Y-30173750D03*
X46203750Y-27633750D03*
%TD*%
D26*
%TO.C,J3*%
X45362500Y-58500000D03*
D27*
X45362500Y-56000000D03*
%TD*%
D11*
%TO.C,H2*%
X45000000Y-5000000D03*
%TD*%
D22*
%TO.C,J1*%
X15123333Y-70000000D03*
D23*
X17663333Y-70000000D03*
%TD*%
D14*
%TO.C,R1*%
X28087500Y-53000000D03*
X29912500Y-53000000D03*
%TD*%
D28*
%TO.C,C6*%
X8680000Y-13870000D03*
X17080000Y-13870000D03*
%TD*%
D29*
%TO.C,C5*%
X14880000Y-30120000D03*
X16780000Y-30120000D03*
%TD*%
D30*
%TO.C,C1*%
X34500000Y-59950000D03*
X34500000Y-58050000D03*
%TD*%
D28*
%TO.C,C3*%
X10250000Y-43000000D03*
X18650000Y-43000000D03*
%TD*%
M02*
