%TF.GenerationSoftware,KiCad,Pcbnew,9.0.2*%
%TF.CreationDate,2025-06-11T22:20:25+01:00*%
%TF.ProjectId,Doorbell (Smaller),446f6f72-6265-46c6-9c20-28536d616c6c,1*%
%TF.SameCoordinates,Original*%
%TF.FileFunction,Legend,Top*%
%TF.FilePolarity,Positive*%
%FSLAX46Y46*%
G04 Gerber Fmt 4.6, Leading zero omitted, Abs format (unit mm)*
G04 Created by KiCad (PCBNEW 9.0.2) date 2025-06-11 22:20:25*
%MOMM*%
%LPD*%
G01*
G04 APERTURE LIST*
G04 Aperture macros list*
%AMRoundRect*
0 Rectangle with rounded corners*
0 $1 Rounding radius*
0 $2 $3 $4 $5 $6 $7 $8 $9 X,Y pos of 4 corners*
0 Add a 4 corners polygon primitive as box body*
4,1,4,$2,$3,$4,$5,$6,$7,$8,$9,$2,$3,0*
0 Add four circle primitives for the rounded corners*
1,1,$1+$1,$2,$3*
1,1,$1+$1,$4,$5*
1,1,$1+$1,$6,$7*
1,1,$1+$1,$8,$9*
0 Add four rect primitives between the rounded corners*
20,1,$1+$1,$2,$3,$4,$5,0*
20,1,$1+$1,$4,$5,$6,$7,0*
20,1,$1+$1,$6,$7,$8,$9,0*
20,1,$1+$1,$8,$9,$2,$3,0*%
G04 Aperture macros list end*
%ADD10C,0.100000*%
%ADD11C,0.200000*%
%ADD12C,0.300000*%
%ADD13C,0.150000*%
%ADD14C,0.120000*%
%ADD15RoundRect,0.250000X-0.475000X0.250000X-0.475000X-0.250000X0.475000X-0.250000X0.475000X0.250000X0*%
%ADD16C,4.400000*%
%ADD17RoundRect,0.375000X0.375000X-0.625000X0.375000X0.625000X-0.375000X0.625000X-0.375000X-0.625000X0*%
%ADD18RoundRect,0.500000X1.400000X-0.500000X1.400000X0.500000X-1.400000X0.500000X-1.400000X-0.500000X0*%
%ADD19RoundRect,0.250000X-0.262500X-0.450000X0.262500X-0.450000X0.262500X0.450000X-0.262500X0.450000X0*%
%ADD20R,1.500000X1.300000*%
%ADD21RoundRect,0.150000X0.150000X-0.825000X0.150000X0.825000X-0.150000X0.825000X-0.150000X-0.825000X0*%
%ADD22RoundRect,0.250000X0.262500X0.450000X-0.262500X0.450000X-0.262500X-0.450000X0.262500X-0.450000X0*%
%ADD23RoundRect,0.112500X0.112500X-0.187500X0.112500X0.187500X-0.112500X0.187500X-0.112500X-0.187500X0*%
%ADD24C,0.900000*%
%ADD25RoundRect,0.250000X-1.000000X0.375000X-1.000000X-0.375000X1.000000X-0.375000X1.000000X0.375000X0*%
%ADD26RoundRect,0.250000X0.725000X-0.600000X0.725000X0.600000X-0.725000X0.600000X-0.725000X-0.600000X0*%
%ADD27O,1.950000X1.700000*%
%ADD28C,1.100000*%
%ADD29RoundRect,0.249999X-0.850001X-0.850001X0.850001X-0.850001X0.850001X0.850001X-0.850001X0.850001X0*%
%ADD30C,2.200000*%
%ADD31RoundRect,0.190500X2.809500X0.444500X-2.809500X0.444500X-2.809500X-0.444500X2.809500X-0.444500X0*%
%ADD32RoundRect,0.190500X-2.809500X-0.444500X2.809500X-0.444500X2.809500X0.444500X-2.809500X0.444500X0*%
%ADD33RoundRect,0.250000X0.750000X-0.600000X0.750000X0.600000X-0.750000X0.600000X-0.750000X-0.600000X0*%
%ADD34O,2.000000X1.700000*%
%ADD35RoundRect,0.250000X-1.950000X-1.000000X1.950000X-1.000000X1.950000X1.000000X-1.950000X1.000000X0*%
%ADD36RoundRect,0.250000X-0.250000X-0.475000X0.250000X-0.475000X0.250000X0.475000X-0.250000X0.475000X0*%
%ADD37RoundRect,0.250000X0.475000X-0.250000X0.475000X0.250000X-0.475000X0.250000X-0.475000X-0.250000X0*%
G04 APERTURE END LIST*
D10*
X5750000Y-56750000D02*
X5750000Y-52750000D01*
X5750000Y-52750000D02*
X6250000Y-53250000D01*
X5750000Y-52750000D02*
X5250000Y-53250000D01*
X5250000Y-53250000D02*
X5750000Y-52750000D01*
X40521443Y-15013788D02*
X40426205Y-14966169D01*
X40426205Y-14966169D02*
X40283348Y-14966169D01*
X40283348Y-14966169D02*
X40140491Y-15013788D01*
X40140491Y-15013788D02*
X40045253Y-15109026D01*
X40045253Y-15109026D02*
X39997634Y-15204264D01*
X39997634Y-15204264D02*
X39950015Y-15394740D01*
X39950015Y-15394740D02*
X39950015Y-15537597D01*
X39950015Y-15537597D02*
X39997634Y-15728073D01*
X39997634Y-15728073D02*
X40045253Y-15823311D01*
X40045253Y-15823311D02*
X40140491Y-15918550D01*
X40140491Y-15918550D02*
X40283348Y-15966169D01*
X40283348Y-15966169D02*
X40378586Y-15966169D01*
X40378586Y-15966169D02*
X40521443Y-15918550D01*
X40521443Y-15918550D02*
X40569062Y-15870930D01*
X40569062Y-15870930D02*
X40569062Y-15537597D01*
X40569062Y-15537597D02*
X40378586Y-15537597D01*
X40997634Y-15966169D02*
X40997634Y-14966169D01*
X40997634Y-14966169D02*
X41569062Y-15966169D01*
X41569062Y-15966169D02*
X41569062Y-14966169D01*
X42045253Y-15966169D02*
X42045253Y-14966169D01*
X42045253Y-14966169D02*
X42283348Y-14966169D01*
X42283348Y-14966169D02*
X42426205Y-15013788D01*
X42426205Y-15013788D02*
X42521443Y-15109026D01*
X42521443Y-15109026D02*
X42569062Y-15204264D01*
X42569062Y-15204264D02*
X42616681Y-15394740D01*
X42616681Y-15394740D02*
X42616681Y-15537597D01*
X42616681Y-15537597D02*
X42569062Y-15728073D01*
X42569062Y-15728073D02*
X42521443Y-15823311D01*
X42521443Y-15823311D02*
X42426205Y-15918550D01*
X42426205Y-15918550D02*
X42283348Y-15966169D01*
X42283348Y-15966169D02*
X42045253Y-15966169D01*
D11*
X32063423Y-49843409D02*
X32396756Y-49843409D01*
X32539613Y-50367219D02*
X32063423Y-50367219D01*
X32063423Y-50367219D02*
X32063423Y-49367219D01*
X32063423Y-49367219D02*
X32539613Y-49367219D01*
X32920566Y-50319600D02*
X33063423Y-50367219D01*
X33063423Y-50367219D02*
X33301518Y-50367219D01*
X33301518Y-50367219D02*
X33396756Y-50319600D01*
X33396756Y-50319600D02*
X33444375Y-50271980D01*
X33444375Y-50271980D02*
X33491994Y-50176742D01*
X33491994Y-50176742D02*
X33491994Y-50081504D01*
X33491994Y-50081504D02*
X33444375Y-49986266D01*
X33444375Y-49986266D02*
X33396756Y-49938647D01*
X33396756Y-49938647D02*
X33301518Y-49891028D01*
X33301518Y-49891028D02*
X33111042Y-49843409D01*
X33111042Y-49843409D02*
X33015804Y-49795790D01*
X33015804Y-49795790D02*
X32968185Y-49748171D01*
X32968185Y-49748171D02*
X32920566Y-49652933D01*
X32920566Y-49652933D02*
X32920566Y-49557695D01*
X32920566Y-49557695D02*
X32968185Y-49462457D01*
X32968185Y-49462457D02*
X33015804Y-49414838D01*
X33015804Y-49414838D02*
X33111042Y-49367219D01*
X33111042Y-49367219D02*
X33349137Y-49367219D01*
X33349137Y-49367219D02*
X33491994Y-49414838D01*
X33920566Y-50367219D02*
X33920566Y-49367219D01*
X33920566Y-49367219D02*
X34301518Y-49367219D01*
X34301518Y-49367219D02*
X34396756Y-49414838D01*
X34396756Y-49414838D02*
X34444375Y-49462457D01*
X34444375Y-49462457D02*
X34491994Y-49557695D01*
X34491994Y-49557695D02*
X34491994Y-49700552D01*
X34491994Y-49700552D02*
X34444375Y-49795790D01*
X34444375Y-49795790D02*
X34396756Y-49843409D01*
X34396756Y-49843409D02*
X34301518Y-49891028D01*
X34301518Y-49891028D02*
X33920566Y-49891028D01*
X34825328Y-49367219D02*
X35444375Y-49367219D01*
X35444375Y-49367219D02*
X35111042Y-49748171D01*
X35111042Y-49748171D02*
X35253899Y-49748171D01*
X35253899Y-49748171D02*
X35349137Y-49795790D01*
X35349137Y-49795790D02*
X35396756Y-49843409D01*
X35396756Y-49843409D02*
X35444375Y-49938647D01*
X35444375Y-49938647D02*
X35444375Y-50176742D01*
X35444375Y-50176742D02*
X35396756Y-50271980D01*
X35396756Y-50271980D02*
X35349137Y-50319600D01*
X35349137Y-50319600D02*
X35253899Y-50367219D01*
X35253899Y-50367219D02*
X34968185Y-50367219D01*
X34968185Y-50367219D02*
X34872947Y-50319600D01*
X34872947Y-50319600D02*
X34825328Y-50271980D01*
X35825328Y-49462457D02*
X35872947Y-49414838D01*
X35872947Y-49414838D02*
X35968185Y-49367219D01*
X35968185Y-49367219D02*
X36206280Y-49367219D01*
X36206280Y-49367219D02*
X36301518Y-49414838D01*
X36301518Y-49414838D02*
X36349137Y-49462457D01*
X36349137Y-49462457D02*
X36396756Y-49557695D01*
X36396756Y-49557695D02*
X36396756Y-49652933D01*
X36396756Y-49652933D02*
X36349137Y-49795790D01*
X36349137Y-49795790D02*
X35777709Y-50367219D01*
X35777709Y-50367219D02*
X36396756Y-50367219D01*
X37396756Y-50271980D02*
X37349137Y-50319600D01*
X37349137Y-50319600D02*
X37206280Y-50367219D01*
X37206280Y-50367219D02*
X37111042Y-50367219D01*
X37111042Y-50367219D02*
X36968185Y-50319600D01*
X36968185Y-50319600D02*
X36872947Y-50224361D01*
X36872947Y-50224361D02*
X36825328Y-50129123D01*
X36825328Y-50129123D02*
X36777709Y-49938647D01*
X36777709Y-49938647D02*
X36777709Y-49795790D01*
X36777709Y-49795790D02*
X36825328Y-49605314D01*
X36825328Y-49605314D02*
X36872947Y-49510076D01*
X36872947Y-49510076D02*
X36968185Y-49414838D01*
X36968185Y-49414838D02*
X37111042Y-49367219D01*
X37111042Y-49367219D02*
X37206280Y-49367219D01*
X37206280Y-49367219D02*
X37349137Y-49414838D01*
X37349137Y-49414838D02*
X37396756Y-49462457D01*
X37730090Y-49367219D02*
X38349137Y-49367219D01*
X38349137Y-49367219D02*
X38015804Y-49748171D01*
X38015804Y-49748171D02*
X38158661Y-49748171D01*
X38158661Y-49748171D02*
X38253899Y-49795790D01*
X38253899Y-49795790D02*
X38301518Y-49843409D01*
X38301518Y-49843409D02*
X38349137Y-49938647D01*
X38349137Y-49938647D02*
X38349137Y-50176742D01*
X38349137Y-50176742D02*
X38301518Y-50271980D01*
X38301518Y-50271980D02*
X38253899Y-50319600D01*
X38253899Y-50319600D02*
X38158661Y-50367219D01*
X38158661Y-50367219D02*
X37872947Y-50367219D01*
X37872947Y-50367219D02*
X37777709Y-50319600D01*
X37777709Y-50319600D02*
X37730090Y-50271980D01*
X38777709Y-49986266D02*
X39539614Y-49986266D01*
X39920566Y-49367219D02*
X40587232Y-49367219D01*
X40587232Y-49367219D02*
X39920566Y-50367219D01*
X39920566Y-50367219D02*
X40587232Y-50367219D01*
X41349137Y-50319600D02*
X41253899Y-50367219D01*
X41253899Y-50367219D02*
X41063423Y-50367219D01*
X41063423Y-50367219D02*
X40968185Y-50319600D01*
X40968185Y-50319600D02*
X40920566Y-50224361D01*
X40920566Y-50224361D02*
X40920566Y-49843409D01*
X40920566Y-49843409D02*
X40968185Y-49748171D01*
X40968185Y-49748171D02*
X41063423Y-49700552D01*
X41063423Y-49700552D02*
X41253899Y-49700552D01*
X41253899Y-49700552D02*
X41349137Y-49748171D01*
X41349137Y-49748171D02*
X41396756Y-49843409D01*
X41396756Y-49843409D02*
X41396756Y-49938647D01*
X41396756Y-49938647D02*
X40920566Y-50033885D01*
X41825328Y-50367219D02*
X41825328Y-49700552D01*
X41825328Y-49891028D02*
X41872947Y-49795790D01*
X41872947Y-49795790D02*
X41920566Y-49748171D01*
X41920566Y-49748171D02*
X42015804Y-49700552D01*
X42015804Y-49700552D02*
X42111042Y-49700552D01*
X42587233Y-50367219D02*
X42491995Y-50319600D01*
X42491995Y-50319600D02*
X42444376Y-50271980D01*
X42444376Y-50271980D02*
X42396757Y-50176742D01*
X42396757Y-50176742D02*
X42396757Y-49891028D01*
X42396757Y-49891028D02*
X42444376Y-49795790D01*
X42444376Y-49795790D02*
X42491995Y-49748171D01*
X42491995Y-49748171D02*
X42587233Y-49700552D01*
X42587233Y-49700552D02*
X42730090Y-49700552D01*
X42730090Y-49700552D02*
X42825328Y-49748171D01*
X42825328Y-49748171D02*
X42872947Y-49795790D01*
X42872947Y-49795790D02*
X42920566Y-49891028D01*
X42920566Y-49891028D02*
X42920566Y-50176742D01*
X42920566Y-50176742D02*
X42872947Y-50271980D01*
X42872947Y-50271980D02*
X42825328Y-50319600D01*
X42825328Y-50319600D02*
X42730090Y-50367219D01*
X42730090Y-50367219D02*
X42587233Y-50367219D01*
D10*
X39997634Y-18516169D02*
X39997634Y-17516169D01*
X39997634Y-17516169D02*
X40235729Y-17516169D01*
X40235729Y-17516169D02*
X40378586Y-17563788D01*
X40378586Y-17563788D02*
X40473824Y-17659026D01*
X40473824Y-17659026D02*
X40521443Y-17754264D01*
X40521443Y-17754264D02*
X40569062Y-17944740D01*
X40569062Y-17944740D02*
X40569062Y-18087597D01*
X40569062Y-18087597D02*
X40521443Y-18278073D01*
X40521443Y-18278073D02*
X40473824Y-18373311D01*
X40473824Y-18373311D02*
X40378586Y-18468550D01*
X40378586Y-18468550D02*
X40235729Y-18516169D01*
X40235729Y-18516169D02*
X39997634Y-18516169D01*
X40997634Y-18516169D02*
X40997634Y-17849502D01*
X40997634Y-17516169D02*
X40950015Y-17563788D01*
X40950015Y-17563788D02*
X40997634Y-17611407D01*
X40997634Y-17611407D02*
X41045253Y-17563788D01*
X41045253Y-17563788D02*
X40997634Y-17516169D01*
X40997634Y-17516169D02*
X40997634Y-17611407D01*
X41473824Y-17849502D02*
X41473824Y-18516169D01*
X41473824Y-17944740D02*
X41521443Y-17897121D01*
X41521443Y-17897121D02*
X41616681Y-17849502D01*
X41616681Y-17849502D02*
X41759538Y-17849502D01*
X41759538Y-17849502D02*
X41854776Y-17897121D01*
X41854776Y-17897121D02*
X41902395Y-17992359D01*
X41902395Y-17992359D02*
X41902395Y-18516169D01*
D11*
X32598244Y-64876086D02*
X32407768Y-64876086D01*
X32407768Y-64876086D02*
X32312530Y-64923705D01*
X32312530Y-64923705D02*
X32264911Y-64971324D01*
X32264911Y-64971324D02*
X32169673Y-65114181D01*
X32169673Y-65114181D02*
X32122054Y-65304657D01*
X32122054Y-65304657D02*
X32122054Y-65685609D01*
X32122054Y-65685609D02*
X32169673Y-65780847D01*
X32169673Y-65780847D02*
X32217292Y-65828467D01*
X32217292Y-65828467D02*
X32312530Y-65876086D01*
X32312530Y-65876086D02*
X32503006Y-65876086D01*
X32503006Y-65876086D02*
X32598244Y-65828467D01*
X32598244Y-65828467D02*
X32645863Y-65780847D01*
X32645863Y-65780847D02*
X32693482Y-65685609D01*
X32693482Y-65685609D02*
X32693482Y-65447514D01*
X32693482Y-65447514D02*
X32645863Y-65352276D01*
X32645863Y-65352276D02*
X32598244Y-65304657D01*
X32598244Y-65304657D02*
X32503006Y-65257038D01*
X32503006Y-65257038D02*
X32312530Y-65257038D01*
X32312530Y-65257038D02*
X32217292Y-65304657D01*
X32217292Y-65304657D02*
X32169673Y-65352276D01*
X32169673Y-65352276D02*
X32122054Y-65447514D01*
X33122054Y-65495133D02*
X33883959Y-65495133D01*
X34883958Y-65876086D02*
X34312530Y-65876086D01*
X34598244Y-65876086D02*
X34598244Y-64876086D01*
X34598244Y-64876086D02*
X34503006Y-65018943D01*
X34503006Y-65018943D02*
X34407768Y-65114181D01*
X34407768Y-65114181D02*
X34312530Y-65161800D01*
X35264911Y-64971324D02*
X35312530Y-64923705D01*
X35312530Y-64923705D02*
X35407768Y-64876086D01*
X35407768Y-64876086D02*
X35645863Y-64876086D01*
X35645863Y-64876086D02*
X35741101Y-64923705D01*
X35741101Y-64923705D02*
X35788720Y-64971324D01*
X35788720Y-64971324D02*
X35836339Y-65066562D01*
X35836339Y-65066562D02*
X35836339Y-65161800D01*
X35836339Y-65161800D02*
X35788720Y-65304657D01*
X35788720Y-65304657D02*
X35217292Y-65876086D01*
X35217292Y-65876086D02*
X35836339Y-65876086D01*
X36122054Y-64876086D02*
X36455387Y-65876086D01*
X36455387Y-65876086D02*
X36788720Y-64876086D01*
X37836340Y-65590371D02*
X38312530Y-65590371D01*
X37741102Y-65876086D02*
X38074435Y-64876086D01*
X38074435Y-64876086D02*
X38407768Y-65876086D01*
X39312530Y-65780847D02*
X39264911Y-65828467D01*
X39264911Y-65828467D02*
X39122054Y-65876086D01*
X39122054Y-65876086D02*
X39026816Y-65876086D01*
X39026816Y-65876086D02*
X38883959Y-65828467D01*
X38883959Y-65828467D02*
X38788721Y-65733228D01*
X38788721Y-65733228D02*
X38741102Y-65637990D01*
X38741102Y-65637990D02*
X38693483Y-65447514D01*
X38693483Y-65447514D02*
X38693483Y-65304657D01*
X38693483Y-65304657D02*
X38741102Y-65114181D01*
X38741102Y-65114181D02*
X38788721Y-65018943D01*
X38788721Y-65018943D02*
X38883959Y-64923705D01*
X38883959Y-64923705D02*
X39026816Y-64876086D01*
X39026816Y-64876086D02*
X39122054Y-64876086D01*
X39122054Y-64876086D02*
X39264911Y-64923705D01*
X39264911Y-64923705D02*
X39312530Y-64971324D01*
X40693483Y-64876086D02*
X40883959Y-64876086D01*
X40883959Y-64876086D02*
X40979197Y-64923705D01*
X40979197Y-64923705D02*
X41074435Y-65018943D01*
X41074435Y-65018943D02*
X41122054Y-65209419D01*
X41122054Y-65209419D02*
X41122054Y-65542752D01*
X41122054Y-65542752D02*
X41074435Y-65733228D01*
X41074435Y-65733228D02*
X40979197Y-65828467D01*
X40979197Y-65828467D02*
X40883959Y-65876086D01*
X40883959Y-65876086D02*
X40693483Y-65876086D01*
X40693483Y-65876086D02*
X40598245Y-65828467D01*
X40598245Y-65828467D02*
X40503007Y-65733228D01*
X40503007Y-65733228D02*
X40455388Y-65542752D01*
X40455388Y-65542752D02*
X40455388Y-65209419D01*
X40455388Y-65209419D02*
X40503007Y-65018943D01*
X40503007Y-65018943D02*
X40598245Y-64923705D01*
X40598245Y-64923705D02*
X40693483Y-64876086D01*
X41979197Y-65209419D02*
X41979197Y-65876086D01*
X41550626Y-65209419D02*
X41550626Y-65733228D01*
X41550626Y-65733228D02*
X41598245Y-65828467D01*
X41598245Y-65828467D02*
X41693483Y-65876086D01*
X41693483Y-65876086D02*
X41836340Y-65876086D01*
X41836340Y-65876086D02*
X41931578Y-65828467D01*
X41931578Y-65828467D02*
X41979197Y-65780847D01*
X42312531Y-65209419D02*
X42693483Y-65209419D01*
X42455388Y-64876086D02*
X42455388Y-65733228D01*
X42455388Y-65733228D02*
X42503007Y-65828467D01*
X42503007Y-65828467D02*
X42598245Y-65876086D01*
X42598245Y-65876086D02*
X42693483Y-65876086D01*
D10*
X2913702Y-58558020D02*
X2875606Y-58591353D01*
X2875606Y-58591353D02*
X2761321Y-58653258D01*
X2761321Y-58653258D02*
X2685130Y-58681830D01*
X2685130Y-58681830D02*
X2570845Y-58705639D01*
X2570845Y-58705639D02*
X2380368Y-58719925D01*
X2380368Y-58719925D02*
X2227987Y-58700877D01*
X2227987Y-58700877D02*
X2037511Y-58638972D01*
X2037511Y-58638972D02*
X1923225Y-58586591D01*
X1923225Y-58586591D02*
X1847035Y-58538972D01*
X1847035Y-58538972D02*
X1732749Y-58448496D01*
X1732749Y-58448496D02*
X1694654Y-58405639D01*
X2608940Y-58215163D02*
X1808940Y-58115163D01*
X1808940Y-58115163D02*
X1808940Y-57924687D01*
X1808940Y-57924687D02*
X1847035Y-57815163D01*
X1847035Y-57815163D02*
X1923225Y-57748497D01*
X1923225Y-57748497D02*
X1999416Y-57719925D01*
X1999416Y-57719925D02*
X2151797Y-57700878D01*
X2151797Y-57700878D02*
X2266083Y-57715163D01*
X2266083Y-57715163D02*
X2418464Y-57772306D01*
X2418464Y-57772306D02*
X2494654Y-57819925D01*
X2494654Y-57819925D02*
X2570845Y-57905639D01*
X2570845Y-57905639D02*
X2608940Y-58024687D01*
X2608940Y-58024687D02*
X2608940Y-58215163D01*
X2608940Y-57415163D02*
X2075606Y-57348497D01*
X1808940Y-57315163D02*
X1847035Y-57358020D01*
X1847035Y-57358020D02*
X1885130Y-57324687D01*
X1885130Y-57324687D02*
X1847035Y-57281830D01*
X1847035Y-57281830D02*
X1808940Y-57315163D01*
X1808940Y-57315163D02*
X1885130Y-57324687D01*
X2570845Y-57067545D02*
X2608940Y-56996116D01*
X2608940Y-56996116D02*
X2608940Y-56843735D01*
X2608940Y-56843735D02*
X2570845Y-56762783D01*
X2570845Y-56762783D02*
X2494654Y-56715164D01*
X2494654Y-56715164D02*
X2456559Y-56710402D01*
X2456559Y-56710402D02*
X2380368Y-56738973D01*
X2380368Y-56738973D02*
X2342273Y-56810402D01*
X2342273Y-56810402D02*
X2342273Y-56924687D01*
X2342273Y-56924687D02*
X2304178Y-56996116D01*
X2304178Y-56996116D02*
X2227987Y-57024687D01*
X2227987Y-57024687D02*
X2189892Y-57019926D01*
X2189892Y-57019926D02*
X2113702Y-56972306D01*
X2113702Y-56972306D02*
X2075606Y-56891354D01*
X2075606Y-56891354D02*
X2075606Y-56777068D01*
X2075606Y-56777068D02*
X2113702Y-56705640D01*
X2608940Y-56043735D02*
X2189892Y-55991354D01*
X2189892Y-55991354D02*
X2113702Y-56019926D01*
X2113702Y-56019926D02*
X2075606Y-56091354D01*
X2075606Y-56091354D02*
X2075606Y-56243735D01*
X2075606Y-56243735D02*
X2113702Y-56324687D01*
X2570845Y-56038973D02*
X2608940Y-56119926D01*
X2608940Y-56119926D02*
X2608940Y-56310402D01*
X2608940Y-56310402D02*
X2570845Y-56381830D01*
X2570845Y-56381830D02*
X2494654Y-56410402D01*
X2494654Y-56410402D02*
X2418464Y-56400878D01*
X2418464Y-56400878D02*
X2342273Y-56353259D01*
X2342273Y-56353259D02*
X2304178Y-56272307D01*
X2304178Y-56272307D02*
X2304178Y-56081830D01*
X2304178Y-56081830D02*
X2266083Y-56000878D01*
X2608940Y-55662782D02*
X1808940Y-55562782D01*
X2113702Y-55600877D02*
X2075606Y-55519925D01*
X2075606Y-55519925D02*
X2075606Y-55367544D01*
X2075606Y-55367544D02*
X2113702Y-55296116D01*
X2113702Y-55296116D02*
X2151797Y-55262782D01*
X2151797Y-55262782D02*
X2227987Y-55234211D01*
X2227987Y-55234211D02*
X2456559Y-55262782D01*
X2456559Y-55262782D02*
X2532749Y-55310401D01*
X2532749Y-55310401D02*
X2570845Y-55353258D01*
X2570845Y-55353258D02*
X2608940Y-55434211D01*
X2608940Y-55434211D02*
X2608940Y-55586592D01*
X2608940Y-55586592D02*
X2570845Y-55658020D01*
X2608940Y-54824687D02*
X2570845Y-54896115D01*
X2570845Y-54896115D02*
X2494654Y-54924687D01*
X2494654Y-54924687D02*
X1808940Y-54838972D01*
X2570845Y-54210400D02*
X2608940Y-54291353D01*
X2608940Y-54291353D02*
X2608940Y-54443734D01*
X2608940Y-54443734D02*
X2570845Y-54515162D01*
X2570845Y-54515162D02*
X2494654Y-54543734D01*
X2494654Y-54543734D02*
X2189892Y-54505639D01*
X2189892Y-54505639D02*
X2113702Y-54458019D01*
X2113702Y-54458019D02*
X2075606Y-54377067D01*
X2075606Y-54377067D02*
X2075606Y-54224686D01*
X2075606Y-54224686D02*
X2113702Y-54153258D01*
X2113702Y-54153258D02*
X2189892Y-54124686D01*
X2189892Y-54124686D02*
X2266083Y-54134210D01*
X2266083Y-54134210D02*
X2342273Y-54524686D01*
X2075606Y-53272305D02*
X2075606Y-52967543D01*
X2608940Y-53224686D02*
X1923225Y-53138972D01*
X1923225Y-53138972D02*
X1847035Y-53091353D01*
X1847035Y-53091353D02*
X1808940Y-53010401D01*
X1808940Y-53010401D02*
X1808940Y-52934210D01*
X2608940Y-52653258D02*
X2570845Y-52724686D01*
X2570845Y-52724686D02*
X2532749Y-52758019D01*
X2532749Y-52758019D02*
X2456559Y-52786591D01*
X2456559Y-52786591D02*
X2227987Y-52758019D01*
X2227987Y-52758019D02*
X2151797Y-52710400D01*
X2151797Y-52710400D02*
X2113702Y-52667543D01*
X2113702Y-52667543D02*
X2075606Y-52586591D01*
X2075606Y-52586591D02*
X2075606Y-52472305D01*
X2075606Y-52472305D02*
X2113702Y-52400877D01*
X2113702Y-52400877D02*
X2151797Y-52367543D01*
X2151797Y-52367543D02*
X2227987Y-52338972D01*
X2227987Y-52338972D02*
X2456559Y-52367543D01*
X2456559Y-52367543D02*
X2532749Y-52415162D01*
X2532749Y-52415162D02*
X2570845Y-52458019D01*
X2570845Y-52458019D02*
X2608940Y-52538972D01*
X2608940Y-52538972D02*
X2608940Y-52653258D01*
X2608940Y-52043733D02*
X2075606Y-51977067D01*
X2227987Y-51996114D02*
X2151797Y-51948495D01*
X2151797Y-51948495D02*
X2113702Y-51905638D01*
X2113702Y-51905638D02*
X2075606Y-51824686D01*
X2075606Y-51824686D02*
X2075606Y-51748495D01*
X3363561Y-58681830D02*
X4163561Y-58781830D01*
X3401657Y-58686591D02*
X3363561Y-58605639D01*
X3363561Y-58605639D02*
X3363561Y-58453258D01*
X3363561Y-58453258D02*
X3401657Y-58381830D01*
X3401657Y-58381830D02*
X3439752Y-58348496D01*
X3439752Y-58348496D02*
X3515942Y-58319925D01*
X3515942Y-58319925D02*
X3744514Y-58348496D01*
X3744514Y-58348496D02*
X3820704Y-58396115D01*
X3820704Y-58396115D02*
X3858800Y-58438972D01*
X3858800Y-58438972D02*
X3896895Y-58519925D01*
X3896895Y-58519925D02*
X3896895Y-58672306D01*
X3896895Y-58672306D02*
X3858800Y-58743734D01*
X3896895Y-58024686D02*
X3363561Y-57958020D01*
X3515942Y-57977067D02*
X3439752Y-57929448D01*
X3439752Y-57929448D02*
X3401657Y-57886591D01*
X3401657Y-57886591D02*
X3363561Y-57805639D01*
X3363561Y-57805639D02*
X3363561Y-57729448D01*
X3896895Y-57415163D02*
X3858800Y-57486591D01*
X3858800Y-57486591D02*
X3820704Y-57519924D01*
X3820704Y-57519924D02*
X3744514Y-57548496D01*
X3744514Y-57548496D02*
X3515942Y-57519924D01*
X3515942Y-57519924D02*
X3439752Y-57472305D01*
X3439752Y-57472305D02*
X3401657Y-57429448D01*
X3401657Y-57429448D02*
X3363561Y-57348496D01*
X3363561Y-57348496D02*
X3363561Y-57234210D01*
X3363561Y-57234210D02*
X3401657Y-57162782D01*
X3401657Y-57162782D02*
X3439752Y-57129448D01*
X3439752Y-57129448D02*
X3515942Y-57100877D01*
X3515942Y-57100877D02*
X3744514Y-57129448D01*
X3744514Y-57129448D02*
X3820704Y-57177067D01*
X3820704Y-57177067D02*
X3858800Y-57219924D01*
X3858800Y-57219924D02*
X3896895Y-57300877D01*
X3896895Y-57300877D02*
X3896895Y-57415163D01*
X3363561Y-56396114D02*
X4011180Y-56477067D01*
X4011180Y-56477067D02*
X4087371Y-56524686D01*
X4087371Y-56524686D02*
X4125466Y-56567543D01*
X4125466Y-56567543D02*
X4163561Y-56648495D01*
X4163561Y-56648495D02*
X4163561Y-56762781D01*
X4163561Y-56762781D02*
X4125466Y-56834210D01*
X3858800Y-56458019D02*
X3896895Y-56538972D01*
X3896895Y-56538972D02*
X3896895Y-56691353D01*
X3896895Y-56691353D02*
X3858800Y-56762781D01*
X3858800Y-56762781D02*
X3820704Y-56796114D01*
X3820704Y-56796114D02*
X3744514Y-56824686D01*
X3744514Y-56824686D02*
X3515942Y-56796114D01*
X3515942Y-56796114D02*
X3439752Y-56748495D01*
X3439752Y-56748495D02*
X3401657Y-56705638D01*
X3401657Y-56705638D02*
X3363561Y-56624686D01*
X3363561Y-56624686D02*
X3363561Y-56472305D01*
X3363561Y-56472305D02*
X3401657Y-56400876D01*
X3896895Y-56081828D02*
X3363561Y-56015162D01*
X3515942Y-56034209D02*
X3439752Y-55986590D01*
X3439752Y-55986590D02*
X3401657Y-55943733D01*
X3401657Y-55943733D02*
X3363561Y-55862781D01*
X3363561Y-55862781D02*
X3363561Y-55786590D01*
X3896895Y-55243733D02*
X3477847Y-55191352D01*
X3477847Y-55191352D02*
X3401657Y-55219924D01*
X3401657Y-55219924D02*
X3363561Y-55291352D01*
X3363561Y-55291352D02*
X3363561Y-55443733D01*
X3363561Y-55443733D02*
X3401657Y-55524685D01*
X3858800Y-55238971D02*
X3896895Y-55319924D01*
X3896895Y-55319924D02*
X3896895Y-55510400D01*
X3896895Y-55510400D02*
X3858800Y-55581828D01*
X3858800Y-55581828D02*
X3782609Y-55610400D01*
X3782609Y-55610400D02*
X3706419Y-55600876D01*
X3706419Y-55600876D02*
X3630228Y-55553257D01*
X3630228Y-55553257D02*
X3592133Y-55472305D01*
X3592133Y-55472305D02*
X3592133Y-55281828D01*
X3592133Y-55281828D02*
X3554038Y-55200876D01*
X3896895Y-54862780D02*
X3363561Y-54796114D01*
X3439752Y-54805637D02*
X3401657Y-54762780D01*
X3401657Y-54762780D02*
X3363561Y-54681828D01*
X3363561Y-54681828D02*
X3363561Y-54567542D01*
X3363561Y-54567542D02*
X3401657Y-54496114D01*
X3401657Y-54496114D02*
X3477847Y-54467542D01*
X3477847Y-54467542D02*
X3896895Y-54519923D01*
X3477847Y-54467542D02*
X3401657Y-54419923D01*
X3401657Y-54419923D02*
X3363561Y-54338971D01*
X3363561Y-54338971D02*
X3363561Y-54224685D01*
X3363561Y-54224685D02*
X3401657Y-54153256D01*
X3401657Y-54153256D02*
X3477847Y-54124685D01*
X3477847Y-54124685D02*
X3896895Y-54177066D01*
X3896895Y-53796113D02*
X3363561Y-53729447D01*
X3439752Y-53738970D02*
X3401657Y-53696113D01*
X3401657Y-53696113D02*
X3363561Y-53615161D01*
X3363561Y-53615161D02*
X3363561Y-53500875D01*
X3363561Y-53500875D02*
X3401657Y-53429447D01*
X3401657Y-53429447D02*
X3477847Y-53400875D01*
X3477847Y-53400875D02*
X3896895Y-53453256D01*
X3477847Y-53400875D02*
X3401657Y-53353256D01*
X3401657Y-53353256D02*
X3363561Y-53272304D01*
X3363561Y-53272304D02*
X3363561Y-53158018D01*
X3363561Y-53158018D02*
X3401657Y-53086589D01*
X3401657Y-53086589D02*
X3477847Y-53058018D01*
X3477847Y-53058018D02*
X3896895Y-53110399D01*
X3896895Y-52729446D02*
X3363561Y-52662780D01*
X3096895Y-52629446D02*
X3134990Y-52672303D01*
X3134990Y-52672303D02*
X3173085Y-52638970D01*
X3173085Y-52638970D02*
X3134990Y-52596113D01*
X3134990Y-52596113D02*
X3096895Y-52629446D01*
X3096895Y-52629446D02*
X3173085Y-52638970D01*
X3363561Y-52281828D02*
X3896895Y-52348494D01*
X3439752Y-52291351D02*
X3401657Y-52248494D01*
X3401657Y-52248494D02*
X3363561Y-52167542D01*
X3363561Y-52167542D02*
X3363561Y-52053256D01*
X3363561Y-52053256D02*
X3401657Y-51981828D01*
X3401657Y-51981828D02*
X3477847Y-51953256D01*
X3477847Y-51953256D02*
X3896895Y-52005637D01*
X3363561Y-51215160D02*
X4011180Y-51296113D01*
X4011180Y-51296113D02*
X4087371Y-51343732D01*
X4087371Y-51343732D02*
X4125466Y-51386589D01*
X4125466Y-51386589D02*
X4163561Y-51467541D01*
X4163561Y-51467541D02*
X4163561Y-51581827D01*
X4163561Y-51581827D02*
X4125466Y-51653256D01*
X3858800Y-51277065D02*
X3896895Y-51358018D01*
X3896895Y-51358018D02*
X3896895Y-51510399D01*
X3896895Y-51510399D02*
X3858800Y-51581827D01*
X3858800Y-51581827D02*
X3820704Y-51615160D01*
X3820704Y-51615160D02*
X3744514Y-51643732D01*
X3744514Y-51643732D02*
X3515942Y-51615160D01*
X3515942Y-51615160D02*
X3439752Y-51567541D01*
X3439752Y-51567541D02*
X3401657Y-51524684D01*
X3401657Y-51524684D02*
X3363561Y-51443732D01*
X3363561Y-51443732D02*
X3363561Y-51291351D01*
X3363561Y-51291351D02*
X3401657Y-51219922D01*
X4201657Y-51015160D02*
X4163561Y-50972303D01*
X4163561Y-50972303D02*
X4049276Y-50881827D01*
X4049276Y-50881827D02*
X3973085Y-50834208D01*
X3973085Y-50834208D02*
X3858800Y-50781827D01*
X3858800Y-50781827D02*
X3668323Y-50719922D01*
X3668323Y-50719922D02*
X3515942Y-50700874D01*
X3515942Y-50700874D02*
X3325466Y-50715160D01*
X3325466Y-50715160D02*
X3211180Y-50738969D01*
X3211180Y-50738969D02*
X3134990Y-50767541D01*
X3134990Y-50767541D02*
X3020704Y-50829446D01*
X3020704Y-50829446D02*
X2982609Y-50862779D01*
D11*
X5060149Y-51117219D02*
X5250625Y-51117219D01*
X5250625Y-51117219D02*
X5345863Y-51164838D01*
X5345863Y-51164838D02*
X5441101Y-51260076D01*
X5441101Y-51260076D02*
X5488720Y-51450552D01*
X5488720Y-51450552D02*
X5488720Y-51783885D01*
X5488720Y-51783885D02*
X5441101Y-51974361D01*
X5441101Y-51974361D02*
X5345863Y-52069600D01*
X5345863Y-52069600D02*
X5250625Y-52117219D01*
X5250625Y-52117219D02*
X5060149Y-52117219D01*
X5060149Y-52117219D02*
X4964911Y-52069600D01*
X4964911Y-52069600D02*
X4869673Y-51974361D01*
X4869673Y-51974361D02*
X4822054Y-51783885D01*
X4822054Y-51783885D02*
X4822054Y-51450552D01*
X4822054Y-51450552D02*
X4869673Y-51260076D01*
X4869673Y-51260076D02*
X4964911Y-51164838D01*
X4964911Y-51164838D02*
X5060149Y-51117219D01*
X5917292Y-52117219D02*
X5917292Y-51117219D01*
X5917292Y-51117219D02*
X6488720Y-52117219D01*
X6488720Y-52117219D02*
X6488720Y-51117219D01*
X37760969Y-20819314D02*
X38760969Y-20581219D01*
X38760969Y-20581219D02*
X38046683Y-20390743D01*
X38046683Y-20390743D02*
X38760969Y-20200267D01*
X38760969Y-20200267D02*
X37760969Y-19962172D01*
X38713350Y-19628838D02*
X38760969Y-19485981D01*
X38760969Y-19485981D02*
X38760969Y-19247886D01*
X38760969Y-19247886D02*
X38713350Y-19152648D01*
X38713350Y-19152648D02*
X38665730Y-19105029D01*
X38665730Y-19105029D02*
X38570492Y-19057410D01*
X38570492Y-19057410D02*
X38475254Y-19057410D01*
X38475254Y-19057410D02*
X38380016Y-19105029D01*
X38380016Y-19105029D02*
X38332397Y-19152648D01*
X38332397Y-19152648D02*
X38284778Y-19247886D01*
X38284778Y-19247886D02*
X38237159Y-19438362D01*
X38237159Y-19438362D02*
X38189540Y-19533600D01*
X38189540Y-19533600D02*
X38141921Y-19581219D01*
X38141921Y-19581219D02*
X38046683Y-19628838D01*
X38046683Y-19628838D02*
X37951445Y-19628838D01*
X37951445Y-19628838D02*
X37856207Y-19581219D01*
X37856207Y-19581219D02*
X37808588Y-19533600D01*
X37808588Y-19533600D02*
X37760969Y-19438362D01*
X37760969Y-19438362D02*
X37760969Y-19200267D01*
X37760969Y-19200267D02*
X37808588Y-19057410D01*
X37856207Y-18676457D02*
X37808588Y-18628838D01*
X37808588Y-18628838D02*
X37760969Y-18533600D01*
X37760969Y-18533600D02*
X37760969Y-18295505D01*
X37760969Y-18295505D02*
X37808588Y-18200267D01*
X37808588Y-18200267D02*
X37856207Y-18152648D01*
X37856207Y-18152648D02*
X37951445Y-18105029D01*
X37951445Y-18105029D02*
X38046683Y-18105029D01*
X38046683Y-18105029D02*
X38189540Y-18152648D01*
X38189540Y-18152648D02*
X38760969Y-18724076D01*
X38760969Y-18724076D02*
X38760969Y-18105029D01*
X38189540Y-17533600D02*
X38141921Y-17628838D01*
X38141921Y-17628838D02*
X38094302Y-17676457D01*
X38094302Y-17676457D02*
X37999064Y-17724076D01*
X37999064Y-17724076D02*
X37951445Y-17724076D01*
X37951445Y-17724076D02*
X37856207Y-17676457D01*
X37856207Y-17676457D02*
X37808588Y-17628838D01*
X37808588Y-17628838D02*
X37760969Y-17533600D01*
X37760969Y-17533600D02*
X37760969Y-17343124D01*
X37760969Y-17343124D02*
X37808588Y-17247886D01*
X37808588Y-17247886D02*
X37856207Y-17200267D01*
X37856207Y-17200267D02*
X37951445Y-17152648D01*
X37951445Y-17152648D02*
X37999064Y-17152648D01*
X37999064Y-17152648D02*
X38094302Y-17200267D01*
X38094302Y-17200267D02*
X38141921Y-17247886D01*
X38141921Y-17247886D02*
X38189540Y-17343124D01*
X38189540Y-17343124D02*
X38189540Y-17533600D01*
X38189540Y-17533600D02*
X38237159Y-17628838D01*
X38237159Y-17628838D02*
X38284778Y-17676457D01*
X38284778Y-17676457D02*
X38380016Y-17724076D01*
X38380016Y-17724076D02*
X38570492Y-17724076D01*
X38570492Y-17724076D02*
X38665730Y-17676457D01*
X38665730Y-17676457D02*
X38713350Y-17628838D01*
X38713350Y-17628838D02*
X38760969Y-17533600D01*
X38760969Y-17533600D02*
X38760969Y-17343124D01*
X38760969Y-17343124D02*
X38713350Y-17247886D01*
X38713350Y-17247886D02*
X38665730Y-17200267D01*
X38665730Y-17200267D02*
X38570492Y-17152648D01*
X38570492Y-17152648D02*
X38380016Y-17152648D01*
X38380016Y-17152648D02*
X38284778Y-17200267D01*
X38284778Y-17200267D02*
X38237159Y-17247886D01*
X38237159Y-17247886D02*
X38189540Y-17343124D01*
X38760969Y-16200267D02*
X38760969Y-16771695D01*
X38760969Y-16485981D02*
X37760969Y-16485981D01*
X37760969Y-16485981D02*
X37903826Y-16581219D01*
X37903826Y-16581219D02*
X37999064Y-16676457D01*
X37999064Y-16676457D02*
X38046683Y-16771695D01*
X37856207Y-15819314D02*
X37808588Y-15771695D01*
X37808588Y-15771695D02*
X37760969Y-15676457D01*
X37760969Y-15676457D02*
X37760969Y-15438362D01*
X37760969Y-15438362D02*
X37808588Y-15343124D01*
X37808588Y-15343124D02*
X37856207Y-15295505D01*
X37856207Y-15295505D02*
X37951445Y-15247886D01*
X37951445Y-15247886D02*
X38046683Y-15247886D01*
X38046683Y-15247886D02*
X38189540Y-15295505D01*
X38189540Y-15295505D02*
X38760969Y-15866933D01*
X38760969Y-15866933D02*
X38760969Y-15247886D01*
D10*
X39854777Y-19966169D02*
X40188110Y-20966169D01*
X40188110Y-20966169D02*
X40521443Y-19966169D01*
X41426205Y-20870930D02*
X41378586Y-20918550D01*
X41378586Y-20918550D02*
X41235729Y-20966169D01*
X41235729Y-20966169D02*
X41140491Y-20966169D01*
X41140491Y-20966169D02*
X40997634Y-20918550D01*
X40997634Y-20918550D02*
X40902396Y-20823311D01*
X40902396Y-20823311D02*
X40854777Y-20728073D01*
X40854777Y-20728073D02*
X40807158Y-20537597D01*
X40807158Y-20537597D02*
X40807158Y-20394740D01*
X40807158Y-20394740D02*
X40854777Y-20204264D01*
X40854777Y-20204264D02*
X40902396Y-20109026D01*
X40902396Y-20109026D02*
X40997634Y-20013788D01*
X40997634Y-20013788D02*
X41140491Y-19966169D01*
X41140491Y-19966169D02*
X41235729Y-19966169D01*
X41235729Y-19966169D02*
X41378586Y-20013788D01*
X41378586Y-20013788D02*
X41426205Y-20061407D01*
X42426205Y-20870930D02*
X42378586Y-20918550D01*
X42378586Y-20918550D02*
X42235729Y-20966169D01*
X42235729Y-20966169D02*
X42140491Y-20966169D01*
X42140491Y-20966169D02*
X41997634Y-20918550D01*
X41997634Y-20918550D02*
X41902396Y-20823311D01*
X41902396Y-20823311D02*
X41854777Y-20728073D01*
X41854777Y-20728073D02*
X41807158Y-20537597D01*
X41807158Y-20537597D02*
X41807158Y-20394740D01*
X41807158Y-20394740D02*
X41854777Y-20204264D01*
X41854777Y-20204264D02*
X41902396Y-20109026D01*
X41902396Y-20109026D02*
X41997634Y-20013788D01*
X41997634Y-20013788D02*
X42140491Y-19966169D01*
X42140491Y-19966169D02*
X42235729Y-19966169D01*
X42235729Y-19966169D02*
X42378586Y-20013788D01*
X42378586Y-20013788D02*
X42426205Y-20061407D01*
D11*
X1983465Y-63345238D02*
X2031084Y-63202381D01*
X2031084Y-63202381D02*
X2078703Y-63154762D01*
X2078703Y-63154762D02*
X2173941Y-63107143D01*
X2173941Y-63107143D02*
X2316798Y-63107143D01*
X2316798Y-63107143D02*
X2412036Y-63154762D01*
X2412036Y-63154762D02*
X2459656Y-63202381D01*
X2459656Y-63202381D02*
X2507275Y-63297619D01*
X2507275Y-63297619D02*
X2507275Y-63678571D01*
X2507275Y-63678571D02*
X1507275Y-63678571D01*
X1507275Y-63678571D02*
X1507275Y-63345238D01*
X1507275Y-63345238D02*
X1554894Y-63250000D01*
X1554894Y-63250000D02*
X1602513Y-63202381D01*
X1602513Y-63202381D02*
X1697751Y-63154762D01*
X1697751Y-63154762D02*
X1792989Y-63154762D01*
X1792989Y-63154762D02*
X1888227Y-63202381D01*
X1888227Y-63202381D02*
X1935846Y-63250000D01*
X1935846Y-63250000D02*
X1983465Y-63345238D01*
X1983465Y-63345238D02*
X1983465Y-63678571D01*
X2507275Y-62535714D02*
X2459656Y-62630952D01*
X2459656Y-62630952D02*
X2412036Y-62678571D01*
X2412036Y-62678571D02*
X2316798Y-62726190D01*
X2316798Y-62726190D02*
X2031084Y-62726190D01*
X2031084Y-62726190D02*
X1935846Y-62678571D01*
X1935846Y-62678571D02*
X1888227Y-62630952D01*
X1888227Y-62630952D02*
X1840608Y-62535714D01*
X1840608Y-62535714D02*
X1840608Y-62392857D01*
X1840608Y-62392857D02*
X1888227Y-62297619D01*
X1888227Y-62297619D02*
X1935846Y-62250000D01*
X1935846Y-62250000D02*
X2031084Y-62202381D01*
X2031084Y-62202381D02*
X2316798Y-62202381D01*
X2316798Y-62202381D02*
X2412036Y-62250000D01*
X2412036Y-62250000D02*
X2459656Y-62297619D01*
X2459656Y-62297619D02*
X2507275Y-62392857D01*
X2507275Y-62392857D02*
X2507275Y-62535714D01*
X2507275Y-61345238D02*
X1983465Y-61345238D01*
X1983465Y-61345238D02*
X1888227Y-61392857D01*
X1888227Y-61392857D02*
X1840608Y-61488095D01*
X1840608Y-61488095D02*
X1840608Y-61678571D01*
X1840608Y-61678571D02*
X1888227Y-61773809D01*
X2459656Y-61345238D02*
X2507275Y-61440476D01*
X2507275Y-61440476D02*
X2507275Y-61678571D01*
X2507275Y-61678571D02*
X2459656Y-61773809D01*
X2459656Y-61773809D02*
X2364417Y-61821428D01*
X2364417Y-61821428D02*
X2269179Y-61821428D01*
X2269179Y-61821428D02*
X2173941Y-61773809D01*
X2173941Y-61773809D02*
X2126322Y-61678571D01*
X2126322Y-61678571D02*
X2126322Y-61440476D01*
X2126322Y-61440476D02*
X2078703Y-61345238D01*
X2507275Y-60869047D02*
X1840608Y-60869047D01*
X2031084Y-60869047D02*
X1935846Y-60821428D01*
X1935846Y-60821428D02*
X1888227Y-60773809D01*
X1888227Y-60773809D02*
X1840608Y-60678571D01*
X1840608Y-60678571D02*
X1840608Y-60583333D01*
X2507275Y-59821428D02*
X1507275Y-59821428D01*
X2459656Y-59821428D02*
X2507275Y-59916666D01*
X2507275Y-59916666D02*
X2507275Y-60107142D01*
X2507275Y-60107142D02*
X2459656Y-60202380D01*
X2459656Y-60202380D02*
X2412036Y-60249999D01*
X2412036Y-60249999D02*
X2316798Y-60297618D01*
X2316798Y-60297618D02*
X2031084Y-60297618D01*
X2031084Y-60297618D02*
X1935846Y-60249999D01*
X1935846Y-60249999D02*
X1888227Y-60202380D01*
X1888227Y-60202380D02*
X1840608Y-60107142D01*
X1840608Y-60107142D02*
X1840608Y-59916666D01*
X1840608Y-59916666D02*
X1888227Y-59821428D01*
X4117219Y-63726190D02*
X3117219Y-63726190D01*
X3117219Y-63726190D02*
X3117219Y-63345238D01*
X3117219Y-63345238D02*
X3164838Y-63250000D01*
X3164838Y-63250000D02*
X3212457Y-63202381D01*
X3212457Y-63202381D02*
X3307695Y-63154762D01*
X3307695Y-63154762D02*
X3450552Y-63154762D01*
X3450552Y-63154762D02*
X3545790Y-63202381D01*
X3545790Y-63202381D02*
X3593409Y-63250000D01*
X3593409Y-63250000D02*
X3641028Y-63345238D01*
X3641028Y-63345238D02*
X3641028Y-63726190D01*
X4117219Y-62583333D02*
X4069600Y-62678571D01*
X4069600Y-62678571D02*
X4021980Y-62726190D01*
X4021980Y-62726190D02*
X3926742Y-62773809D01*
X3926742Y-62773809D02*
X3641028Y-62773809D01*
X3641028Y-62773809D02*
X3545790Y-62726190D01*
X3545790Y-62726190D02*
X3498171Y-62678571D01*
X3498171Y-62678571D02*
X3450552Y-62583333D01*
X3450552Y-62583333D02*
X3450552Y-62440476D01*
X3450552Y-62440476D02*
X3498171Y-62345238D01*
X3498171Y-62345238D02*
X3545790Y-62297619D01*
X3545790Y-62297619D02*
X3641028Y-62250000D01*
X3641028Y-62250000D02*
X3926742Y-62250000D01*
X3926742Y-62250000D02*
X4021980Y-62297619D01*
X4021980Y-62297619D02*
X4069600Y-62345238D01*
X4069600Y-62345238D02*
X4117219Y-62440476D01*
X4117219Y-62440476D02*
X4117219Y-62583333D01*
X3450552Y-61916666D02*
X4117219Y-61726190D01*
X4117219Y-61726190D02*
X3641028Y-61535714D01*
X3641028Y-61535714D02*
X4117219Y-61345238D01*
X4117219Y-61345238D02*
X3450552Y-61154762D01*
X4069600Y-60392857D02*
X4117219Y-60488095D01*
X4117219Y-60488095D02*
X4117219Y-60678571D01*
X4117219Y-60678571D02*
X4069600Y-60773809D01*
X4069600Y-60773809D02*
X3974361Y-60821428D01*
X3974361Y-60821428D02*
X3593409Y-60821428D01*
X3593409Y-60821428D02*
X3498171Y-60773809D01*
X3498171Y-60773809D02*
X3450552Y-60678571D01*
X3450552Y-60678571D02*
X3450552Y-60488095D01*
X3450552Y-60488095D02*
X3498171Y-60392857D01*
X3498171Y-60392857D02*
X3593409Y-60345238D01*
X3593409Y-60345238D02*
X3688647Y-60345238D01*
X3688647Y-60345238D02*
X3783885Y-60821428D01*
X4117219Y-59916666D02*
X3450552Y-59916666D01*
X3641028Y-59916666D02*
X3545790Y-59869047D01*
X3545790Y-59869047D02*
X3498171Y-59821428D01*
X3498171Y-59821428D02*
X3450552Y-59726190D01*
X3450552Y-59726190D02*
X3450552Y-59630952D01*
X42560969Y-58458898D02*
X42084778Y-58792231D01*
X42560969Y-59030326D02*
X41560969Y-59030326D01*
X41560969Y-59030326D02*
X41560969Y-58649374D01*
X41560969Y-58649374D02*
X41608588Y-58554136D01*
X41608588Y-58554136D02*
X41656207Y-58506517D01*
X41656207Y-58506517D02*
X41751445Y-58458898D01*
X41751445Y-58458898D02*
X41894302Y-58458898D01*
X41894302Y-58458898D02*
X41989540Y-58506517D01*
X41989540Y-58506517D02*
X42037159Y-58554136D01*
X42037159Y-58554136D02*
X42084778Y-58649374D01*
X42084778Y-58649374D02*
X42084778Y-59030326D01*
X42513350Y-57649374D02*
X42560969Y-57744612D01*
X42560969Y-57744612D02*
X42560969Y-57935088D01*
X42560969Y-57935088D02*
X42513350Y-58030326D01*
X42513350Y-58030326D02*
X42418111Y-58077945D01*
X42418111Y-58077945D02*
X42037159Y-58077945D01*
X42037159Y-58077945D02*
X41941921Y-58030326D01*
X41941921Y-58030326D02*
X41894302Y-57935088D01*
X41894302Y-57935088D02*
X41894302Y-57744612D01*
X41894302Y-57744612D02*
X41941921Y-57649374D01*
X41941921Y-57649374D02*
X42037159Y-57601755D01*
X42037159Y-57601755D02*
X42132397Y-57601755D01*
X42132397Y-57601755D02*
X42227635Y-58077945D01*
X42513350Y-57220802D02*
X42560969Y-57125564D01*
X42560969Y-57125564D02*
X42560969Y-56935088D01*
X42560969Y-56935088D02*
X42513350Y-56839850D01*
X42513350Y-56839850D02*
X42418111Y-56792231D01*
X42418111Y-56792231D02*
X42370492Y-56792231D01*
X42370492Y-56792231D02*
X42275254Y-56839850D01*
X42275254Y-56839850D02*
X42227635Y-56935088D01*
X42227635Y-56935088D02*
X42227635Y-57077945D01*
X42227635Y-57077945D02*
X42180016Y-57173183D01*
X42180016Y-57173183D02*
X42084778Y-57220802D01*
X42084778Y-57220802D02*
X42037159Y-57220802D01*
X42037159Y-57220802D02*
X41941921Y-57173183D01*
X41941921Y-57173183D02*
X41894302Y-57077945D01*
X41894302Y-57077945D02*
X41894302Y-56935088D01*
X41894302Y-56935088D02*
X41941921Y-56839850D01*
X42513350Y-55982707D02*
X42560969Y-56077945D01*
X42560969Y-56077945D02*
X42560969Y-56268421D01*
X42560969Y-56268421D02*
X42513350Y-56363659D01*
X42513350Y-56363659D02*
X42418111Y-56411278D01*
X42418111Y-56411278D02*
X42037159Y-56411278D01*
X42037159Y-56411278D02*
X41941921Y-56363659D01*
X41941921Y-56363659D02*
X41894302Y-56268421D01*
X41894302Y-56268421D02*
X41894302Y-56077945D01*
X41894302Y-56077945D02*
X41941921Y-55982707D01*
X41941921Y-55982707D02*
X42037159Y-55935088D01*
X42037159Y-55935088D02*
X42132397Y-55935088D01*
X42132397Y-55935088D02*
X42227635Y-56411278D01*
X41894302Y-55649373D02*
X41894302Y-55268421D01*
X41560969Y-55506516D02*
X42418111Y-55506516D01*
X42418111Y-55506516D02*
X42513350Y-55458897D01*
X42513350Y-55458897D02*
X42560969Y-55363659D01*
X42560969Y-55363659D02*
X42560969Y-55268421D01*
X12298244Y-64867219D02*
X12107768Y-64867219D01*
X12107768Y-64867219D02*
X12012530Y-64914838D01*
X12012530Y-64914838D02*
X11964911Y-64962457D01*
X11964911Y-64962457D02*
X11869673Y-65105314D01*
X11869673Y-65105314D02*
X11822054Y-65295790D01*
X11822054Y-65295790D02*
X11822054Y-65676742D01*
X11822054Y-65676742D02*
X11869673Y-65771980D01*
X11869673Y-65771980D02*
X11917292Y-65819600D01*
X11917292Y-65819600D02*
X12012530Y-65867219D01*
X12012530Y-65867219D02*
X12203006Y-65867219D01*
X12203006Y-65867219D02*
X12298244Y-65819600D01*
X12298244Y-65819600D02*
X12345863Y-65771980D01*
X12345863Y-65771980D02*
X12393482Y-65676742D01*
X12393482Y-65676742D02*
X12393482Y-65438647D01*
X12393482Y-65438647D02*
X12345863Y-65343409D01*
X12345863Y-65343409D02*
X12298244Y-65295790D01*
X12298244Y-65295790D02*
X12203006Y-65248171D01*
X12203006Y-65248171D02*
X12012530Y-65248171D01*
X12012530Y-65248171D02*
X11917292Y-65295790D01*
X11917292Y-65295790D02*
X11869673Y-65343409D01*
X11869673Y-65343409D02*
X11822054Y-65438647D01*
X12822054Y-65486266D02*
X13583959Y-65486266D01*
X14583958Y-65867219D02*
X14012530Y-65867219D01*
X14298244Y-65867219D02*
X14298244Y-64867219D01*
X14298244Y-64867219D02*
X14203006Y-65010076D01*
X14203006Y-65010076D02*
X14107768Y-65105314D01*
X14107768Y-65105314D02*
X14012530Y-65152933D01*
X14964911Y-64962457D02*
X15012530Y-64914838D01*
X15012530Y-64914838D02*
X15107768Y-64867219D01*
X15107768Y-64867219D02*
X15345863Y-64867219D01*
X15345863Y-64867219D02*
X15441101Y-64914838D01*
X15441101Y-64914838D02*
X15488720Y-64962457D01*
X15488720Y-64962457D02*
X15536339Y-65057695D01*
X15536339Y-65057695D02*
X15536339Y-65152933D01*
X15536339Y-65152933D02*
X15488720Y-65295790D01*
X15488720Y-65295790D02*
X14917292Y-65867219D01*
X14917292Y-65867219D02*
X15536339Y-65867219D01*
X15822054Y-64867219D02*
X16155387Y-65867219D01*
X16155387Y-65867219D02*
X16488720Y-64867219D01*
X17536340Y-65581504D02*
X18012530Y-65581504D01*
X17441102Y-65867219D02*
X17774435Y-64867219D01*
X17774435Y-64867219D02*
X18107768Y-65867219D01*
X19012530Y-65771980D02*
X18964911Y-65819600D01*
X18964911Y-65819600D02*
X18822054Y-65867219D01*
X18822054Y-65867219D02*
X18726816Y-65867219D01*
X18726816Y-65867219D02*
X18583959Y-65819600D01*
X18583959Y-65819600D02*
X18488721Y-65724361D01*
X18488721Y-65724361D02*
X18441102Y-65629123D01*
X18441102Y-65629123D02*
X18393483Y-65438647D01*
X18393483Y-65438647D02*
X18393483Y-65295790D01*
X18393483Y-65295790D02*
X18441102Y-65105314D01*
X18441102Y-65105314D02*
X18488721Y-65010076D01*
X18488721Y-65010076D02*
X18583959Y-64914838D01*
X18583959Y-64914838D02*
X18726816Y-64867219D01*
X18726816Y-64867219D02*
X18822054Y-64867219D01*
X18822054Y-64867219D02*
X18964911Y-64914838D01*
X18964911Y-64914838D02*
X19012530Y-64962457D01*
X20203007Y-65867219D02*
X20203007Y-64867219D01*
X20679197Y-65200552D02*
X20679197Y-65867219D01*
X20679197Y-65295790D02*
X20726816Y-65248171D01*
X20726816Y-65248171D02*
X20822054Y-65200552D01*
X20822054Y-65200552D02*
X20964911Y-65200552D01*
X20964911Y-65200552D02*
X21060149Y-65248171D01*
X21060149Y-65248171D02*
X21107768Y-65343409D01*
X21107768Y-65343409D02*
X21107768Y-65867219D01*
D12*
X9649748Y-4751876D02*
X9649748Y-2851876D01*
X9649748Y-2851876D02*
X10102129Y-2851876D01*
X10102129Y-2851876D02*
X10373558Y-2942352D01*
X10373558Y-2942352D02*
X10554510Y-3123304D01*
X10554510Y-3123304D02*
X10644987Y-3304257D01*
X10644987Y-3304257D02*
X10735463Y-3666161D01*
X10735463Y-3666161D02*
X10735463Y-3937590D01*
X10735463Y-3937590D02*
X10644987Y-4299495D01*
X10644987Y-4299495D02*
X10554510Y-4480447D01*
X10554510Y-4480447D02*
X10373558Y-4661400D01*
X10373558Y-4661400D02*
X10102129Y-4751876D01*
X10102129Y-4751876D02*
X9649748Y-4751876D01*
X11821177Y-4751876D02*
X11640225Y-4661400D01*
X11640225Y-4661400D02*
X11549748Y-4570923D01*
X11549748Y-4570923D02*
X11459272Y-4389971D01*
X11459272Y-4389971D02*
X11459272Y-3847114D01*
X11459272Y-3847114D02*
X11549748Y-3666161D01*
X11549748Y-3666161D02*
X11640225Y-3575685D01*
X11640225Y-3575685D02*
X11821177Y-3485209D01*
X11821177Y-3485209D02*
X12092606Y-3485209D01*
X12092606Y-3485209D02*
X12273558Y-3575685D01*
X12273558Y-3575685D02*
X12364034Y-3666161D01*
X12364034Y-3666161D02*
X12454510Y-3847114D01*
X12454510Y-3847114D02*
X12454510Y-4389971D01*
X12454510Y-4389971D02*
X12364034Y-4570923D01*
X12364034Y-4570923D02*
X12273558Y-4661400D01*
X12273558Y-4661400D02*
X12092606Y-4751876D01*
X12092606Y-4751876D02*
X11821177Y-4751876D01*
X13540225Y-4751876D02*
X13359273Y-4661400D01*
X13359273Y-4661400D02*
X13268796Y-4570923D01*
X13268796Y-4570923D02*
X13178320Y-4389971D01*
X13178320Y-4389971D02*
X13178320Y-3847114D01*
X13178320Y-3847114D02*
X13268796Y-3666161D01*
X13268796Y-3666161D02*
X13359273Y-3575685D01*
X13359273Y-3575685D02*
X13540225Y-3485209D01*
X13540225Y-3485209D02*
X13811654Y-3485209D01*
X13811654Y-3485209D02*
X13992606Y-3575685D01*
X13992606Y-3575685D02*
X14083082Y-3666161D01*
X14083082Y-3666161D02*
X14173558Y-3847114D01*
X14173558Y-3847114D02*
X14173558Y-4389971D01*
X14173558Y-4389971D02*
X14083082Y-4570923D01*
X14083082Y-4570923D02*
X13992606Y-4661400D01*
X13992606Y-4661400D02*
X13811654Y-4751876D01*
X13811654Y-4751876D02*
X13540225Y-4751876D01*
X14987844Y-4751876D02*
X14987844Y-3485209D01*
X14987844Y-3847114D02*
X15078321Y-3666161D01*
X15078321Y-3666161D02*
X15168797Y-3575685D01*
X15168797Y-3575685D02*
X15349749Y-3485209D01*
X15349749Y-3485209D02*
X15530702Y-3485209D01*
X16164034Y-4751876D02*
X16164034Y-2851876D01*
X16164034Y-3575685D02*
X16344987Y-3485209D01*
X16344987Y-3485209D02*
X16706892Y-3485209D01*
X16706892Y-3485209D02*
X16887844Y-3575685D01*
X16887844Y-3575685D02*
X16978320Y-3666161D01*
X16978320Y-3666161D02*
X17068796Y-3847114D01*
X17068796Y-3847114D02*
X17068796Y-4389971D01*
X17068796Y-4389971D02*
X16978320Y-4570923D01*
X16978320Y-4570923D02*
X16887844Y-4661400D01*
X16887844Y-4661400D02*
X16706892Y-4751876D01*
X16706892Y-4751876D02*
X16344987Y-4751876D01*
X16344987Y-4751876D02*
X16164034Y-4661400D01*
X18606892Y-4661400D02*
X18425940Y-4751876D01*
X18425940Y-4751876D02*
X18064035Y-4751876D01*
X18064035Y-4751876D02*
X17883082Y-4661400D01*
X17883082Y-4661400D02*
X17792606Y-4480447D01*
X17792606Y-4480447D02*
X17792606Y-3756638D01*
X17792606Y-3756638D02*
X17883082Y-3575685D01*
X17883082Y-3575685D02*
X18064035Y-3485209D01*
X18064035Y-3485209D02*
X18425940Y-3485209D01*
X18425940Y-3485209D02*
X18606892Y-3575685D01*
X18606892Y-3575685D02*
X18697368Y-3756638D01*
X18697368Y-3756638D02*
X18697368Y-3937590D01*
X18697368Y-3937590D02*
X17792606Y-4118542D01*
X19783082Y-4751876D02*
X19602130Y-4661400D01*
X19602130Y-4661400D02*
X19511653Y-4480447D01*
X19511653Y-4480447D02*
X19511653Y-2851876D01*
X20778320Y-4751876D02*
X20597368Y-4661400D01*
X20597368Y-4661400D02*
X20506891Y-4480447D01*
X20506891Y-4480447D02*
X20506891Y-2851876D01*
X24035463Y-4751876D02*
X23402129Y-3847114D01*
X22949748Y-4751876D02*
X22949748Y-2851876D01*
X22949748Y-2851876D02*
X23673558Y-2851876D01*
X23673558Y-2851876D02*
X23854510Y-2942352D01*
X23854510Y-2942352D02*
X23944987Y-3032828D01*
X23944987Y-3032828D02*
X24035463Y-3213780D01*
X24035463Y-3213780D02*
X24035463Y-3485209D01*
X24035463Y-3485209D02*
X23944987Y-3666161D01*
X23944987Y-3666161D02*
X23854510Y-3756638D01*
X23854510Y-3756638D02*
X23673558Y-3847114D01*
X23673558Y-3847114D02*
X22949748Y-3847114D01*
X24849748Y-4751876D02*
X24849748Y-3485209D01*
X24849748Y-2851876D02*
X24759272Y-2942352D01*
X24759272Y-2942352D02*
X24849748Y-3032828D01*
X24849748Y-3032828D02*
X24940225Y-2942352D01*
X24940225Y-2942352D02*
X24849748Y-2851876D01*
X24849748Y-2851876D02*
X24849748Y-3032828D01*
X25754510Y-3485209D02*
X25754510Y-4751876D01*
X25754510Y-3666161D02*
X25844987Y-3575685D01*
X25844987Y-3575685D02*
X26025939Y-3485209D01*
X26025939Y-3485209D02*
X26297368Y-3485209D01*
X26297368Y-3485209D02*
X26478320Y-3575685D01*
X26478320Y-3575685D02*
X26568796Y-3756638D01*
X26568796Y-3756638D02*
X26568796Y-4751876D01*
X28287844Y-3485209D02*
X28287844Y-5023304D01*
X28287844Y-5023304D02*
X28197368Y-5204257D01*
X28197368Y-5204257D02*
X28106892Y-5294733D01*
X28106892Y-5294733D02*
X27925939Y-5385209D01*
X27925939Y-5385209D02*
X27654511Y-5385209D01*
X27654511Y-5385209D02*
X27473558Y-5294733D01*
X28287844Y-4661400D02*
X28106892Y-4751876D01*
X28106892Y-4751876D02*
X27744987Y-4751876D01*
X27744987Y-4751876D02*
X27564035Y-4661400D01*
X27564035Y-4661400D02*
X27473558Y-4570923D01*
X27473558Y-4570923D02*
X27383082Y-4389971D01*
X27383082Y-4389971D02*
X27383082Y-3847114D01*
X27383082Y-3847114D02*
X27473558Y-3666161D01*
X27473558Y-3666161D02*
X27564035Y-3575685D01*
X27564035Y-3575685D02*
X27744987Y-3485209D01*
X27744987Y-3485209D02*
X28106892Y-3485209D01*
X28106892Y-3485209D02*
X28287844Y-3575685D01*
X30640225Y-4751876D02*
X30640225Y-2851876D01*
X30640225Y-2851876D02*
X31092606Y-2851876D01*
X31092606Y-2851876D02*
X31364035Y-2942352D01*
X31364035Y-2942352D02*
X31544987Y-3123304D01*
X31544987Y-3123304D02*
X31635464Y-3304257D01*
X31635464Y-3304257D02*
X31725940Y-3666161D01*
X31725940Y-3666161D02*
X31725940Y-3937590D01*
X31725940Y-3937590D02*
X31635464Y-4299495D01*
X31635464Y-4299495D02*
X31544987Y-4480447D01*
X31544987Y-4480447D02*
X31364035Y-4661400D01*
X31364035Y-4661400D02*
X31092606Y-4751876D01*
X31092606Y-4751876D02*
X30640225Y-4751876D01*
X33264035Y-4661400D02*
X33083083Y-4751876D01*
X33083083Y-4751876D02*
X32721178Y-4751876D01*
X32721178Y-4751876D02*
X32540225Y-4661400D01*
X32540225Y-4661400D02*
X32449749Y-4480447D01*
X32449749Y-4480447D02*
X32449749Y-3756638D01*
X32449749Y-3756638D02*
X32540225Y-3575685D01*
X32540225Y-3575685D02*
X32721178Y-3485209D01*
X32721178Y-3485209D02*
X33083083Y-3485209D01*
X33083083Y-3485209D02*
X33264035Y-3575685D01*
X33264035Y-3575685D02*
X33354511Y-3756638D01*
X33354511Y-3756638D02*
X33354511Y-3937590D01*
X33354511Y-3937590D02*
X32449749Y-4118542D01*
X33897368Y-3485209D02*
X34621177Y-3485209D01*
X34168796Y-2851876D02*
X34168796Y-4480447D01*
X34168796Y-4480447D02*
X34259273Y-4661400D01*
X34259273Y-4661400D02*
X34440225Y-4751876D01*
X34440225Y-4751876D02*
X34621177Y-4751876D01*
X35978320Y-4661400D02*
X35797368Y-4751876D01*
X35797368Y-4751876D02*
X35435463Y-4751876D01*
X35435463Y-4751876D02*
X35254510Y-4661400D01*
X35254510Y-4661400D02*
X35164034Y-4480447D01*
X35164034Y-4480447D02*
X35164034Y-3756638D01*
X35164034Y-3756638D02*
X35254510Y-3575685D01*
X35254510Y-3575685D02*
X35435463Y-3485209D01*
X35435463Y-3485209D02*
X35797368Y-3485209D01*
X35797368Y-3485209D02*
X35978320Y-3575685D01*
X35978320Y-3575685D02*
X36068796Y-3756638D01*
X36068796Y-3756638D02*
X36068796Y-3937590D01*
X36068796Y-3937590D02*
X35164034Y-4118542D01*
X37697367Y-4661400D02*
X37516415Y-4751876D01*
X37516415Y-4751876D02*
X37154510Y-4751876D01*
X37154510Y-4751876D02*
X36973558Y-4661400D01*
X36973558Y-4661400D02*
X36883081Y-4570923D01*
X36883081Y-4570923D02*
X36792605Y-4389971D01*
X36792605Y-4389971D02*
X36792605Y-3847114D01*
X36792605Y-3847114D02*
X36883081Y-3666161D01*
X36883081Y-3666161D02*
X36973558Y-3575685D01*
X36973558Y-3575685D02*
X37154510Y-3485209D01*
X37154510Y-3485209D02*
X37516415Y-3485209D01*
X37516415Y-3485209D02*
X37697367Y-3575685D01*
X38240224Y-3485209D02*
X38964033Y-3485209D01*
X38511652Y-2851876D02*
X38511652Y-4480447D01*
X38511652Y-4480447D02*
X38602129Y-4661400D01*
X38602129Y-4661400D02*
X38783081Y-4751876D01*
X38783081Y-4751876D02*
X38964033Y-4751876D01*
X39868795Y-4751876D02*
X39687843Y-4661400D01*
X39687843Y-4661400D02*
X39597366Y-4570923D01*
X39597366Y-4570923D02*
X39506890Y-4389971D01*
X39506890Y-4389971D02*
X39506890Y-3847114D01*
X39506890Y-3847114D02*
X39597366Y-3666161D01*
X39597366Y-3666161D02*
X39687843Y-3575685D01*
X39687843Y-3575685D02*
X39868795Y-3485209D01*
X39868795Y-3485209D02*
X40140224Y-3485209D01*
X40140224Y-3485209D02*
X40321176Y-3575685D01*
X40321176Y-3575685D02*
X40411652Y-3666161D01*
X40411652Y-3666161D02*
X40502128Y-3847114D01*
X40502128Y-3847114D02*
X40502128Y-4389971D01*
X40502128Y-4389971D02*
X40411652Y-4570923D01*
X40411652Y-4570923D02*
X40321176Y-4661400D01*
X40321176Y-4661400D02*
X40140224Y-4751876D01*
X40140224Y-4751876D02*
X39868795Y-4751876D01*
X41316414Y-4751876D02*
X41316414Y-3485209D01*
X41316414Y-3847114D02*
X41406891Y-3666161D01*
X41406891Y-3666161D02*
X41497367Y-3575685D01*
X41497367Y-3575685D02*
X41678319Y-3485209D01*
X41678319Y-3485209D02*
X41859272Y-3485209D01*
D13*
X22859580Y-59666666D02*
X22907200Y-59714285D01*
X22907200Y-59714285D02*
X22954819Y-59857142D01*
X22954819Y-59857142D02*
X22954819Y-59952380D01*
X22954819Y-59952380D02*
X22907200Y-60095237D01*
X22907200Y-60095237D02*
X22811961Y-60190475D01*
X22811961Y-60190475D02*
X22716723Y-60238094D01*
X22716723Y-60238094D02*
X22526247Y-60285713D01*
X22526247Y-60285713D02*
X22383390Y-60285713D01*
X22383390Y-60285713D02*
X22192914Y-60238094D01*
X22192914Y-60238094D02*
X22097676Y-60190475D01*
X22097676Y-60190475D02*
X22002438Y-60095237D01*
X22002438Y-60095237D02*
X21954819Y-59952380D01*
X21954819Y-59952380D02*
X21954819Y-59857142D01*
X21954819Y-59857142D02*
X22002438Y-59714285D01*
X22002438Y-59714285D02*
X22050057Y-59666666D01*
X22050057Y-59285713D02*
X22002438Y-59238094D01*
X22002438Y-59238094D02*
X21954819Y-59142856D01*
X21954819Y-59142856D02*
X21954819Y-58904761D01*
X21954819Y-58904761D02*
X22002438Y-58809523D01*
X22002438Y-58809523D02*
X22050057Y-58761904D01*
X22050057Y-58761904D02*
X22145295Y-58714285D01*
X22145295Y-58714285D02*
X22240533Y-58714285D01*
X22240533Y-58714285D02*
X22383390Y-58761904D01*
X22383390Y-58761904D02*
X22954819Y-59333332D01*
X22954819Y-59333332D02*
X22954819Y-58714285D01*
X3834819Y-26131904D02*
X4644342Y-26131904D01*
X4644342Y-26131904D02*
X4739580Y-26084285D01*
X4739580Y-26084285D02*
X4787200Y-26036666D01*
X4787200Y-26036666D02*
X4834819Y-25941428D01*
X4834819Y-25941428D02*
X4834819Y-25750952D01*
X4834819Y-25750952D02*
X4787200Y-25655714D01*
X4787200Y-25655714D02*
X4739580Y-25608095D01*
X4739580Y-25608095D02*
X4644342Y-25560476D01*
X4644342Y-25560476D02*
X3834819Y-25560476D01*
X3930057Y-25131904D02*
X3882438Y-25084285D01*
X3882438Y-25084285D02*
X3834819Y-24989047D01*
X3834819Y-24989047D02*
X3834819Y-24750952D01*
X3834819Y-24750952D02*
X3882438Y-24655714D01*
X3882438Y-24655714D02*
X3930057Y-24608095D01*
X3930057Y-24608095D02*
X4025295Y-24560476D01*
X4025295Y-24560476D02*
X4120533Y-24560476D01*
X4120533Y-24560476D02*
X4263390Y-24608095D01*
X4263390Y-24608095D02*
X4834819Y-25179523D01*
X4834819Y-25179523D02*
X4834819Y-24560476D01*
X33420833Y-51804819D02*
X33087500Y-51328628D01*
X32849405Y-51804819D02*
X32849405Y-50804819D01*
X32849405Y-50804819D02*
X33230357Y-50804819D01*
X33230357Y-50804819D02*
X33325595Y-50852438D01*
X33325595Y-50852438D02*
X33373214Y-50900057D01*
X33373214Y-50900057D02*
X33420833Y-50995295D01*
X33420833Y-50995295D02*
X33420833Y-51138152D01*
X33420833Y-51138152D02*
X33373214Y-51233390D01*
X33373214Y-51233390D02*
X33325595Y-51281009D01*
X33325595Y-51281009D02*
X33230357Y-51328628D01*
X33230357Y-51328628D02*
X32849405Y-51328628D01*
X33801786Y-50900057D02*
X33849405Y-50852438D01*
X33849405Y-50852438D02*
X33944643Y-50804819D01*
X33944643Y-50804819D02*
X34182738Y-50804819D01*
X34182738Y-50804819D02*
X34277976Y-50852438D01*
X34277976Y-50852438D02*
X34325595Y-50900057D01*
X34325595Y-50900057D02*
X34373214Y-50995295D01*
X34373214Y-50995295D02*
X34373214Y-51090533D01*
X34373214Y-51090533D02*
X34325595Y-51233390D01*
X34325595Y-51233390D02*
X33754167Y-51804819D01*
X33754167Y-51804819D02*
X34373214Y-51804819D01*
X12411905Y-52354819D02*
X12411905Y-51354819D01*
X12411905Y-51354819D02*
X12650000Y-51354819D01*
X12650000Y-51354819D02*
X12792857Y-51402438D01*
X12792857Y-51402438D02*
X12888095Y-51497676D01*
X12888095Y-51497676D02*
X12935714Y-51592914D01*
X12935714Y-51592914D02*
X12983333Y-51783390D01*
X12983333Y-51783390D02*
X12983333Y-51926247D01*
X12983333Y-51926247D02*
X12935714Y-52116723D01*
X12935714Y-52116723D02*
X12888095Y-52211961D01*
X12888095Y-52211961D02*
X12792857Y-52307200D01*
X12792857Y-52307200D02*
X12650000Y-52354819D01*
X12650000Y-52354819D02*
X12411905Y-52354819D01*
X13935714Y-52354819D02*
X13364286Y-52354819D01*
X13650000Y-52354819D02*
X13650000Y-51354819D01*
X13650000Y-51354819D02*
X13554762Y-51497676D01*
X13554762Y-51497676D02*
X13459524Y-51592914D01*
X13459524Y-51592914D02*
X13364286Y-51640533D01*
X3989580Y-32036666D02*
X4037200Y-32084285D01*
X4037200Y-32084285D02*
X4084819Y-32227142D01*
X4084819Y-32227142D02*
X4084819Y-32322380D01*
X4084819Y-32322380D02*
X4037200Y-32465237D01*
X4037200Y-32465237D02*
X3941961Y-32560475D01*
X3941961Y-32560475D02*
X3846723Y-32608094D01*
X3846723Y-32608094D02*
X3656247Y-32655713D01*
X3656247Y-32655713D02*
X3513390Y-32655713D01*
X3513390Y-32655713D02*
X3322914Y-32608094D01*
X3322914Y-32608094D02*
X3227676Y-32560475D01*
X3227676Y-32560475D02*
X3132438Y-32465237D01*
X3132438Y-32465237D02*
X3084819Y-32322380D01*
X3084819Y-32322380D02*
X3084819Y-32227142D01*
X3084819Y-32227142D02*
X3132438Y-32084285D01*
X3132438Y-32084285D02*
X3180057Y-32036666D01*
X3084819Y-31703332D02*
X3084819Y-31036666D01*
X3084819Y-31036666D02*
X4084819Y-31465237D01*
X27238095Y-56454819D02*
X27238095Y-57264342D01*
X27238095Y-57264342D02*
X27285714Y-57359580D01*
X27285714Y-57359580D02*
X27333333Y-57407200D01*
X27333333Y-57407200D02*
X27428571Y-57454819D01*
X27428571Y-57454819D02*
X27619047Y-57454819D01*
X27619047Y-57454819D02*
X27714285Y-57407200D01*
X27714285Y-57407200D02*
X27761904Y-57359580D01*
X27761904Y-57359580D02*
X27809523Y-57264342D01*
X27809523Y-57264342D02*
X27809523Y-56454819D01*
X28809523Y-57454819D02*
X28238095Y-57454819D01*
X28523809Y-57454819D02*
X28523809Y-56454819D01*
X28523809Y-56454819D02*
X28428571Y-56597676D01*
X28428571Y-56597676D02*
X28333333Y-56692914D01*
X28333333Y-56692914D02*
X28238095Y-56740533D01*
X39245833Y-58104819D02*
X38912500Y-57628628D01*
X38674405Y-58104819D02*
X38674405Y-57104819D01*
X38674405Y-57104819D02*
X39055357Y-57104819D01*
X39055357Y-57104819D02*
X39150595Y-57152438D01*
X39150595Y-57152438D02*
X39198214Y-57200057D01*
X39198214Y-57200057D02*
X39245833Y-57295295D01*
X39245833Y-57295295D02*
X39245833Y-57438152D01*
X39245833Y-57438152D02*
X39198214Y-57533390D01*
X39198214Y-57533390D02*
X39150595Y-57581009D01*
X39150595Y-57581009D02*
X39055357Y-57628628D01*
X39055357Y-57628628D02*
X38674405Y-57628628D01*
X39579167Y-57104819D02*
X40198214Y-57104819D01*
X40198214Y-57104819D02*
X39864881Y-57485771D01*
X39864881Y-57485771D02*
X40007738Y-57485771D01*
X40007738Y-57485771D02*
X40102976Y-57533390D01*
X40102976Y-57533390D02*
X40150595Y-57581009D01*
X40150595Y-57581009D02*
X40198214Y-57676247D01*
X40198214Y-57676247D02*
X40198214Y-57914342D01*
X40198214Y-57914342D02*
X40150595Y-58009580D01*
X40150595Y-58009580D02*
X40102976Y-58057200D01*
X40102976Y-58057200D02*
X40007738Y-58104819D01*
X40007738Y-58104819D02*
X39722024Y-58104819D01*
X39722024Y-58104819D02*
X39626786Y-58057200D01*
X39626786Y-58057200D02*
X39579167Y-58009580D01*
X23948569Y-15181844D02*
X22948569Y-15181844D01*
X22948569Y-15181844D02*
X22948569Y-14943749D01*
X22948569Y-14943749D02*
X22996188Y-14800892D01*
X22996188Y-14800892D02*
X23091426Y-14705654D01*
X23091426Y-14705654D02*
X23186664Y-14658035D01*
X23186664Y-14658035D02*
X23377140Y-14610416D01*
X23377140Y-14610416D02*
X23519997Y-14610416D01*
X23519997Y-14610416D02*
X23710473Y-14658035D01*
X23710473Y-14658035D02*
X23805711Y-14705654D01*
X23805711Y-14705654D02*
X23900950Y-14800892D01*
X23900950Y-14800892D02*
X23948569Y-14943749D01*
X23948569Y-14943749D02*
X23948569Y-15181844D01*
X23043807Y-14229463D02*
X22996188Y-14181844D01*
X22996188Y-14181844D02*
X22948569Y-14086606D01*
X22948569Y-14086606D02*
X22948569Y-13848511D01*
X22948569Y-13848511D02*
X22996188Y-13753273D01*
X22996188Y-13753273D02*
X23043807Y-13705654D01*
X23043807Y-13705654D02*
X23139045Y-13658035D01*
X23139045Y-13658035D02*
X23234283Y-13658035D01*
X23234283Y-13658035D02*
X23377140Y-13705654D01*
X23377140Y-13705654D02*
X23948569Y-14277082D01*
X23948569Y-14277082D02*
X23948569Y-13658035D01*
X916667Y-49657200D02*
X1059524Y-49704819D01*
X1059524Y-49704819D02*
X1297619Y-49704819D01*
X1297619Y-49704819D02*
X1392857Y-49657200D01*
X1392857Y-49657200D02*
X1440476Y-49609580D01*
X1440476Y-49609580D02*
X1488095Y-49514342D01*
X1488095Y-49514342D02*
X1488095Y-49419104D01*
X1488095Y-49419104D02*
X1440476Y-49323866D01*
X1440476Y-49323866D02*
X1392857Y-49276247D01*
X1392857Y-49276247D02*
X1297619Y-49228628D01*
X1297619Y-49228628D02*
X1107143Y-49181009D01*
X1107143Y-49181009D02*
X1011905Y-49133390D01*
X1011905Y-49133390D02*
X964286Y-49085771D01*
X964286Y-49085771D02*
X916667Y-48990533D01*
X916667Y-48990533D02*
X916667Y-48895295D01*
X916667Y-48895295D02*
X964286Y-48800057D01*
X964286Y-48800057D02*
X1011905Y-48752438D01*
X1011905Y-48752438D02*
X1107143Y-48704819D01*
X1107143Y-48704819D02*
X1345238Y-48704819D01*
X1345238Y-48704819D02*
X1488095Y-48752438D01*
X1821429Y-48704819D02*
X2059524Y-49704819D01*
X2059524Y-49704819D02*
X2250000Y-48990533D01*
X2250000Y-48990533D02*
X2440476Y-49704819D01*
X2440476Y-49704819D02*
X2678572Y-48704819D01*
X3583333Y-49704819D02*
X3011905Y-49704819D01*
X3297619Y-49704819D02*
X3297619Y-48704819D01*
X3297619Y-48704819D02*
X3202381Y-48847676D01*
X3202381Y-48847676D02*
X3107143Y-48942914D01*
X3107143Y-48942914D02*
X3011905Y-48990533D01*
X45060416Y-10748569D02*
X45060416Y-11462854D01*
X45060416Y-11462854D02*
X45012797Y-11605711D01*
X45012797Y-11605711D02*
X44917559Y-11700950D01*
X44917559Y-11700950D02*
X44774702Y-11748569D01*
X44774702Y-11748569D02*
X44679464Y-11748569D01*
X45965178Y-11081902D02*
X45965178Y-11748569D01*
X45727083Y-10700950D02*
X45488988Y-11415235D01*
X45488988Y-11415235D02*
X46108035Y-11415235D01*
X38631132Y-69454819D02*
X38631132Y-70169104D01*
X38631132Y-70169104D02*
X38583513Y-70311961D01*
X38583513Y-70311961D02*
X38488275Y-70407200D01*
X38488275Y-70407200D02*
X38345418Y-70454819D01*
X38345418Y-70454819D02*
X38250180Y-70454819D01*
X39059704Y-69550057D02*
X39107323Y-69502438D01*
X39107323Y-69502438D02*
X39202561Y-69454819D01*
X39202561Y-69454819D02*
X39440656Y-69454819D01*
X39440656Y-69454819D02*
X39535894Y-69502438D01*
X39535894Y-69502438D02*
X39583513Y-69550057D01*
X39583513Y-69550057D02*
X39631132Y-69645295D01*
X39631132Y-69645295D02*
X39631132Y-69740533D01*
X39631132Y-69740533D02*
X39583513Y-69883390D01*
X39583513Y-69883390D02*
X39012085Y-70454819D01*
X39012085Y-70454819D02*
X39631132Y-70454819D01*
D10*
X35981845Y-24751169D02*
X35981845Y-25560692D01*
X35981845Y-25560692D02*
X36029464Y-25655930D01*
X36029464Y-25655930D02*
X36077083Y-25703550D01*
X36077083Y-25703550D02*
X36172321Y-25751169D01*
X36172321Y-25751169D02*
X36362797Y-25751169D01*
X36362797Y-25751169D02*
X36458035Y-25703550D01*
X36458035Y-25703550D02*
X36505654Y-25655930D01*
X36505654Y-25655930D02*
X36553273Y-25560692D01*
X36553273Y-25560692D02*
X36553273Y-24751169D01*
X36934226Y-24751169D02*
X37553273Y-24751169D01*
X37553273Y-24751169D02*
X37219940Y-25132121D01*
X37219940Y-25132121D02*
X37362797Y-25132121D01*
X37362797Y-25132121D02*
X37458035Y-25179740D01*
X37458035Y-25179740D02*
X37505654Y-25227359D01*
X37505654Y-25227359D02*
X37553273Y-25322597D01*
X37553273Y-25322597D02*
X37553273Y-25560692D01*
X37553273Y-25560692D02*
X37505654Y-25655930D01*
X37505654Y-25655930D02*
X37458035Y-25703550D01*
X37458035Y-25703550D02*
X37362797Y-25751169D01*
X37362797Y-25751169D02*
X37077083Y-25751169D01*
X37077083Y-25751169D02*
X36981845Y-25703550D01*
X36981845Y-25703550D02*
X36934226Y-25655930D01*
D13*
X45210416Y-51504819D02*
X45210416Y-52219104D01*
X45210416Y-52219104D02*
X45162797Y-52361961D01*
X45162797Y-52361961D02*
X45067559Y-52457200D01*
X45067559Y-52457200D02*
X44924702Y-52504819D01*
X44924702Y-52504819D02*
X44829464Y-52504819D01*
X45591369Y-51504819D02*
X46210416Y-51504819D01*
X46210416Y-51504819D02*
X45877083Y-51885771D01*
X45877083Y-51885771D02*
X46019940Y-51885771D01*
X46019940Y-51885771D02*
X46115178Y-51933390D01*
X46115178Y-51933390D02*
X46162797Y-51981009D01*
X46162797Y-51981009D02*
X46210416Y-52076247D01*
X46210416Y-52076247D02*
X46210416Y-52314342D01*
X46210416Y-52314342D02*
X46162797Y-52409580D01*
X46162797Y-52409580D02*
X46115178Y-52457200D01*
X46115178Y-52457200D02*
X46019940Y-52504819D01*
X46019940Y-52504819D02*
X45734226Y-52504819D01*
X45734226Y-52504819D02*
X45638988Y-52457200D01*
X45638988Y-52457200D02*
X45591369Y-52409580D01*
X11416666Y-69454819D02*
X11416666Y-70169104D01*
X11416666Y-70169104D02*
X11369047Y-70311961D01*
X11369047Y-70311961D02*
X11273809Y-70407200D01*
X11273809Y-70407200D02*
X11130952Y-70454819D01*
X11130952Y-70454819D02*
X11035714Y-70454819D01*
X12416666Y-70454819D02*
X11845238Y-70454819D01*
X12130952Y-70454819D02*
X12130952Y-69454819D01*
X12130952Y-69454819D02*
X12035714Y-69597676D01*
X12035714Y-69597676D02*
X11940476Y-69692914D01*
X11940476Y-69692914D02*
X11845238Y-69740533D01*
X28833333Y-51804819D02*
X28500000Y-51328628D01*
X28261905Y-51804819D02*
X28261905Y-50804819D01*
X28261905Y-50804819D02*
X28642857Y-50804819D01*
X28642857Y-50804819D02*
X28738095Y-50852438D01*
X28738095Y-50852438D02*
X28785714Y-50900057D01*
X28785714Y-50900057D02*
X28833333Y-50995295D01*
X28833333Y-50995295D02*
X28833333Y-51138152D01*
X28833333Y-51138152D02*
X28785714Y-51233390D01*
X28785714Y-51233390D02*
X28738095Y-51281009D01*
X28738095Y-51281009D02*
X28642857Y-51328628D01*
X28642857Y-51328628D02*
X28261905Y-51328628D01*
X29785714Y-51804819D02*
X29214286Y-51804819D01*
X29500000Y-51804819D02*
X29500000Y-50804819D01*
X29500000Y-50804819D02*
X29404762Y-50947676D01*
X29404762Y-50947676D02*
X29309524Y-51042914D01*
X29309524Y-51042914D02*
X29214286Y-51090533D01*
X12713333Y-7929580D02*
X12665714Y-7977200D01*
X12665714Y-7977200D02*
X12522857Y-8024819D01*
X12522857Y-8024819D02*
X12427619Y-8024819D01*
X12427619Y-8024819D02*
X12284762Y-7977200D01*
X12284762Y-7977200D02*
X12189524Y-7881961D01*
X12189524Y-7881961D02*
X12141905Y-7786723D01*
X12141905Y-7786723D02*
X12094286Y-7596247D01*
X12094286Y-7596247D02*
X12094286Y-7453390D01*
X12094286Y-7453390D02*
X12141905Y-7262914D01*
X12141905Y-7262914D02*
X12189524Y-7167676D01*
X12189524Y-7167676D02*
X12284762Y-7072438D01*
X12284762Y-7072438D02*
X12427619Y-7024819D01*
X12427619Y-7024819D02*
X12522857Y-7024819D01*
X12522857Y-7024819D02*
X12665714Y-7072438D01*
X12665714Y-7072438D02*
X12713333Y-7120057D01*
X13570476Y-7024819D02*
X13380000Y-7024819D01*
X13380000Y-7024819D02*
X13284762Y-7072438D01*
X13284762Y-7072438D02*
X13237143Y-7120057D01*
X13237143Y-7120057D02*
X13141905Y-7262914D01*
X13141905Y-7262914D02*
X13094286Y-7453390D01*
X13094286Y-7453390D02*
X13094286Y-7834342D01*
X13094286Y-7834342D02*
X13141905Y-7929580D01*
X13141905Y-7929580D02*
X13189524Y-7977200D01*
X13189524Y-7977200D02*
X13284762Y-8024819D01*
X13284762Y-8024819D02*
X13475238Y-8024819D01*
X13475238Y-8024819D02*
X13570476Y-7977200D01*
X13570476Y-7977200D02*
X13618095Y-7929580D01*
X13618095Y-7929580D02*
X13665714Y-7834342D01*
X13665714Y-7834342D02*
X13665714Y-7596247D01*
X13665714Y-7596247D02*
X13618095Y-7501009D01*
X13618095Y-7501009D02*
X13570476Y-7453390D01*
X13570476Y-7453390D02*
X13475238Y-7405771D01*
X13475238Y-7405771D02*
X13284762Y-7405771D01*
X13284762Y-7405771D02*
X13189524Y-7453390D01*
X13189524Y-7453390D02*
X13141905Y-7501009D01*
X13141905Y-7501009D02*
X13094286Y-7596247D01*
X16713333Y-28729580D02*
X16665714Y-28777200D01*
X16665714Y-28777200D02*
X16522857Y-28824819D01*
X16522857Y-28824819D02*
X16427619Y-28824819D01*
X16427619Y-28824819D02*
X16284762Y-28777200D01*
X16284762Y-28777200D02*
X16189524Y-28681961D01*
X16189524Y-28681961D02*
X16141905Y-28586723D01*
X16141905Y-28586723D02*
X16094286Y-28396247D01*
X16094286Y-28396247D02*
X16094286Y-28253390D01*
X16094286Y-28253390D02*
X16141905Y-28062914D01*
X16141905Y-28062914D02*
X16189524Y-27967676D01*
X16189524Y-27967676D02*
X16284762Y-27872438D01*
X16284762Y-27872438D02*
X16427619Y-27824819D01*
X16427619Y-27824819D02*
X16522857Y-27824819D01*
X16522857Y-27824819D02*
X16665714Y-27872438D01*
X16665714Y-27872438D02*
X16713333Y-27920057D01*
X17618095Y-27824819D02*
X17141905Y-27824819D01*
X17141905Y-27824819D02*
X17094286Y-28301009D01*
X17094286Y-28301009D02*
X17141905Y-28253390D01*
X17141905Y-28253390D02*
X17237143Y-28205771D01*
X17237143Y-28205771D02*
X17475238Y-28205771D01*
X17475238Y-28205771D02*
X17570476Y-28253390D01*
X17570476Y-28253390D02*
X17618095Y-28301009D01*
X17618095Y-28301009D02*
X17665714Y-28396247D01*
X17665714Y-28396247D02*
X17665714Y-28634342D01*
X17665714Y-28634342D02*
X17618095Y-28729580D01*
X17618095Y-28729580D02*
X17570476Y-28777200D01*
X17570476Y-28777200D02*
X17475238Y-28824819D01*
X17475238Y-28824819D02*
X17237143Y-28824819D01*
X17237143Y-28824819D02*
X17141905Y-28777200D01*
X17141905Y-28777200D02*
X17094286Y-28729580D01*
X33179580Y-59166666D02*
X33227200Y-59214285D01*
X33227200Y-59214285D02*
X33274819Y-59357142D01*
X33274819Y-59357142D02*
X33274819Y-59452380D01*
X33274819Y-59452380D02*
X33227200Y-59595237D01*
X33227200Y-59595237D02*
X33131961Y-59690475D01*
X33131961Y-59690475D02*
X33036723Y-59738094D01*
X33036723Y-59738094D02*
X32846247Y-59785713D01*
X32846247Y-59785713D02*
X32703390Y-59785713D01*
X32703390Y-59785713D02*
X32512914Y-59738094D01*
X32512914Y-59738094D02*
X32417676Y-59690475D01*
X32417676Y-59690475D02*
X32322438Y-59595237D01*
X32322438Y-59595237D02*
X32274819Y-59452380D01*
X32274819Y-59452380D02*
X32274819Y-59357142D01*
X32274819Y-59357142D02*
X32322438Y-59214285D01*
X32322438Y-59214285D02*
X32370057Y-59166666D01*
X33274819Y-58214285D02*
X33274819Y-58785713D01*
X33274819Y-58499999D02*
X32274819Y-58499999D01*
X32274819Y-58499999D02*
X32417676Y-58595237D01*
X32417676Y-58595237D02*
X32512914Y-58690475D01*
X32512914Y-58690475D02*
X32560533Y-58785713D01*
X14283333Y-37059580D02*
X14235714Y-37107200D01*
X14235714Y-37107200D02*
X14092857Y-37154819D01*
X14092857Y-37154819D02*
X13997619Y-37154819D01*
X13997619Y-37154819D02*
X13854762Y-37107200D01*
X13854762Y-37107200D02*
X13759524Y-37011961D01*
X13759524Y-37011961D02*
X13711905Y-36916723D01*
X13711905Y-36916723D02*
X13664286Y-36726247D01*
X13664286Y-36726247D02*
X13664286Y-36583390D01*
X13664286Y-36583390D02*
X13711905Y-36392914D01*
X13711905Y-36392914D02*
X13759524Y-36297676D01*
X13759524Y-36297676D02*
X13854762Y-36202438D01*
X13854762Y-36202438D02*
X13997619Y-36154819D01*
X13997619Y-36154819D02*
X14092857Y-36154819D01*
X14092857Y-36154819D02*
X14235714Y-36202438D01*
X14235714Y-36202438D02*
X14283333Y-36250057D01*
X14616667Y-36154819D02*
X15235714Y-36154819D01*
X15235714Y-36154819D02*
X14902381Y-36535771D01*
X14902381Y-36535771D02*
X15045238Y-36535771D01*
X15045238Y-36535771D02*
X15140476Y-36583390D01*
X15140476Y-36583390D02*
X15188095Y-36631009D01*
X15188095Y-36631009D02*
X15235714Y-36726247D01*
X15235714Y-36726247D02*
X15235714Y-36964342D01*
X15235714Y-36964342D02*
X15188095Y-37059580D01*
X15188095Y-37059580D02*
X15140476Y-37107200D01*
X15140476Y-37107200D02*
X15045238Y-37154819D01*
X15045238Y-37154819D02*
X14759524Y-37154819D01*
X14759524Y-37154819D02*
X14664286Y-37107200D01*
X14664286Y-37107200D02*
X14616667Y-37059580D01*
D14*
%TO.C,C2*%
X23765000Y-59238748D02*
X23765000Y-59761252D01*
X25235000Y-59238748D02*
X25235000Y-59761252D01*
%TO.C,U2*%
X5470000Y-24960000D02*
X6730000Y-24960000D01*
X5470000Y-28720000D02*
X5470000Y-24960000D01*
X12290000Y-24960000D02*
X11030000Y-24960000D01*
X12290000Y-28720000D02*
X12290000Y-24960000D01*
X5570000Y-30000000D02*
X5240000Y-30240000D01*
X5240000Y-29760000D01*
X5570000Y-30000000D01*
G36*
X5570000Y-30000000D02*
G01*
X5240000Y-30240000D01*
X5240000Y-29760000D01*
X5570000Y-30000000D01*
G37*
%TO.C,R2*%
X33360436Y-52265000D02*
X33814564Y-52265000D01*
X33360436Y-53735000D02*
X33814564Y-53735000D01*
%TO.C,D1*%
X9865000Y-52750000D02*
X9865000Y-53540000D01*
X9865000Y-55360000D02*
X9865000Y-58640000D01*
X9865000Y-60460000D02*
X9865000Y-61250000D01*
X9865000Y-61250000D02*
X16435000Y-61250000D01*
X9875000Y-52750000D02*
X16425000Y-52750000D01*
X16435000Y-53540000D02*
X16435000Y-52750000D01*
X16435000Y-55360000D02*
X16435000Y-58640000D01*
X16435000Y-61250000D02*
X16435000Y-60460000D01*
X8937500Y-53540000D02*
X8657500Y-53540000D01*
X8937500Y-53260000D01*
X8937500Y-53540000D01*
G36*
X8937500Y-53540000D02*
G01*
X8657500Y-53540000D01*
X8937500Y-53260000D01*
X8937500Y-53540000D01*
G37*
%TO.C,C7*%
X2895000Y-28558748D02*
X2895000Y-29081252D01*
X4365000Y-28558748D02*
X4365000Y-29081252D01*
%TO.C,U1*%
X26345000Y-61525000D02*
X26345000Y-59575000D01*
X26345000Y-61525000D02*
X26345000Y-63475000D01*
X31465000Y-61525000D02*
X31465000Y-59575000D01*
X31465000Y-61525000D02*
X31465000Y-63475000D01*
X26440000Y-64225000D02*
X26110000Y-64465000D01*
X26110000Y-63985000D01*
X26440000Y-64225000D01*
G36*
X26440000Y-64225000D02*
G01*
X26110000Y-64465000D01*
X26110000Y-63985000D01*
X26440000Y-64225000D01*
G37*
%TO.C,R3*%
X39639564Y-55265000D02*
X39185436Y-55265000D01*
X39639564Y-56735000D02*
X39185436Y-56735000D01*
%TO.C,D2*%
X24493750Y-16053750D02*
X24493750Y-13393750D01*
X24493750Y-16053750D02*
X26193750Y-16053750D01*
X26193750Y-16053750D02*
X26193750Y-13393750D01*
%TO.C,SW1*%
X2600000Y-38400000D02*
X4900000Y-38400000D01*
X4900000Y-38400000D02*
X4900000Y-39600000D01*
X4900000Y-42100000D02*
X4900000Y-41400000D01*
X4900000Y-44600000D02*
X4900000Y-43900000D01*
X4900000Y-46400000D02*
X4900000Y-47600000D01*
X4900000Y-47600000D02*
X2600000Y-47600000D01*
%TO.C,J4*%
X43333750Y-12733750D02*
X43333750Y-22953750D01*
X43333750Y-22953750D02*
X47353750Y-22953750D01*
X43833750Y-13233750D02*
X45043750Y-13233750D01*
X43833750Y-22453750D02*
X43833750Y-13233750D01*
X45043750Y-13233750D02*
X45043750Y-12733750D01*
X45043750Y-22453750D02*
X43833750Y-22453750D01*
X45043750Y-22953750D02*
X45043750Y-22453750D01*
X45153750Y-23253750D02*
X47653750Y-23253750D01*
X45853750Y-12733750D02*
X45853750Y-13733750D01*
X45853750Y-13733750D02*
X47353750Y-13733750D01*
X45853750Y-21953750D02*
X47353750Y-21953750D01*
X45853750Y-22953750D02*
X45853750Y-21953750D01*
X47353750Y-12733750D02*
X43333750Y-12733750D01*
X47353750Y-22953750D02*
X47353750Y-12733750D01*
X47653750Y-23253750D02*
X47653750Y-20753750D01*
%TO.C,J2*%
X31181133Y-66780000D02*
X31181133Y-73220000D01*
X31181133Y-66780000D02*
X36961133Y-66780000D01*
X31181133Y-67300000D02*
X36961133Y-67300000D01*
X31181133Y-72600000D02*
X31771133Y-72600000D01*
X31181133Y-73220000D02*
X31771133Y-73220000D01*
X33831133Y-72600000D02*
X34311133Y-72600000D01*
X33831133Y-73220000D02*
X34311133Y-73220000D01*
X36371133Y-72600000D02*
X36961133Y-72600000D01*
X36371133Y-73220000D02*
X36961133Y-73220000D01*
X36961133Y-66780000D02*
X36961133Y-73220000D01*
X33241133Y-74180000D02*
X32361133Y-74180000D01*
X32801133Y-73570000D01*
X33241133Y-74180000D01*
G36*
X33241133Y-74180000D02*
G01*
X32361133Y-74180000D01*
X32801133Y-73570000D01*
X33241133Y-74180000D01*
G37*
%TO.C,J3*%
X43652500Y-53390000D02*
X43652500Y-61110000D01*
X43652500Y-61110000D02*
X47672500Y-61110000D01*
X44152500Y-53890000D02*
X45362500Y-53890000D01*
X44152500Y-60610000D02*
X44152500Y-53890000D01*
X45362500Y-53890000D02*
X45362500Y-53390000D01*
X45362500Y-60610000D02*
X44152500Y-60610000D01*
X45362500Y-61110000D02*
X45362500Y-60610000D01*
X45472500Y-61410000D02*
X47972500Y-61410000D01*
X46172500Y-53390000D02*
X46172500Y-54390000D01*
X46172500Y-54390000D02*
X47672500Y-54390000D01*
X46172500Y-60110000D02*
X47672500Y-60110000D01*
X46172500Y-61110000D02*
X46172500Y-60110000D01*
X47672500Y-53390000D02*
X43652500Y-53390000D01*
X47672500Y-61110000D02*
X47672500Y-53390000D01*
X47972500Y-61410000D02*
X47972500Y-58910000D01*
%TO.C,J1*%
X13503333Y-66780000D02*
X13503333Y-73220000D01*
X13503333Y-66780000D02*
X19283333Y-66780000D01*
X13503333Y-67300000D02*
X19283333Y-67300000D01*
X13503333Y-72600000D02*
X14093333Y-72600000D01*
X13503333Y-73220000D02*
X14093333Y-73220000D01*
X16153333Y-72600000D02*
X16633333Y-72600000D01*
X16153333Y-73220000D02*
X16633333Y-73220000D01*
X18693333Y-72600000D02*
X19283333Y-72600000D01*
X18693333Y-73220000D02*
X19283333Y-73220000D01*
X19283333Y-66780000D02*
X19283333Y-73220000D01*
X15563333Y-74180000D02*
X14683333Y-74180000D01*
X15123333Y-73570000D01*
X15563333Y-74180000D01*
G36*
X15563333Y-74180000D02*
G01*
X14683333Y-74180000D01*
X15123333Y-73570000D01*
X15563333Y-74180000D01*
G37*
%TO.C,R1*%
X28772936Y-52265000D02*
X29227064Y-52265000D01*
X28772936Y-53735000D02*
X29227064Y-53735000D01*
%TO.C,C6*%
X6030000Y-11110000D02*
X7280000Y-11110000D01*
X6655000Y-10485000D02*
X6655000Y-11735000D01*
X7520000Y-9574437D02*
X7520000Y-12360000D01*
X7520000Y-9574437D02*
X8584437Y-8510000D01*
X7520000Y-18165563D02*
X7520000Y-15380000D01*
X7520000Y-18165563D02*
X8584437Y-19230000D01*
X8584437Y-8510000D02*
X18240000Y-8510000D01*
X8584437Y-19230000D02*
X18240000Y-19230000D01*
X18240000Y-8510000D02*
X18240000Y-12360000D01*
X18240000Y-19230000D02*
X18240000Y-15380000D01*
%TO.C,C5*%
X15568748Y-29385000D02*
X16091252Y-29385000D01*
X15568748Y-30855000D02*
X16091252Y-30855000D01*
%TO.C,C1*%
X33765000Y-59261252D02*
X33765000Y-58738748D01*
X35235000Y-59261252D02*
X35235000Y-58738748D01*
%TO.C,C3*%
X7600000Y-40240000D02*
X8850000Y-40240000D01*
X8225000Y-39615000D02*
X8225000Y-40865000D01*
X9090000Y-38704437D02*
X9090000Y-41490000D01*
X9090000Y-38704437D02*
X10154437Y-37640000D01*
X9090000Y-47295563D02*
X9090000Y-44510000D01*
X9090000Y-47295563D02*
X10154437Y-48360000D01*
X10154437Y-37640000D02*
X19810000Y-37640000D01*
X10154437Y-48360000D02*
X19810000Y-48360000D01*
X19810000Y-37640000D02*
X19810000Y-41490000D01*
X19810000Y-48360000D02*
X19810000Y-44510000D01*
%TD*%
%LPC*%
D15*
%TO.C,C2*%
X24500000Y-58550000D03*
X24500000Y-60450000D03*
%TD*%
D16*
%TO.C,H1*%
X5000000Y-5000000D03*
%TD*%
D17*
%TO.C,U2*%
X6580000Y-30020000D03*
X8880000Y-30020000D03*
D18*
X8880000Y-23720000D03*
D17*
X11180000Y-30020000D03*
%TD*%
D16*
%TO.C,H4*%
X45000000Y-70000000D03*
%TD*%
%TO.C,H3*%
X5000000Y-70000000D03*
%TD*%
D19*
%TO.C,R2*%
X32675000Y-53000000D03*
X34500000Y-53000000D03*
%TD*%
D20*
%TO.C,D1*%
X8700000Y-54450000D03*
X8700000Y-59550000D03*
X17600000Y-59550000D03*
X17600000Y-54450000D03*
%TD*%
D15*
%TO.C,C7*%
X3630000Y-27870000D03*
X3630000Y-29770000D03*
%TD*%
D21*
%TO.C,U1*%
X27000000Y-64000000D03*
X28270000Y-64000000D03*
X29540000Y-64000000D03*
X30810000Y-64000000D03*
X30810000Y-59050000D03*
X29540000Y-59050000D03*
X28270000Y-59050000D03*
X27000000Y-59050000D03*
%TD*%
D22*
%TO.C,R3*%
X40325000Y-56000000D03*
X38500000Y-56000000D03*
%TD*%
D23*
%TO.C,D2*%
X25343750Y-15493750D03*
X25343750Y-13393750D03*
%TD*%
D24*
%TO.C,SW1*%
X3000000Y-39600000D03*
X3000000Y-46400000D03*
D25*
X5750000Y-40500000D03*
X5750000Y-43000000D03*
X5750000Y-45500000D03*
%TD*%
D26*
%TO.C,J4*%
X45043750Y-20343750D03*
D27*
X45043750Y-17843750D03*
X45043750Y-15343750D03*
%TD*%
D28*
%TO.C,J2*%
X32801133Y-72540000D03*
X35341133Y-72540000D03*
D29*
X32801133Y-70000000D03*
D30*
X35341133Y-70000000D03*
%TD*%
D31*
%TO.C,U3*%
X27343750Y-27633750D03*
X27343750Y-30173750D03*
X27343750Y-32713750D03*
X27343750Y-35253750D03*
X27343750Y-37793750D03*
X27343750Y-40333750D03*
X27343750Y-42873750D03*
X27343750Y-45413750D03*
X27343750Y-47953750D03*
D32*
X46203750Y-47953750D03*
X46203750Y-45413750D03*
X46203750Y-42873750D03*
X46203750Y-40333750D03*
X46203750Y-37793750D03*
X46203750Y-35253750D03*
X46203750Y-32713750D03*
X46203750Y-30173750D03*
X46203750Y-27633750D03*
%TD*%
D33*
%TO.C,J3*%
X45362500Y-58500000D03*
D34*
X45362500Y-56000000D03*
%TD*%
D16*
%TO.C,H2*%
X45000000Y-5000000D03*
%TD*%
D28*
%TO.C,J1*%
X15123333Y-72540000D03*
X17663333Y-72540000D03*
D29*
X15123333Y-70000000D03*
D30*
X17663333Y-70000000D03*
%TD*%
D19*
%TO.C,R1*%
X28087500Y-53000000D03*
X29912500Y-53000000D03*
%TD*%
D35*
%TO.C,C6*%
X8680000Y-13870000D03*
X17080000Y-13870000D03*
%TD*%
D36*
%TO.C,C5*%
X14880000Y-30120000D03*
X16780000Y-30120000D03*
%TD*%
D37*
%TO.C,C1*%
X34500000Y-59950000D03*
X34500000Y-58050000D03*
%TD*%
D35*
%TO.C,C3*%
X10250000Y-43000000D03*
X18650000Y-43000000D03*
%TD*%
%LPD*%
M02*
