%TF.GenerationSoftware,KiCad,Pcbnew,9.0.2*%
%TF.CreationDate,2025-06-11T22:20:25+01:00*%
%TF.ProjectId,Doorbell (Smaller),446f6f72-6265-46c6-9c20-28536d616c6c,1*%
%TF.SameCoordinates,Original*%
%TF.FileFunction,Copper,L2,Bot*%
%TF.FilePolarity,Positive*%
%FSLAX46Y46*%
G04 Gerber Fmt 4.6, Leading zero omitted, Abs format (unit mm)*
G04 Created by KiCad (PCBNEW 9.0.2) date 2025-06-11 22:20:25*
%MOMM*%
%LPD*%
G01*
G04 APERTURE LIST*
G04 Aperture macros list*
%AMRoundRect*
0 Rectangle with rounded corners*
0 $1 Rounding radius*
0 $2 $3 $4 $5 $6 $7 $8 $9 X,Y pos of 4 corners*
0 Add a 4 corners polygon primitive as box body*
4,1,4,$2,$3,$4,$5,$6,$7,$8,$9,$2,$3,0*
0 Add four circle primitives for the rounded corners*
1,1,$1+$1,$2,$3*
1,1,$1+$1,$4,$5*
1,1,$1+$1,$6,$7*
1,1,$1+$1,$8,$9*
0 Add four rect primitives between the rounded corners*
20,1,$1+$1,$2,$3,$4,$5,0*
20,1,$1+$1,$4,$5,$6,$7,0*
20,1,$1+$1,$6,$7,$8,$9,0*
20,1,$1+$1,$8,$9,$2,$3,0*%
G04 Aperture macros list end*
%TA.AperFunction,ComponentPad*%
%ADD10C,4.400000*%
%TD*%
%TA.AperFunction,ComponentPad*%
%ADD11RoundRect,0.250000X0.725000X-0.600000X0.725000X0.600000X-0.725000X0.600000X-0.725000X-0.600000X0*%
%TD*%
%TA.AperFunction,ComponentPad*%
%ADD12O,1.950000X1.700000*%
%TD*%
%TA.AperFunction,ComponentPad*%
%ADD13RoundRect,0.249999X-0.850001X-0.850001X0.850001X-0.850001X0.850001X0.850001X-0.850001X0.850001X0*%
%TD*%
%TA.AperFunction,ComponentPad*%
%ADD14C,2.200000*%
%TD*%
%TA.AperFunction,ComponentPad*%
%ADD15RoundRect,0.190500X2.809500X0.444500X-2.809500X0.444500X-2.809500X-0.444500X2.809500X-0.444500X0*%
%TD*%
%TA.AperFunction,ComponentPad*%
%ADD16RoundRect,0.190500X-2.809500X-0.444500X2.809500X-0.444500X2.809500X0.444500X-2.809500X0.444500X0*%
%TD*%
%TA.AperFunction,ComponentPad*%
%ADD17RoundRect,0.250000X0.750000X-0.600000X0.750000X0.600000X-0.750000X0.600000X-0.750000X-0.600000X0*%
%TD*%
%TA.AperFunction,ComponentPad*%
%ADD18O,2.000000X1.700000*%
%TD*%
%TA.AperFunction,ViaPad*%
%ADD19C,1.500000*%
%TD*%
%TA.AperFunction,ViaPad*%
%ADD20C,1.000000*%
%TD*%
%TA.AperFunction,ViaPad*%
%ADD21C,2.500000*%
%TD*%
%TA.AperFunction,Conductor*%
%ADD22C,2.000000*%
%TD*%
%TA.AperFunction,Conductor*%
%ADD23C,0.200000*%
%TD*%
%TA.AperFunction,Conductor*%
%ADD24C,1.000000*%
%TD*%
G04 APERTURE END LIST*
D10*
%TO.P,H1,1,1*%
%TO.N,GND*%
X5000000Y-5000000D03*
%TD*%
%TO.P,H4,1,1*%
%TO.N,GND*%
X45000000Y-70000000D03*
%TD*%
%TO.P,H3,1,1*%
%TO.N,GND*%
X5000000Y-70000000D03*
%TD*%
D11*
%TO.P,J4,1,Pin_1*%
%TO.N,+5V Internal*%
X45043750Y-20343750D03*
D12*
%TO.P,J4,2,Pin_2*%
%TO.N,/WS2812*%
X45043750Y-17843750D03*
%TO.P,J4,3,Pin_3*%
%TO.N,GND*%
X45043750Y-15343750D03*
%TD*%
D13*
%TO.P,J2,1,Pin_1*%
%TO.N,/VAC In B*%
X32801133Y-70000000D03*
D14*
%TO.P,J2,2,Pin_2*%
%TO.N,/VAC Out A*%
X35341133Y-70000000D03*
%TD*%
D15*
%TO.P,U3,1,5V*%
%TO.N,+5V Internal*%
X27343750Y-27633750D03*
%TO.P,U3,2,GND*%
%TO.N,GND*%
X27343750Y-30173750D03*
%TO.P,U3,3,3V3*%
%TO.N,+3.3V*%
X27343750Y-32713750D03*
%TO.P,U3,4,GPIO_0*%
%TO.N,unconnected-(U3-GPIO_0-Pad4)*%
X27343750Y-35253750D03*
%TO.P,U3,5,GPIO_1*%
%TO.N,unconnected-(U3-GPIO_1-Pad5)*%
X27343750Y-37793750D03*
%TO.P,U3,6,GPIO_2*%
%TO.N,unconnected-(U3-GPIO_2-Pad6)*%
X27343750Y-40333750D03*
%TO.P,U3,7,GPIO_3*%
%TO.N,unconnected-(U3-GPIO_3-Pad7)*%
X27343750Y-42873750D03*
%TO.P,U3,8,GPIO_4*%
%TO.N,/ADC Input*%
X27343750Y-45413750D03*
%TO.P,U3,9,GPIO_5*%
%TO.N,unconnected-(U3-GPIO_5-Pad9)*%
X27343750Y-47953750D03*
D16*
%TO.P,U3,10,GPIO_6*%
%TO.N,/Reset*%
X46203750Y-47953750D03*
%TO.P,U3,11,GPIO_7*%
%TO.N,unconnected-(U3-GPIO_7-Pad11)*%
X46203750Y-45413750D03*
%TO.P,U3,12,GPIO_8*%
%TO.N,unconnected-(U3-GPIO_8-Pad12)*%
X46203750Y-42873750D03*
%TO.P,U3,13,GPIO_9*%
%TO.N,unconnected-(U3-GPIO_9-Pad13)*%
X46203750Y-40333750D03*
%TO.P,U3,14,GPIO_10*%
%TO.N,unconnected-(U3-GPIO_10-Pad14)*%
X46203750Y-37793750D03*
%TO.P,U3,15,GPIO_18*%
%TO.N,unconnected-(U3-GPIO_18-Pad15)*%
X46203750Y-35253750D03*
%TO.P,U3,16,GPIO_19*%
%TO.N,unconnected-(U3-GPIO_19-Pad16)*%
X46203750Y-32713750D03*
%TO.P,U3,17,GPIO_20*%
%TO.N,unconnected-(U3-GPIO_20-Pad17)*%
X46203750Y-30173750D03*
%TO.P,U3,18,GPIO_21*%
%TO.N,/WS2812*%
X46203750Y-27633750D03*
%TD*%
D17*
%TO.P,J3,1,Pin_1*%
%TO.N,GND*%
X45362500Y-58500000D03*
D18*
%TO.P,J3,2,Pin_2*%
%TO.N,/Reset*%
X45362500Y-56000000D03*
%TD*%
D10*
%TO.P,H2,1,1*%
%TO.N,GND*%
X45000000Y-5000000D03*
%TD*%
D13*
%TO.P,J1,1,Pin_1*%
%TO.N,/VAC In A*%
X15123333Y-70000000D03*
D14*
%TO.P,J1,2,Pin_2*%
%TO.N,/VAC In B*%
X17663333Y-70000000D03*
%TD*%
D19*
%TO.N,GND*%
X6150000Y-59600000D03*
X18609077Y-39776859D03*
D20*
X34500000Y-55750000D03*
X30810705Y-57066581D03*
D19*
X20880000Y-13870000D03*
X19130000Y-30120000D03*
X6630000Y-33120000D03*
D20*
X24500000Y-61750000D03*
D21*
%TO.N,/VAC In B*%
X20250000Y-70000000D03*
D19*
X20250000Y-59500000D03*
%TD*%
D22*
%TO.N,GND*%
X19130000Y-30120000D02*
X25290000Y-30120000D01*
X25290000Y-30120000D02*
X25343750Y-30173750D01*
D23*
X25331240Y-30186260D02*
X25343750Y-30173750D01*
D24*
%TO.N,/VAC In B*%
X20250000Y-59500000D02*
X20250000Y-70000000D01*
%TD*%
%TA.AperFunction,Conductor*%
%TO.N,GND*%
G36*
X45002702Y-500617D02*
G01*
X45386771Y-517386D01*
X45397506Y-518326D01*
X45775971Y-568152D01*
X45786597Y-570025D01*
X46159284Y-652648D01*
X46169710Y-655442D01*
X46533765Y-770227D01*
X46543911Y-773920D01*
X46896578Y-920000D01*
X46906369Y-924566D01*
X47244942Y-1100816D01*
X47254310Y-1106224D01*
X47576244Y-1311318D01*
X47585105Y-1317523D01*
X47887930Y-1549889D01*
X47896217Y-1556843D01*
X48177635Y-1814715D01*
X48185284Y-1822364D01*
X48443156Y-2103782D01*
X48450110Y-2112069D01*
X48682476Y-2414894D01*
X48688681Y-2423755D01*
X48893775Y-2745689D01*
X48899183Y-2755057D01*
X49075430Y-3093623D01*
X49080002Y-3103427D01*
X49226075Y-3456078D01*
X49229775Y-3466244D01*
X49344554Y-3830278D01*
X49347354Y-3840727D01*
X49429971Y-4213389D01*
X49431849Y-4224042D01*
X49481671Y-4602473D01*
X49482614Y-4613249D01*
X49499382Y-4997297D01*
X49499500Y-5002706D01*
X49499500Y-9876000D01*
X49479815Y-9943039D01*
X49427011Y-9988794D01*
X49375500Y-10000000D01*
X22494167Y-10000000D01*
X22494167Y-51250000D01*
X36620167Y-51250000D01*
X36687206Y-51269685D01*
X36732961Y-51322489D01*
X36744167Y-51374000D01*
X36744167Y-65011110D01*
X36744167Y-65011111D01*
X49374123Y-64870778D01*
X49441376Y-64889716D01*
X49487715Y-64942009D01*
X49499500Y-64994770D01*
X49499500Y-69997293D01*
X49499382Y-70002702D01*
X49482614Y-70386750D01*
X49481671Y-70397526D01*
X49431849Y-70775957D01*
X49429971Y-70786610D01*
X49347354Y-71159272D01*
X49344554Y-71169721D01*
X49229775Y-71533755D01*
X49226075Y-71543921D01*
X49080002Y-71896572D01*
X49075430Y-71906376D01*
X48899183Y-72244942D01*
X48893775Y-72254310D01*
X48688681Y-72576244D01*
X48682476Y-72585105D01*
X48450110Y-72887930D01*
X48443156Y-72896217D01*
X48185284Y-73177635D01*
X48177635Y-73185284D01*
X47896217Y-73443156D01*
X47887930Y-73450110D01*
X47585105Y-73682476D01*
X47576244Y-73688681D01*
X47254310Y-73893775D01*
X47244942Y-73899183D01*
X46906376Y-74075430D01*
X46896572Y-74080002D01*
X46543921Y-74226075D01*
X46533755Y-74229775D01*
X46169721Y-74344554D01*
X46159272Y-74347354D01*
X45786610Y-74429971D01*
X45775957Y-74431849D01*
X45397526Y-74481671D01*
X45386750Y-74482614D01*
X45002703Y-74499382D01*
X44997294Y-74499500D01*
X5002706Y-74499500D01*
X4997297Y-74499382D01*
X4613249Y-74482614D01*
X4602473Y-74481671D01*
X4224042Y-74431849D01*
X4213389Y-74429971D01*
X3840727Y-74347354D01*
X3830278Y-74344554D01*
X3466244Y-74229775D01*
X3456078Y-74226075D01*
X3103427Y-74080002D01*
X3093623Y-74075430D01*
X2755057Y-73899183D01*
X2745689Y-73893775D01*
X2423755Y-73688681D01*
X2414894Y-73682476D01*
X2112069Y-73450110D01*
X2103782Y-73443156D01*
X1822364Y-73185284D01*
X1814715Y-73177635D01*
X1556843Y-72896217D01*
X1549889Y-72887930D01*
X1317523Y-72585105D01*
X1311318Y-72576244D01*
X1106224Y-72254310D01*
X1100816Y-72244942D01*
X1057022Y-72160814D01*
X924566Y-71906369D01*
X919997Y-71896572D01*
X773920Y-71543911D01*
X770224Y-71533755D01*
X655442Y-71169710D01*
X652648Y-71159284D01*
X570025Y-70786597D01*
X568152Y-70775971D01*
X518326Y-70397506D01*
X517386Y-70386771D01*
X500618Y-70002702D01*
X500500Y-69997293D01*
X500500Y-69099982D01*
X13522833Y-69099982D01*
X13522833Y-70900017D01*
X13533333Y-71002796D01*
X13577261Y-71135361D01*
X13588519Y-71169335D01*
X13680621Y-71318656D01*
X13804677Y-71442712D01*
X13953998Y-71534814D01*
X14120535Y-71589999D01*
X14223323Y-71600500D01*
X14223328Y-71600500D01*
X14679758Y-71600500D01*
X14746797Y-71620185D01*
X14792552Y-71672989D01*
X14802496Y-71742147D01*
X14773471Y-71805703D01*
X14748649Y-71827602D01*
X14613044Y-71918210D01*
X14613040Y-71918213D01*
X14501546Y-72029707D01*
X14501543Y-72029711D01*
X14413942Y-72160814D01*
X14413935Y-72160827D01*
X14353597Y-72306498D01*
X14353594Y-72306510D01*
X14322833Y-72461153D01*
X14322833Y-72618846D01*
X14353594Y-72773489D01*
X14353597Y-72773501D01*
X14413935Y-72919172D01*
X14413942Y-72919185D01*
X14501543Y-73050288D01*
X14501546Y-73050292D01*
X14613040Y-73161786D01*
X14613044Y-73161789D01*
X14744147Y-73249390D01*
X14744160Y-73249397D01*
X14889831Y-73309735D01*
X14889836Y-73309737D01*
X15044486Y-73340499D01*
X15044489Y-73340500D01*
X15044491Y-73340500D01*
X15202177Y-73340500D01*
X15202178Y-73340499D01*
X15356830Y-73309737D01*
X15502512Y-73249394D01*
X15633622Y-73161789D01*
X15745122Y-73050289D01*
X15832727Y-72919179D01*
X15893070Y-72773497D01*
X15923833Y-72618842D01*
X15923833Y-72461158D01*
X15923833Y-72461155D01*
X15923832Y-72461153D01*
X15893071Y-72306510D01*
X15893070Y-72306503D01*
X15871451Y-72254310D01*
X15832730Y-72160827D01*
X15832723Y-72160814D01*
X15745122Y-72029711D01*
X15745119Y-72029707D01*
X15633625Y-71918213D01*
X15633621Y-71918210D01*
X15498017Y-71827602D01*
X15453212Y-71773990D01*
X15444505Y-71704665D01*
X15474659Y-71641637D01*
X15534103Y-71604918D01*
X15566908Y-71600500D01*
X16023338Y-71600500D01*
X16023343Y-71600500D01*
X16126131Y-71589999D01*
X16292668Y-71534814D01*
X16441989Y-71442712D01*
X16566045Y-71318656D01*
X16566048Y-71318650D01*
X16570828Y-71313871D01*
X16632151Y-71280386D01*
X16701843Y-71285370D01*
X16731391Y-71301231D01*
X16824488Y-71368870D01*
X16930539Y-71422905D01*
X17048949Y-71483239D01*
X17048951Y-71483239D01*
X17048954Y-71483241D01*
X17288548Y-71561090D01*
X17320199Y-71566103D01*
X17321802Y-71566357D01*
X17384936Y-71596286D01*
X17421868Y-71655597D01*
X17420870Y-71725460D01*
X17382260Y-71783693D01*
X17349856Y-71803391D01*
X17284160Y-71830602D01*
X17284147Y-71830609D01*
X17153044Y-71918210D01*
X17153040Y-71918213D01*
X17041546Y-72029707D01*
X17041543Y-72029711D01*
X16953942Y-72160814D01*
X16953935Y-72160827D01*
X16893597Y-72306498D01*
X16893594Y-72306510D01*
X16862833Y-72461153D01*
X16862833Y-72618846D01*
X16893594Y-72773489D01*
X16893597Y-72773501D01*
X16953935Y-72919172D01*
X16953942Y-72919185D01*
X17041543Y-73050288D01*
X17041546Y-73050292D01*
X17153040Y-73161786D01*
X17153044Y-73161789D01*
X17284147Y-73249390D01*
X17284160Y-73249397D01*
X17429831Y-73309735D01*
X17429836Y-73309737D01*
X17584486Y-73340499D01*
X17584489Y-73340500D01*
X17584491Y-73340500D01*
X17742177Y-73340500D01*
X17742178Y-73340499D01*
X17896830Y-73309737D01*
X18042512Y-73249394D01*
X18173622Y-73161789D01*
X18285122Y-73050289D01*
X18372727Y-72919179D01*
X18433070Y-72773497D01*
X18463833Y-72618842D01*
X18463833Y-72461158D01*
X18463833Y-72461155D01*
X18463832Y-72461153D01*
X18433071Y-72306510D01*
X18433070Y-72306503D01*
X18411451Y-72254310D01*
X18372730Y-72160827D01*
X18372723Y-72160814D01*
X18285122Y-72029711D01*
X18285119Y-72029707D01*
X18173625Y-71918213D01*
X18173621Y-71918210D01*
X18042518Y-71830609D01*
X18042506Y-71830602D01*
X17976809Y-71803391D01*
X17922405Y-71759551D01*
X17900340Y-71693257D01*
X17917619Y-71625557D01*
X17968756Y-71577947D01*
X18004864Y-71566357D01*
X18038118Y-71561090D01*
X18038121Y-71561089D01*
X18277712Y-71483241D01*
X18502178Y-71368870D01*
X18705989Y-71220793D01*
X18762921Y-71163860D01*
X18824241Y-71130377D01*
X18893933Y-71135361D01*
X18938281Y-71163862D01*
X19093330Y-71318911D01*
X19093338Y-71318918D01*
X19275382Y-71458607D01*
X19275385Y-71458608D01*
X19275388Y-71458611D01*
X19474112Y-71573344D01*
X19474117Y-71573346D01*
X19474123Y-71573349D01*
X19539672Y-71600500D01*
X19686113Y-71661158D01*
X19907762Y-71720548D01*
X20135266Y-71750500D01*
X20135273Y-71750500D01*
X20364727Y-71750500D01*
X20364734Y-71750500D01*
X20592238Y-71720548D01*
X20813887Y-71661158D01*
X21025888Y-71573344D01*
X21224612Y-71458611D01*
X21406661Y-71318919D01*
X21406665Y-71318914D01*
X21406670Y-71318911D01*
X21568911Y-71156670D01*
X21568914Y-71156665D01*
X21568919Y-71156661D01*
X21708611Y-70974612D01*
X21823344Y-70775888D01*
X21911158Y-70563887D01*
X21970548Y-70342238D01*
X22000500Y-70114734D01*
X22000500Y-69885266D01*
X21970548Y-69657762D01*
X21911158Y-69436113D01*
X21823344Y-69224112D01*
X21751678Y-69099982D01*
X31200633Y-69099982D01*
X31200633Y-70900017D01*
X31211133Y-71002796D01*
X31255061Y-71135361D01*
X31266319Y-71169335D01*
X31358421Y-71318656D01*
X31482477Y-71442712D01*
X31631798Y-71534814D01*
X31798335Y-71589999D01*
X31901123Y-71600500D01*
X31901128Y-71600500D01*
X32357558Y-71600500D01*
X32424597Y-71620185D01*
X32470352Y-71672989D01*
X32480296Y-71742147D01*
X32451271Y-71805703D01*
X32426449Y-71827602D01*
X32290844Y-71918210D01*
X32290840Y-71918213D01*
X32179346Y-72029707D01*
X32179343Y-72029711D01*
X32091742Y-72160814D01*
X32091735Y-72160827D01*
X32031397Y-72306498D01*
X32031394Y-72306510D01*
X32000633Y-72461153D01*
X32000633Y-72618846D01*
X32031394Y-72773489D01*
X32031397Y-72773501D01*
X32091735Y-72919172D01*
X32091742Y-72919185D01*
X32179343Y-73050288D01*
X32179346Y-73050292D01*
X32290840Y-73161786D01*
X32290844Y-73161789D01*
X32421947Y-73249390D01*
X32421960Y-73249397D01*
X32567631Y-73309735D01*
X32567636Y-73309737D01*
X32722286Y-73340499D01*
X32722289Y-73340500D01*
X32722291Y-73340500D01*
X32879977Y-73340500D01*
X32879978Y-73340499D01*
X33034630Y-73309737D01*
X33180312Y-73249394D01*
X33311422Y-73161789D01*
X33422922Y-73050289D01*
X33510527Y-72919179D01*
X33570870Y-72773497D01*
X33601633Y-72618842D01*
X33601633Y-72461158D01*
X33601633Y-72461155D01*
X33601632Y-72461153D01*
X33570871Y-72306510D01*
X33570870Y-72306503D01*
X33549251Y-72254310D01*
X33510530Y-72160827D01*
X33510523Y-72160814D01*
X33422922Y-72029711D01*
X33422919Y-72029707D01*
X33311425Y-71918213D01*
X33311421Y-71918210D01*
X33175817Y-71827602D01*
X33131012Y-71773990D01*
X33122305Y-71704665D01*
X33152459Y-71641637D01*
X33211903Y-71604918D01*
X33244708Y-71600500D01*
X33701138Y-71600500D01*
X33701143Y-71600500D01*
X33803931Y-71589999D01*
X33970468Y-71534814D01*
X34119789Y-71442712D01*
X34243845Y-71318656D01*
X34243848Y-71318650D01*
X34248628Y-71313871D01*
X34309951Y-71280386D01*
X34379643Y-71285370D01*
X34409191Y-71301231D01*
X34502288Y-71368870D01*
X34608339Y-71422905D01*
X34726749Y-71483239D01*
X34726751Y-71483239D01*
X34726754Y-71483241D01*
X34966348Y-71561090D01*
X34997999Y-71566103D01*
X34999602Y-71566357D01*
X35062736Y-71596286D01*
X35099668Y-71655597D01*
X35098670Y-71725460D01*
X35060060Y-71783693D01*
X35027656Y-71803391D01*
X34961960Y-71830602D01*
X34961947Y-71830609D01*
X34830844Y-71918210D01*
X34830840Y-71918213D01*
X34719346Y-72029707D01*
X34719343Y-72029711D01*
X34631742Y-72160814D01*
X34631735Y-72160827D01*
X34571397Y-72306498D01*
X34571394Y-72306510D01*
X34540633Y-72461153D01*
X34540633Y-72618846D01*
X34571394Y-72773489D01*
X34571397Y-72773501D01*
X34631735Y-72919172D01*
X34631742Y-72919185D01*
X34719343Y-73050288D01*
X34719346Y-73050292D01*
X34830840Y-73161786D01*
X34830844Y-73161789D01*
X34961947Y-73249390D01*
X34961960Y-73249397D01*
X35107631Y-73309735D01*
X35107636Y-73309737D01*
X35262286Y-73340499D01*
X35262289Y-73340500D01*
X35262291Y-73340500D01*
X35419977Y-73340500D01*
X35419978Y-73340499D01*
X35574630Y-73309737D01*
X35720312Y-73249394D01*
X35851422Y-73161789D01*
X35962922Y-73050289D01*
X36050527Y-72919179D01*
X36110870Y-72773497D01*
X36141633Y-72618842D01*
X36141633Y-72461158D01*
X36141633Y-72461155D01*
X36141632Y-72461153D01*
X36110871Y-72306510D01*
X36110870Y-72306503D01*
X36089251Y-72254310D01*
X36050530Y-72160827D01*
X36050523Y-72160814D01*
X35962922Y-72029711D01*
X35962919Y-72029707D01*
X35851425Y-71918213D01*
X35851421Y-71918210D01*
X35720318Y-71830609D01*
X35720306Y-71830602D01*
X35654609Y-71803391D01*
X35600205Y-71759551D01*
X35578140Y-71693257D01*
X35595419Y-71625557D01*
X35646556Y-71577947D01*
X35682664Y-71566357D01*
X35715918Y-71561090D01*
X35715921Y-71561089D01*
X35955512Y-71483241D01*
X36179978Y-71368870D01*
X36383789Y-71220793D01*
X36561926Y-71042656D01*
X36710003Y-70838845D01*
X36824374Y-70614379D01*
X36902223Y-70374785D01*
X36941633Y-70125962D01*
X36941633Y-69874038D01*
X36902223Y-69625215D01*
X36824374Y-69385621D01*
X36824372Y-69385618D01*
X36824372Y-69385616D01*
X36782880Y-69304184D01*
X36710003Y-69161155D01*
X36611363Y-69025388D01*
X36561931Y-68957350D01*
X36561927Y-68957345D01*
X36383787Y-68779205D01*
X36383782Y-68779201D01*
X36179981Y-68631132D01*
X36179980Y-68631131D01*
X36179978Y-68631130D01*
X36109880Y-68595413D01*
X35955516Y-68516760D01*
X35715918Y-68438910D01*
X35467095Y-68399500D01*
X35215171Y-68399500D01*
X35148871Y-68410001D01*
X34966347Y-68438910D01*
X34726749Y-68516760D01*
X34502291Y-68631128D01*
X34502288Y-68631129D01*
X34502288Y-68631130D01*
X34409193Y-68698766D01*
X34343388Y-68722245D01*
X34275334Y-68706419D01*
X34248629Y-68686128D01*
X34119790Y-68557289D01*
X34119789Y-68557288D01*
X33970468Y-68465186D01*
X33803931Y-68410001D01*
X33803929Y-68410000D01*
X33701150Y-68399500D01*
X33701143Y-68399500D01*
X31901123Y-68399500D01*
X31901115Y-68399500D01*
X31798336Y-68410000D01*
X31798335Y-68410001D01*
X31715802Y-68437349D01*
X31631800Y-68465185D01*
X31631795Y-68465187D01*
X31482475Y-68557289D01*
X31358422Y-68681342D01*
X31266320Y-68830662D01*
X31266318Y-68830667D01*
X31262119Y-68843339D01*
X31211134Y-68997202D01*
X31211134Y-68997203D01*
X31211133Y-68997203D01*
X31200633Y-69099982D01*
X21751678Y-69099982D01*
X21708611Y-69025388D01*
X21708608Y-69025385D01*
X21708607Y-69025382D01*
X21589087Y-68869622D01*
X21568919Y-68843339D01*
X21406661Y-68681081D01*
X21299012Y-68598478D01*
X21257810Y-68542050D01*
X21250500Y-68500103D01*
X21250500Y-60290697D01*
X21270185Y-60223658D01*
X21274170Y-60217827D01*
X21319524Y-60155405D01*
X21408884Y-59980025D01*
X21469709Y-59792826D01*
X21500500Y-59598422D01*
X21500500Y-59401577D01*
X21469709Y-59207173D01*
X21408882Y-59019970D01*
X21319523Y-58844594D01*
X21203828Y-58685354D01*
X21064646Y-58546172D01*
X20905405Y-58430476D01*
X20730029Y-58341117D01*
X20542826Y-58280290D01*
X20348422Y-58249500D01*
X20348417Y-58249500D01*
X20151583Y-58249500D01*
X20151578Y-58249500D01*
X19957173Y-58280290D01*
X19769970Y-58341117D01*
X19594594Y-58430476D01*
X19503741Y-58496485D01*
X19435354Y-58546172D01*
X19435352Y-58546174D01*
X19435351Y-58546174D01*
X19296174Y-58685351D01*
X19296174Y-58685352D01*
X19296172Y-58685354D01*
X19246485Y-58753741D01*
X19180476Y-58844594D01*
X19091117Y-59019970D01*
X19030290Y-59207173D01*
X18999500Y-59401577D01*
X18999500Y-59598422D01*
X19030290Y-59792826D01*
X19091117Y-59980029D01*
X19174363Y-60143407D01*
X19180476Y-60155405D01*
X19225818Y-60217812D01*
X19249298Y-60283618D01*
X19249500Y-60290697D01*
X19249500Y-68500103D01*
X19229815Y-68567142D01*
X19200988Y-68598478D01*
X19093339Y-68681081D01*
X18938281Y-68836138D01*
X18876957Y-68869622D01*
X18807266Y-68864637D01*
X18762919Y-68836137D01*
X18705987Y-68779205D01*
X18705982Y-68779201D01*
X18502181Y-68631132D01*
X18502180Y-68631131D01*
X18502178Y-68631130D01*
X18432080Y-68595413D01*
X18277716Y-68516760D01*
X18038118Y-68438910D01*
X17789295Y-68399500D01*
X17537371Y-68399500D01*
X17471071Y-68410001D01*
X17288547Y-68438910D01*
X17048949Y-68516760D01*
X16824491Y-68631128D01*
X16824488Y-68631129D01*
X16824488Y-68631130D01*
X16731393Y-68698766D01*
X16665588Y-68722245D01*
X16597534Y-68706419D01*
X16570829Y-68686128D01*
X16441990Y-68557289D01*
X16441989Y-68557288D01*
X16292668Y-68465186D01*
X16126131Y-68410001D01*
X16126129Y-68410000D01*
X16023350Y-68399500D01*
X16023343Y-68399500D01*
X14223323Y-68399500D01*
X14223315Y-68399500D01*
X14120536Y-68410000D01*
X14120535Y-68410001D01*
X14038002Y-68437349D01*
X13954000Y-68465185D01*
X13953995Y-68465187D01*
X13804675Y-68557289D01*
X13680622Y-68681342D01*
X13588520Y-68830662D01*
X13588518Y-68830667D01*
X13584319Y-68843339D01*
X13533334Y-68997202D01*
X13533334Y-68997203D01*
X13533333Y-68997203D01*
X13522833Y-69099982D01*
X500500Y-69099982D01*
X500500Y-46468995D01*
X2299499Y-46468995D01*
X2326418Y-46604322D01*
X2326421Y-46604332D01*
X2379221Y-46731804D01*
X2379228Y-46731817D01*
X2455885Y-46846541D01*
X2455888Y-46846545D01*
X2553454Y-46944111D01*
X2553458Y-46944114D01*
X2668182Y-47020771D01*
X2668195Y-47020778D01*
X2795667Y-47073578D01*
X2795672Y-47073580D01*
X2795676Y-47073580D01*
X2795677Y-47073581D01*
X2931004Y-47100500D01*
X2931007Y-47100500D01*
X3068995Y-47100500D01*
X3160041Y-47082389D01*
X3204328Y-47073580D01*
X3331811Y-47020775D01*
X3446542Y-46944114D01*
X3544114Y-46846542D01*
X3620775Y-46731811D01*
X3673580Y-46604328D01*
X3685794Y-46542923D01*
X3700500Y-46468995D01*
X3700500Y-46331004D01*
X3673581Y-46195677D01*
X3673580Y-46195676D01*
X3673580Y-46195672D01*
X3652147Y-46143928D01*
X3620778Y-46068195D01*
X3620771Y-46068182D01*
X3544114Y-45953458D01*
X3544111Y-45953454D01*
X3446545Y-45855888D01*
X3446541Y-45855885D01*
X3331817Y-45779228D01*
X3331804Y-45779221D01*
X3204332Y-45726421D01*
X3204322Y-45726418D01*
X3068995Y-45699500D01*
X3068993Y-45699500D01*
X2931007Y-45699500D01*
X2931005Y-45699500D01*
X2795677Y-45726418D01*
X2795667Y-45726421D01*
X2668195Y-45779221D01*
X2668182Y-45779228D01*
X2553458Y-45855885D01*
X2553454Y-45855888D01*
X2455888Y-45953454D01*
X2455885Y-45953458D01*
X2379228Y-46068182D01*
X2379221Y-46068195D01*
X2326421Y-46195667D01*
X2326418Y-46195677D01*
X2299500Y-46331004D01*
X2299500Y-46331007D01*
X2299500Y-46468993D01*
X2299500Y-46468995D01*
X2299499Y-46468995D01*
X500500Y-46468995D01*
X500500Y-39668995D01*
X2299499Y-39668995D01*
X2326418Y-39804322D01*
X2326421Y-39804332D01*
X2379221Y-39931804D01*
X2379228Y-39931817D01*
X2455885Y-40046541D01*
X2455888Y-40046545D01*
X2553454Y-40144111D01*
X2553458Y-40144114D01*
X2668182Y-40220771D01*
X2668195Y-40220778D01*
X2795667Y-40273578D01*
X2795672Y-40273580D01*
X2795676Y-40273580D01*
X2795677Y-40273581D01*
X2931004Y-40300500D01*
X2931007Y-40300500D01*
X3068995Y-40300500D01*
X3160041Y-40282389D01*
X3204328Y-40273580D01*
X3331811Y-40220775D01*
X3446542Y-40144114D01*
X3544114Y-40046542D01*
X3620775Y-39931811D01*
X3673580Y-39804328D01*
X3700500Y-39668993D01*
X3700500Y-39531007D01*
X3700500Y-39531004D01*
X3673581Y-39395677D01*
X3673580Y-39395676D01*
X3673580Y-39395672D01*
X3651063Y-39341311D01*
X3620778Y-39268195D01*
X3620771Y-39268182D01*
X3544114Y-39153458D01*
X3544111Y-39153454D01*
X3446545Y-39055888D01*
X3446541Y-39055885D01*
X3331817Y-38979228D01*
X3331804Y-38979221D01*
X3204332Y-38926421D01*
X3204322Y-38926418D01*
X3068995Y-38899500D01*
X3068993Y-38899500D01*
X2931007Y-38899500D01*
X2931005Y-38899500D01*
X2795677Y-38926418D01*
X2795667Y-38926421D01*
X2668195Y-38979221D01*
X2668182Y-38979228D01*
X2553458Y-39055885D01*
X2553454Y-39055888D01*
X2455888Y-39153454D01*
X2455885Y-39153458D01*
X2379228Y-39268182D01*
X2379221Y-39268195D01*
X2326421Y-39395667D01*
X2326418Y-39395677D01*
X2299500Y-39531004D01*
X2299500Y-39531007D01*
X2299500Y-39668993D01*
X2299500Y-39668995D01*
X2299499Y-39668995D01*
X500500Y-39668995D01*
X500500Y-5002706D01*
X500618Y-4997297D01*
X503377Y-4934108D01*
X517386Y-4613226D01*
X518326Y-4602495D01*
X568152Y-4224025D01*
X570025Y-4213405D01*
X652649Y-3840709D01*
X655440Y-3830295D01*
X770230Y-3466227D01*
X773917Y-3456095D01*
X920003Y-3103412D01*
X924561Y-3093638D01*
X1100822Y-2755045D01*
X1106217Y-2745700D01*
X1311325Y-2423744D01*
X1317515Y-2414905D01*
X1549896Y-2112060D01*
X1556834Y-2103791D01*
X1814726Y-1822352D01*
X1822352Y-1814726D01*
X2103791Y-1556834D01*
X2112060Y-1549896D01*
X2414905Y-1317515D01*
X2423744Y-1311325D01*
X2745700Y-1106217D01*
X2755045Y-1100822D01*
X3093638Y-924561D01*
X3103412Y-920003D01*
X3456095Y-773917D01*
X3466227Y-770230D01*
X3830295Y-655440D01*
X3840709Y-652649D01*
X4213405Y-570025D01*
X4224025Y-568152D01*
X4602495Y-518326D01*
X4613226Y-517386D01*
X4997297Y-500617D01*
X5002706Y-500500D01*
X5065892Y-500500D01*
X44934108Y-500500D01*
X44997294Y-500500D01*
X45002702Y-500617D01*
G37*
%TD.AperFunction*%
%TD*%
M02*
