%TF.GenerationSoftware,KiCad,Pcbnew,9.0.2*%
%TF.CreationDate,2025-08-03T19:13:41+01:00*%
%TF.ProjectId,doorbell_pcb_v2,646f6f72-6265-46c6-9c5f-7063625f7632,rev?*%
%TF.SameCoordinates,Original*%
%TF.FileFunction,Copper,L2,Bot*%
%TF.FilePolarity,Positive*%
%FSLAX46Y46*%
G04 Gerber Fmt 4.6, Leading zero omitted, Abs format (unit mm)*
G04 Created by KiCad (PCBNEW 9.0.2) date 2025-08-03 19:13:41*
%MOMM*%
%LPD*%
G01*
G04 APERTURE LIST*
G04 Aperture macros list*
%AMRoundRect*
0 Rectangle with rounded corners*
0 $1 Rounding radius*
0 $2 $3 $4 $5 $6 $7 $8 $9 X,Y pos of 4 corners*
0 Add a 4 corners polygon primitive as box body*
4,1,4,$2,$3,$4,$5,$6,$7,$8,$9,$2,$3,0*
0 Add four circle primitives for the rounded corners*
1,1,$1+$1,$2,$3*
1,1,$1+$1,$4,$5*
1,1,$1+$1,$6,$7*
1,1,$1+$1,$8,$9*
0 Add four rect primitives between the rounded corners*
20,1,$1+$1,$2,$3,$4,$5,0*
20,1,$1+$1,$4,$5,$6,$7,0*
20,1,$1+$1,$6,$7,$8,$9,0*
20,1,$1+$1,$8,$9,$2,$3,0*%
G04 Aperture macros list end*
%TA.AperFunction,ComponentPad*%
%ADD10C,4.400000*%
%TD*%
%TA.AperFunction,ComponentPad*%
%ADD11C,2.200000*%
%TD*%
%TA.AperFunction,ComponentPad*%
%ADD12R,1.700000X1.700000*%
%TD*%
%TA.AperFunction,ComponentPad*%
%ADD13C,1.700000*%
%TD*%
%TA.AperFunction,ComponentPad*%
%ADD14RoundRect,0.225000X2.775000X0.525000X-2.775000X0.525000X-2.775000X-0.525000X2.775000X-0.525000X0*%
%TD*%
%TA.AperFunction,ComponentPad*%
%ADD15C,1.000000*%
%TD*%
%TA.AperFunction,ComponentPad*%
%ADD16RoundRect,0.225000X-2.775000X-0.525000X2.775000X-0.525000X2.775000X0.525000X-2.775000X0.525000X0*%
%TD*%
%TA.AperFunction,ComponentPad*%
%ADD17R,1.500000X1.500000*%
%TD*%
%TA.AperFunction,ViaPad*%
%ADD18C,1.500000*%
%TD*%
G04 APERTURE END LIST*
D10*
%TO.P,H2,1,1*%
%TO.N,GND*%
X170000000Y-60000000D03*
%TD*%
%TO.P,H1,1,1*%
%TO.N,GND*%
X130000000Y-60000000D03*
%TD*%
%TO.P,H4,1,1*%
%TO.N,GND*%
X130000000Y-124000000D03*
%TD*%
D11*
%TO.P,J1,1,Pin_1*%
%TO.N,/VAC In B*%
X138000000Y-124000000D03*
%TO.P,J1,2,Pin_2*%
%TO.N,/VAC In A*%
X143000000Y-124000000D03*
%TD*%
D10*
%TO.P,H3,1,1*%
%TO.N,GND*%
X170000000Y-124000000D03*
%TD*%
D11*
%TO.P,J2,1,Pin_1*%
%TO.N,/VAC Out A*%
X157000000Y-124000000D03*
%TO.P,J2,2,Pin_2*%
%TO.N,/VAC In B*%
X162000000Y-124000000D03*
%TD*%
D12*
%TO.P,J3,1,Pin_1*%
%TO.N,+5V Internal*%
X141850000Y-99150000D03*
D13*
%TO.P,J3,2,Pin_2*%
%TO.N,+3.3V*%
X141850000Y-101690000D03*
%TO.P,J3,3,Pin_3*%
%TO.N,GND*%
X141850000Y-104230000D03*
%TD*%
D14*
%TO.P,U3,1,5V*%
%TO.N,+5V Internal*%
X151400000Y-73580000D03*
D15*
X153210000Y-73580000D03*
D14*
%TO.P,U3,2,GND*%
%TO.N,GND*%
X151400000Y-76120000D03*
D15*
X153210000Y-76120000D03*
D14*
%TO.P,U3,3,3V3*%
%TO.N,+3.3V*%
X151400000Y-78660000D03*
D15*
X153210000Y-78660000D03*
D14*
%TO.P,U3,4,GPIO_0*%
%TO.N,unconnected-(U3-GPIO_0-Pad4)*%
X151400000Y-81200000D03*
D15*
%TO.N,unconnected-(U3-GPIO_0-Pad4)_1*%
X153210000Y-81200000D03*
D14*
%TO.P,U3,5,GPIO_1*%
%TO.N,unconnected-(U3-GPIO_1-Pad5)*%
X151400000Y-83740000D03*
D15*
%TO.N,unconnected-(U3-GPIO_1-Pad5)_1*%
X153210000Y-83740000D03*
D14*
%TO.P,U3,6,GPIO_2*%
%TO.N,unconnected-(U3-GPIO_2-Pad6)_1*%
X151400000Y-86280000D03*
D15*
%TO.N,unconnected-(U3-GPIO_2-Pad6)*%
X153210000Y-86280000D03*
D14*
%TO.P,U3,7,GPIO_3*%
%TO.N,unconnected-(U3-GPIO_3-Pad7)_1*%
X151400000Y-88820000D03*
D15*
%TO.N,unconnected-(U3-GPIO_3-Pad7)*%
X153210000Y-88820000D03*
D14*
%TO.P,U3,8,GPIO_4*%
%TO.N,/ADC Input*%
X151400000Y-91360000D03*
D15*
X153210000Y-91360000D03*
D14*
%TO.P,U3,9,GPIO_5*%
%TO.N,unconnected-(U3-GPIO_5-Pad9)*%
X151400000Y-93900000D03*
D15*
%TO.N,unconnected-(U3-GPIO_5-Pad9)_1*%
X153210000Y-93900000D03*
%TO.P,U3,10,GPIO_6*%
%TO.N,unconnected-(U3-GPIO_6-Pad10)_1*%
X168450000Y-93900000D03*
D16*
%TO.N,unconnected-(U3-GPIO_6-Pad10)*%
X170260000Y-93900000D03*
D15*
%TO.P,U3,11,GPIO_7*%
%TO.N,unconnected-(U3-GPIO_7-Pad11)*%
X168450000Y-91360000D03*
D16*
%TO.N,unconnected-(U3-GPIO_7-Pad11)_1*%
X170260000Y-91360000D03*
D15*
%TO.P,U3,12,GPIO_8*%
%TO.N,unconnected-(U3-GPIO_8-Pad12)*%
X168450000Y-88820000D03*
D16*
%TO.N,unconnected-(U3-GPIO_8-Pad12)_1*%
X170260000Y-88820000D03*
D15*
%TO.P,U3,13,GPIO_9*%
%TO.N,unconnected-(U3-GPIO_9-Pad13)*%
X168450000Y-86280000D03*
D16*
%TO.N,unconnected-(U3-GPIO_9-Pad13)_1*%
X170260000Y-86280000D03*
D15*
%TO.P,U3,14,GPIO_10*%
%TO.N,unconnected-(U3-GPIO_10-Pad14)*%
X168450000Y-83740000D03*
D16*
%TO.N,unconnected-(U3-GPIO_10-Pad14)_1*%
X170260000Y-83740000D03*
D15*
%TO.P,U3,15,GPIO_18*%
%TO.N,unconnected-(U3-GPIO_18-Pad15)*%
X168450000Y-81200000D03*
D16*
%TO.N,unconnected-(U3-GPIO_18-Pad15)_1*%
X170260000Y-81200000D03*
D15*
%TO.P,U3,16,GPIO_19*%
%TO.N,unconnected-(U3-GPIO_19-Pad16)_1*%
X168450000Y-78660000D03*
D16*
%TO.N,unconnected-(U3-GPIO_19-Pad16)*%
X170260000Y-78660000D03*
D15*
%TO.P,U3,17,GPIO_20*%
%TO.N,unconnected-(U3-GPIO_20-Pad17)*%
X168450000Y-76120000D03*
D16*
%TO.N,unconnected-(U3-GPIO_20-Pad17)_1*%
X170260000Y-76120000D03*
D15*
%TO.P,U3,18,GPIO_21*%
%TO.N,unconnected-(U3-GPIO_21-Pad18)_1*%
X168450000Y-73580000D03*
D16*
%TO.N,unconnected-(U3-GPIO_21-Pad18)*%
X170260000Y-73580000D03*
%TD*%
D17*
%TO.P,TP1,1,1*%
%TO.N,/ADC Input*%
X146800000Y-108650000D03*
%TD*%
D18*
%TO.N,GND*%
X156000000Y-118300000D03*
X135950000Y-83050000D03*
X144200000Y-72750000D03*
X129150000Y-87400000D03*
X154250000Y-110650000D03*
X153650000Y-113400000D03*
X132400000Y-97100000D03*
X142200000Y-113950000D03*
X129250000Y-92500000D03*
X127150000Y-83350000D03*
%TD*%
%TA.AperFunction,Conductor*%
%TO.N,GND*%
G36*
X146993039Y-55520185D02*
G01*
X147038794Y-55572989D01*
X147050000Y-55624500D01*
X147050000Y-75000000D01*
X146650000Y-75000000D01*
X146650000Y-77100000D01*
X146800000Y-77250000D01*
X147050000Y-77250000D01*
X147050000Y-106248638D01*
X147030315Y-106315677D01*
X147013681Y-106336319D01*
X146900000Y-106450000D01*
X147050000Y-106600000D01*
X174375500Y-106600000D01*
X174442539Y-106619685D01*
X174488294Y-106672489D01*
X174499500Y-106724000D01*
X174499500Y-129375500D01*
X174479815Y-129442539D01*
X174427011Y-129488294D01*
X174375500Y-129499500D01*
X125624500Y-129499500D01*
X125557461Y-129479815D01*
X125511706Y-129427011D01*
X125500500Y-129375500D01*
X125500500Y-123874038D01*
X136399500Y-123874038D01*
X136399500Y-124125961D01*
X136438910Y-124374785D01*
X136516760Y-124614383D01*
X136631132Y-124838848D01*
X136779201Y-125042649D01*
X136779205Y-125042654D01*
X136957345Y-125220794D01*
X136957350Y-125220798D01*
X137135117Y-125349952D01*
X137161155Y-125368870D01*
X137304184Y-125441747D01*
X137385616Y-125483239D01*
X137385618Y-125483239D01*
X137385621Y-125483241D01*
X137625215Y-125561090D01*
X137874038Y-125600500D01*
X137874039Y-125600500D01*
X138125961Y-125600500D01*
X138125962Y-125600500D01*
X138374785Y-125561090D01*
X138614379Y-125483241D01*
X138838845Y-125368870D01*
X139042656Y-125220793D01*
X139220793Y-125042656D01*
X139368870Y-124838845D01*
X139483241Y-124614379D01*
X139561090Y-124374785D01*
X139600500Y-124125962D01*
X139600500Y-123874038D01*
X141399500Y-123874038D01*
X141399500Y-124125961D01*
X141438910Y-124374785D01*
X141516760Y-124614383D01*
X141631132Y-124838848D01*
X141779201Y-125042649D01*
X141779205Y-125042654D01*
X141957345Y-125220794D01*
X141957350Y-125220798D01*
X142135117Y-125349952D01*
X142161155Y-125368870D01*
X142304184Y-125441747D01*
X142385616Y-125483239D01*
X142385618Y-125483239D01*
X142385621Y-125483241D01*
X142625215Y-125561090D01*
X142874038Y-125600500D01*
X142874039Y-125600500D01*
X143125961Y-125600500D01*
X143125962Y-125600500D01*
X143374785Y-125561090D01*
X143614379Y-125483241D01*
X143838845Y-125368870D01*
X144042656Y-125220793D01*
X144220793Y-125042656D01*
X144368870Y-124838845D01*
X144483241Y-124614379D01*
X144561090Y-124374785D01*
X144600500Y-124125962D01*
X144600500Y-123874038D01*
X155399500Y-123874038D01*
X155399500Y-124125961D01*
X155438910Y-124374785D01*
X155516760Y-124614383D01*
X155631132Y-124838848D01*
X155779201Y-125042649D01*
X155779205Y-125042654D01*
X155957345Y-125220794D01*
X155957350Y-125220798D01*
X156135117Y-125349952D01*
X156161155Y-125368870D01*
X156304184Y-125441747D01*
X156385616Y-125483239D01*
X156385618Y-125483239D01*
X156385621Y-125483241D01*
X156625215Y-125561090D01*
X156874038Y-125600500D01*
X156874039Y-125600500D01*
X157125961Y-125600500D01*
X157125962Y-125600500D01*
X157374785Y-125561090D01*
X157614379Y-125483241D01*
X157838845Y-125368870D01*
X158042656Y-125220793D01*
X158220793Y-125042656D01*
X158368870Y-124838845D01*
X158483241Y-124614379D01*
X158561090Y-124374785D01*
X158600500Y-124125962D01*
X158600500Y-123874038D01*
X160399500Y-123874038D01*
X160399500Y-124125961D01*
X160438910Y-124374785D01*
X160516760Y-124614383D01*
X160631132Y-124838848D01*
X160779201Y-125042649D01*
X160779205Y-125042654D01*
X160957345Y-125220794D01*
X160957350Y-125220798D01*
X161135117Y-125349952D01*
X161161155Y-125368870D01*
X161304184Y-125441747D01*
X161385616Y-125483239D01*
X161385618Y-125483239D01*
X161385621Y-125483241D01*
X161625215Y-125561090D01*
X161874038Y-125600500D01*
X161874039Y-125600500D01*
X162125961Y-125600500D01*
X162125962Y-125600500D01*
X162374785Y-125561090D01*
X162614379Y-125483241D01*
X162838845Y-125368870D01*
X163042656Y-125220793D01*
X163220793Y-125042656D01*
X163368870Y-124838845D01*
X163483241Y-124614379D01*
X163561090Y-124374785D01*
X163600500Y-124125962D01*
X163600500Y-123874038D01*
X163561090Y-123625215D01*
X163483241Y-123385621D01*
X163483239Y-123385618D01*
X163483239Y-123385616D01*
X163441747Y-123304184D01*
X163368870Y-123161155D01*
X163349952Y-123135117D01*
X163220798Y-122957350D01*
X163220794Y-122957345D01*
X163042654Y-122779205D01*
X163042649Y-122779201D01*
X162838848Y-122631132D01*
X162838847Y-122631131D01*
X162838845Y-122631130D01*
X162768747Y-122595413D01*
X162614383Y-122516760D01*
X162374785Y-122438910D01*
X162125962Y-122399500D01*
X161874038Y-122399500D01*
X161749626Y-122419205D01*
X161625214Y-122438910D01*
X161385616Y-122516760D01*
X161161151Y-122631132D01*
X160957350Y-122779201D01*
X160957345Y-122779205D01*
X160779205Y-122957345D01*
X160779201Y-122957350D01*
X160631132Y-123161151D01*
X160516760Y-123385616D01*
X160438910Y-123625214D01*
X160399500Y-123874038D01*
X158600500Y-123874038D01*
X158561090Y-123625215D01*
X158483241Y-123385621D01*
X158483239Y-123385618D01*
X158483239Y-123385616D01*
X158441747Y-123304184D01*
X158368870Y-123161155D01*
X158349952Y-123135117D01*
X158220798Y-122957350D01*
X158220794Y-122957345D01*
X158042654Y-122779205D01*
X158042649Y-122779201D01*
X157838848Y-122631132D01*
X157838847Y-122631131D01*
X157838845Y-122631130D01*
X157768747Y-122595413D01*
X157614383Y-122516760D01*
X157374785Y-122438910D01*
X157125962Y-122399500D01*
X156874038Y-122399500D01*
X156749626Y-122419205D01*
X156625214Y-122438910D01*
X156385616Y-122516760D01*
X156161151Y-122631132D01*
X155957350Y-122779201D01*
X155957345Y-122779205D01*
X155779205Y-122957345D01*
X155779201Y-122957350D01*
X155631132Y-123161151D01*
X155516760Y-123385616D01*
X155438910Y-123625214D01*
X155399500Y-123874038D01*
X144600500Y-123874038D01*
X144561090Y-123625215D01*
X144483241Y-123385621D01*
X144483239Y-123385618D01*
X144483239Y-123385616D01*
X144441747Y-123304184D01*
X144368870Y-123161155D01*
X144349952Y-123135117D01*
X144220798Y-122957350D01*
X144220794Y-122957345D01*
X144042654Y-122779205D01*
X144042649Y-122779201D01*
X143838848Y-122631132D01*
X143838847Y-122631131D01*
X143838845Y-122631130D01*
X143768747Y-122595413D01*
X143614383Y-122516760D01*
X143374785Y-122438910D01*
X143125962Y-122399500D01*
X142874038Y-122399500D01*
X142749626Y-122419205D01*
X142625214Y-122438910D01*
X142385616Y-122516760D01*
X142161151Y-122631132D01*
X141957350Y-122779201D01*
X141957345Y-122779205D01*
X141779205Y-122957345D01*
X141779201Y-122957350D01*
X141631132Y-123161151D01*
X141516760Y-123385616D01*
X141438910Y-123625214D01*
X141399500Y-123874038D01*
X139600500Y-123874038D01*
X139561090Y-123625215D01*
X139483241Y-123385621D01*
X139483239Y-123385618D01*
X139483239Y-123385616D01*
X139441747Y-123304184D01*
X139368870Y-123161155D01*
X139349952Y-123135117D01*
X139220798Y-122957350D01*
X139220794Y-122957345D01*
X139042654Y-122779205D01*
X139042649Y-122779201D01*
X138838848Y-122631132D01*
X138838847Y-122631131D01*
X138838845Y-122631130D01*
X138768747Y-122595413D01*
X138614383Y-122516760D01*
X138374785Y-122438910D01*
X138125962Y-122399500D01*
X137874038Y-122399500D01*
X137749626Y-122419205D01*
X137625214Y-122438910D01*
X137385616Y-122516760D01*
X137161151Y-122631132D01*
X136957350Y-122779201D01*
X136957345Y-122779205D01*
X136779205Y-122957345D01*
X136779201Y-122957350D01*
X136631132Y-123161151D01*
X136516760Y-123385616D01*
X136438910Y-123625214D01*
X136399500Y-123874038D01*
X125500500Y-123874038D01*
X125500500Y-107852135D01*
X145549500Y-107852135D01*
X145549500Y-109447870D01*
X145549501Y-109447876D01*
X145555908Y-109507483D01*
X145606202Y-109642328D01*
X145606206Y-109642335D01*
X145692452Y-109757544D01*
X145692455Y-109757547D01*
X145807664Y-109843793D01*
X145807671Y-109843797D01*
X145942517Y-109894091D01*
X145942516Y-109894091D01*
X145949444Y-109894835D01*
X146002127Y-109900500D01*
X147597872Y-109900499D01*
X147657483Y-109894091D01*
X147792331Y-109843796D01*
X147907546Y-109757546D01*
X147993796Y-109642331D01*
X148044091Y-109507483D01*
X148050500Y-109447873D01*
X148050499Y-107852128D01*
X148044091Y-107792517D01*
X147993796Y-107657669D01*
X147993795Y-107657668D01*
X147993793Y-107657664D01*
X147907547Y-107542455D01*
X147907544Y-107542452D01*
X147792335Y-107456206D01*
X147792328Y-107456202D01*
X147657482Y-107405908D01*
X147657483Y-107405908D01*
X147597883Y-107399501D01*
X147597881Y-107399500D01*
X147597873Y-107399500D01*
X147597864Y-107399500D01*
X146002129Y-107399500D01*
X146002123Y-107399501D01*
X145942516Y-107405908D01*
X145807671Y-107456202D01*
X145807664Y-107456206D01*
X145692455Y-107542452D01*
X145692452Y-107542455D01*
X145606206Y-107657664D01*
X145606202Y-107657671D01*
X145555908Y-107792517D01*
X145549501Y-107852116D01*
X145549501Y-107852123D01*
X145549500Y-107852135D01*
X125500500Y-107852135D01*
X125500500Y-98252135D01*
X140499500Y-98252135D01*
X140499500Y-100047870D01*
X140499501Y-100047876D01*
X140505908Y-100107483D01*
X140556202Y-100242328D01*
X140556206Y-100242335D01*
X140642452Y-100357544D01*
X140642455Y-100357547D01*
X140757664Y-100443793D01*
X140757671Y-100443797D01*
X140889082Y-100492810D01*
X140945016Y-100534681D01*
X140969433Y-100600145D01*
X140954582Y-100668418D01*
X140933431Y-100696673D01*
X140819889Y-100810215D01*
X140694951Y-100982179D01*
X140598444Y-101171585D01*
X140532753Y-101373760D01*
X140499500Y-101583713D01*
X140499500Y-101796286D01*
X140532753Y-102006239D01*
X140598444Y-102208414D01*
X140694951Y-102397820D01*
X140819890Y-102569786D01*
X140970213Y-102720109D01*
X141142179Y-102845048D01*
X141142181Y-102845049D01*
X141142184Y-102845051D01*
X141151493Y-102849794D01*
X141202290Y-102897766D01*
X141219087Y-102965587D01*
X141196552Y-103031722D01*
X141151505Y-103070760D01*
X141142446Y-103075376D01*
X141142440Y-103075380D01*
X141088282Y-103114727D01*
X141088282Y-103114728D01*
X141720591Y-103747037D01*
X141657007Y-103764075D01*
X141542993Y-103829901D01*
X141449901Y-103922993D01*
X141384075Y-104037007D01*
X141367037Y-104100591D01*
X140734728Y-103468282D01*
X140734727Y-103468282D01*
X140695380Y-103522439D01*
X140598904Y-103711782D01*
X140533242Y-103913869D01*
X140533242Y-103913872D01*
X140500000Y-104123753D01*
X140500000Y-104336246D01*
X140533242Y-104546127D01*
X140533242Y-104546130D01*
X140598904Y-104748217D01*
X140695375Y-104937550D01*
X140734728Y-104991716D01*
X141367037Y-104359408D01*
X141384075Y-104422993D01*
X141449901Y-104537007D01*
X141542993Y-104630099D01*
X141657007Y-104695925D01*
X141720590Y-104712962D01*
X141088282Y-105345269D01*
X141088282Y-105345270D01*
X141142449Y-105384624D01*
X141331782Y-105481095D01*
X141533870Y-105546757D01*
X141743754Y-105580000D01*
X141956246Y-105580000D01*
X142166127Y-105546757D01*
X142166130Y-105546757D01*
X142368217Y-105481095D01*
X142557554Y-105384622D01*
X142611716Y-105345270D01*
X142611717Y-105345270D01*
X141979408Y-104712962D01*
X142042993Y-104695925D01*
X142157007Y-104630099D01*
X142250099Y-104537007D01*
X142315925Y-104422993D01*
X142332962Y-104359408D01*
X142965270Y-104991717D01*
X142965270Y-104991716D01*
X143004622Y-104937554D01*
X143101095Y-104748217D01*
X143166757Y-104546130D01*
X143166757Y-104546127D01*
X143200000Y-104336246D01*
X143200000Y-104123753D01*
X143166757Y-103913872D01*
X143166757Y-103913869D01*
X143101095Y-103711782D01*
X143004624Y-103522449D01*
X142965270Y-103468282D01*
X142965269Y-103468282D01*
X142332962Y-104100590D01*
X142315925Y-104037007D01*
X142250099Y-103922993D01*
X142157007Y-103829901D01*
X142042993Y-103764075D01*
X141979409Y-103747037D01*
X142611716Y-103114728D01*
X142557547Y-103075373D01*
X142557547Y-103075372D01*
X142548500Y-103070763D01*
X142497706Y-103022788D01*
X142480912Y-102954966D01*
X142503451Y-102888832D01*
X142548508Y-102849793D01*
X142557816Y-102845051D01*
X142637007Y-102787515D01*
X142729786Y-102720109D01*
X142729788Y-102720106D01*
X142729792Y-102720104D01*
X142880104Y-102569792D01*
X142880106Y-102569788D01*
X142880109Y-102569786D01*
X143005048Y-102397820D01*
X143005047Y-102397820D01*
X143005051Y-102397816D01*
X143101557Y-102208412D01*
X143167246Y-102006243D01*
X143200500Y-101796287D01*
X143200500Y-101583713D01*
X143167246Y-101373757D01*
X143101557Y-101171588D01*
X143005051Y-100982184D01*
X143005049Y-100982181D01*
X143005048Y-100982179D01*
X142880109Y-100810213D01*
X142766569Y-100696673D01*
X142733084Y-100635350D01*
X142738068Y-100565658D01*
X142779940Y-100509725D01*
X142810915Y-100492810D01*
X142942331Y-100443796D01*
X143057546Y-100357546D01*
X143143796Y-100242331D01*
X143194091Y-100107483D01*
X143200500Y-100047873D01*
X143200499Y-98252128D01*
X143194091Y-98192517D01*
X143143796Y-98057669D01*
X143143795Y-98057668D01*
X143143793Y-98057664D01*
X143057547Y-97942455D01*
X143057544Y-97942452D01*
X142942335Y-97856206D01*
X142942328Y-97856202D01*
X142807482Y-97805908D01*
X142807483Y-97805908D01*
X142747883Y-97799501D01*
X142747881Y-97799500D01*
X142747873Y-97799500D01*
X142747864Y-97799500D01*
X140952129Y-97799500D01*
X140952123Y-97799501D01*
X140892516Y-97805908D01*
X140757671Y-97856202D01*
X140757664Y-97856206D01*
X140642455Y-97942452D01*
X140642452Y-97942455D01*
X140556206Y-98057664D01*
X140556202Y-98057671D01*
X140505908Y-98192517D01*
X140499501Y-98252116D01*
X140499501Y-98252123D01*
X140499500Y-98252135D01*
X125500500Y-98252135D01*
X125500500Y-55624500D01*
X125520185Y-55557461D01*
X125572989Y-55511706D01*
X125624500Y-55500500D01*
X146926000Y-55500500D01*
X146993039Y-55520185D01*
G37*
%TD.AperFunction*%
%TD*%
%TA.AperFunction,Conductor*%
%TO.N,GND*%
G36*
X154843039Y-75019685D02*
G01*
X154888794Y-75072489D01*
X154900000Y-75124000D01*
X154900000Y-77126000D01*
X154880315Y-77193039D01*
X154827511Y-77238794D01*
X154776000Y-77250000D01*
X146800000Y-77250000D01*
X146650000Y-77100000D01*
X146650000Y-75000000D01*
X147050000Y-75000000D01*
X154776000Y-75000000D01*
X154843039Y-75019685D01*
G37*
%TD.AperFunction*%
%TD*%
M02*
