%TF.GenerationSoftware,KiCad,Pcbnew,9.0.2*%
%TF.CreationDate,2025-07-25T15:36:06+01:00*%
%TF.ProjectId,doorbell_pcb_v2,646f6f72-6265-46c6-9c5f-7063625f7632,rev?*%
%TF.SameCoordinates,Original*%
%TF.FileFunction,Soldermask,Top*%
%TF.FilePolarity,Negative*%
%FSLAX46Y46*%
G04 Gerber Fmt 4.6, Leading zero omitted, Abs format (unit mm)*
G04 Created by KiCad (PCBNEW 9.0.2) date 2025-07-25 15:36:06*
%MOMM*%
%LPD*%
G01*
G04 APERTURE LIST*
G04 Aperture macros list*
%AMRoundRect*
0 Rectangle with rounded corners*
0 $1 Rounding radius*
0 $2 $3 $4 $5 $6 $7 $8 $9 X,Y pos of 4 corners*
0 Add a 4 corners polygon primitive as box body*
4,1,4,$2,$3,$4,$5,$6,$7,$8,$9,$2,$3,0*
0 Add four circle primitives for the rounded corners*
1,1,$1+$1,$2,$3*
1,1,$1+$1,$4,$5*
1,1,$1+$1,$6,$7*
1,1,$1+$1,$8,$9*
0 Add four rect primitives between the rounded corners*
20,1,$1+$1,$2,$3,$4,$5,0*
20,1,$1+$1,$4,$5,$6,$7,0*
20,1,$1+$1,$6,$7,$8,$9,0*
20,1,$1+$1,$8,$9,$2,$3,0*%
G04 Aperture macros list end*
%ADD10RoundRect,0.250000X0.475000X-0.337500X0.475000X0.337500X-0.475000X0.337500X-0.475000X-0.337500X0*%
%ADD11RoundRect,0.250000X0.450000X-0.350000X0.450000X0.350000X-0.450000X0.350000X-0.450000X-0.350000X0*%
%ADD12C,4.400000*%
%ADD13RoundRect,0.250000X-0.337500X-0.475000X0.337500X-0.475000X0.337500X0.475000X-0.337500X0.475000X0*%
%ADD14RoundRect,0.250000X-0.750000X0.600000X-0.750000X-0.600000X0.750000X-0.600000X0.750000X0.600000X0*%
%ADD15O,2.000000X1.700000*%
%ADD16RoundRect,0.250000X0.450000X-0.325000X0.450000X0.325000X-0.450000X0.325000X-0.450000X-0.325000X0*%
%ADD17RoundRect,0.250000X1.950000X1.000000X-1.950000X1.000000X-1.950000X-1.000000X1.950000X-1.000000X0*%
%ADD18R,2.000000X1.200000*%
%ADD19R,1.300000X1.500000*%
%ADD20RoundRect,0.150000X0.150000X-0.825000X0.150000X0.825000X-0.150000X0.825000X-0.150000X-0.825000X0*%
%ADD21C,2.200000*%
%ADD22RoundRect,0.250000X-0.475000X0.337500X-0.475000X-0.337500X0.475000X-0.337500X0.475000X0.337500X0*%
%ADD23RoundRect,0.250000X0.350000X-0.850000X0.350000X0.850000X-0.350000X0.850000X-0.350000X-0.850000X0*%
%ADD24RoundRect,0.249997X2.650003X-2.950003X2.650003X2.950003X-2.650003X2.950003X-2.650003X-2.950003X0*%
%ADD25RoundRect,0.250000X-0.725000X0.600000X-0.725000X-0.600000X0.725000X-0.600000X0.725000X0.600000X0*%
%ADD26O,1.950000X1.700000*%
%ADD27RoundRect,0.225000X2.775000X0.525000X-2.775000X0.525000X-2.775000X-0.525000X2.775000X-0.525000X0*%
%ADD28C,1.000000*%
%ADD29RoundRect,0.225000X-2.775000X-0.525000X2.775000X-0.525000X2.775000X0.525000X-2.775000X0.525000X0*%
%ADD30RoundRect,0.250000X-0.450000X0.350000X-0.450000X-0.350000X0.450000X-0.350000X0.450000X0.350000X0*%
%ADD31R,1.500000X1.500000*%
%ADD32RoundRect,0.225000X-0.375000X0.225000X-0.375000X-0.225000X0.375000X-0.225000X0.375000X0.225000X0*%
G04 APERTURE END LIST*
D10*
%TO.C,C2*%
X145250000Y-116037500D03*
X145250000Y-113962500D03*
%TD*%
D11*
%TO.C,R4*%
X141250000Y-77475000D03*
X141250000Y-75475000D03*
%TD*%
%TO.C,R3*%
X162500000Y-110500000D03*
X162500000Y-108500000D03*
%TD*%
D12*
%TO.C,H2*%
X170000000Y-60000000D03*
%TD*%
D11*
%TO.C,R1*%
X149500000Y-110662500D03*
X149500000Y-108662500D03*
%TD*%
D13*
%TO.C,C1*%
X153962500Y-116000000D03*
X156037500Y-116000000D03*
%TD*%
D14*
%TO.C,J3*%
X170000000Y-113750000D03*
D15*
X170000000Y-116250000D03*
%TD*%
D16*
%TO.C,D3*%
X141250000Y-81750000D03*
X141250000Y-79700000D03*
%TD*%
D17*
%TO.C,C3*%
X137400000Y-90000000D03*
X129000000Y-90000000D03*
%TD*%
D18*
%TO.C,SW1*%
X130000000Y-116000000D03*
X130000000Y-113500000D03*
X130000000Y-111000000D03*
X135700000Y-116000000D03*
X135700000Y-113500000D03*
X135700000Y-111000000D03*
%TD*%
D12*
%TO.C,H1*%
X130000000Y-60000000D03*
%TD*%
%TO.C,H4*%
X130000000Y-124000000D03*
%TD*%
D19*
%TO.C,D1*%
X135100000Y-97100000D03*
X130000000Y-97100000D03*
X130000000Y-106000000D03*
X135100000Y-106000000D03*
%TD*%
D20*
%TO.C,U1*%
X148095000Y-118475000D03*
X149365000Y-118475000D03*
X150635000Y-118475000D03*
X151905000Y-118475000D03*
X151905000Y-113525000D03*
X150635000Y-113525000D03*
X149365000Y-113525000D03*
X148095000Y-113525000D03*
%TD*%
D21*
%TO.C,J1*%
X138000000Y-124000000D03*
X143000000Y-124000000D03*
%TD*%
D12*
%TO.C,H3*%
X170000000Y-124000000D03*
%TD*%
D21*
%TO.C,J2*%
X157000000Y-124000000D03*
X162000000Y-124000000D03*
%TD*%
D22*
%TO.C,C5*%
X129250000Y-81212500D03*
X129250000Y-83287500D03*
%TD*%
%TO.C,C7*%
X133750000Y-81000000D03*
X133750000Y-83075000D03*
%TD*%
D23*
%TO.C,U2*%
X129245000Y-78625000D03*
D24*
X131525000Y-72325000D03*
D23*
X133805000Y-78625000D03*
%TD*%
D25*
%TO.C,J4*%
X170000000Y-101750000D03*
D26*
X170000000Y-104250000D03*
X170000000Y-106750000D03*
%TD*%
D27*
%TO.C,U3*%
X150440000Y-75500000D03*
D28*
X152250000Y-75500000D03*
D27*
X150440000Y-78040000D03*
D28*
X152250000Y-78040000D03*
D27*
X150440000Y-80580000D03*
D28*
X152250000Y-80580000D03*
D27*
X150440000Y-83120000D03*
D28*
X152250000Y-83120000D03*
D27*
X150440000Y-85660000D03*
D28*
X152250000Y-85660000D03*
D27*
X150440000Y-88200000D03*
D28*
X152250000Y-88200000D03*
D27*
X150440000Y-90740000D03*
D28*
X152250000Y-90740000D03*
D27*
X150440000Y-93280000D03*
D28*
X152250000Y-93280000D03*
D27*
X150440000Y-95820000D03*
D28*
X152250000Y-95820000D03*
X167490000Y-95820000D03*
D29*
X169300000Y-95820000D03*
D28*
X167490000Y-93280000D03*
D29*
X169300000Y-93280000D03*
D28*
X167490000Y-90740000D03*
D29*
X169300000Y-90740000D03*
D28*
X167490000Y-88200000D03*
D29*
X169300000Y-88200000D03*
D28*
X167490000Y-85660000D03*
D29*
X169300000Y-85660000D03*
D28*
X167490000Y-83120000D03*
D29*
X169300000Y-83120000D03*
D28*
X167490000Y-80580000D03*
D29*
X169300000Y-80580000D03*
D28*
X167490000Y-78040000D03*
D29*
X169300000Y-78040000D03*
D28*
X167490000Y-75500000D03*
D29*
X169300000Y-75500000D03*
%TD*%
D30*
%TO.C,R2*%
X152250000Y-108662500D03*
X152250000Y-110662500D03*
%TD*%
D31*
%TO.C,TP1*%
X155750000Y-108750000D03*
%TD*%
D32*
%TO.C,D2*%
X138250000Y-75350000D03*
X138250000Y-78650000D03*
%TD*%
G36*
X174443039Y-55519685D02*
G01*
X174488794Y-55572489D01*
X174500000Y-55624000D01*
X174500000Y-69698638D01*
X174480315Y-69765677D01*
X174463681Y-69786319D01*
X174286319Y-69963681D01*
X174224996Y-69997166D01*
X174198638Y-70000000D01*
X125624000Y-70000000D01*
X125556961Y-69980315D01*
X125511206Y-69927511D01*
X125500000Y-69876000D01*
X125500000Y-55624000D01*
X125519685Y-55556961D01*
X125572489Y-55511206D01*
X125624000Y-55500000D01*
X174376000Y-55500000D01*
X174443039Y-55519685D01*
G37*
M02*
