%TF.GenerationSoftware,KiCad,Pcbnew,9.0.2*%
%TF.CreationDate,2025-07-25T15:36:06+01:00*%
%TF.ProjectId,doorbell_pcb_v2,646f6f72-6265-46c6-9c5f-7063625f7632,rev?*%
%TF.SameCoordinates,Original*%
%TF.FileFunction,Copper,L2,Bot*%
%TF.FilePolarity,Positive*%
%FSLAX46Y46*%
G04 Gerber Fmt 4.6, Leading zero omitted, Abs format (unit mm)*
G04 Created by KiCad (PCBNEW 9.0.2) date 2025-07-25 15:36:06*
%MOMM*%
%LPD*%
G01*
G04 APERTURE LIST*
G04 Aperture macros list*
%AMRoundRect*
0 Rectangle with rounded corners*
0 $1 Rounding radius*
0 $2 $3 $4 $5 $6 $7 $8 $9 X,Y pos of 4 corners*
0 Add a 4 corners polygon primitive as box body*
4,1,4,$2,$3,$4,$5,$6,$7,$8,$9,$2,$3,0*
0 Add four circle primitives for the rounded corners*
1,1,$1+$1,$2,$3*
1,1,$1+$1,$4,$5*
1,1,$1+$1,$6,$7*
1,1,$1+$1,$8,$9*
0 Add four rect primitives between the rounded corners*
20,1,$1+$1,$2,$3,$4,$5,0*
20,1,$1+$1,$4,$5,$6,$7,0*
20,1,$1+$1,$6,$7,$8,$9,0*
20,1,$1+$1,$8,$9,$2,$3,0*%
G04 Aperture macros list end*
%TA.AperFunction,ComponentPad*%
%ADD10C,4.400000*%
%TD*%
%TA.AperFunction,ComponentPad*%
%ADD11RoundRect,0.250000X-0.750000X0.600000X-0.750000X-0.600000X0.750000X-0.600000X0.750000X0.600000X0*%
%TD*%
%TA.AperFunction,ComponentPad*%
%ADD12O,2.000000X1.700000*%
%TD*%
%TA.AperFunction,ComponentPad*%
%ADD13C,2.200000*%
%TD*%
%TA.AperFunction,ComponentPad*%
%ADD14RoundRect,0.250000X-0.725000X0.600000X-0.725000X-0.600000X0.725000X-0.600000X0.725000X0.600000X0*%
%TD*%
%TA.AperFunction,ComponentPad*%
%ADD15O,1.950000X1.700000*%
%TD*%
%TA.AperFunction,ComponentPad*%
%ADD16RoundRect,0.225000X2.775000X0.525000X-2.775000X0.525000X-2.775000X-0.525000X2.775000X-0.525000X0*%
%TD*%
%TA.AperFunction,ComponentPad*%
%ADD17C,1.000000*%
%TD*%
%TA.AperFunction,ComponentPad*%
%ADD18RoundRect,0.225000X-2.775000X-0.525000X2.775000X-0.525000X2.775000X0.525000X-2.775000X0.525000X0*%
%TD*%
%TA.AperFunction,ComponentPad*%
%ADD19R,1.500000X1.500000*%
%TD*%
%TA.AperFunction,ViaPad*%
%ADD20C,1.500000*%
%TD*%
%TA.AperFunction,Conductor*%
%ADD21C,1.000000*%
%TD*%
%TA.AperFunction,Conductor*%
%ADD22C,0.500000*%
%TD*%
G04 APERTURE END LIST*
D10*
%TO.P,H2,1,1*%
%TO.N,GND*%
X170000000Y-60000000D03*
%TD*%
D11*
%TO.P,J3,1,Pin_1*%
%TO.N,GND*%
X170000000Y-113750000D03*
D12*
%TO.P,J3,2,Pin_2*%
%TO.N,/Ext Reset*%
X170000000Y-116250000D03*
%TD*%
D10*
%TO.P,H1,1,1*%
%TO.N,GND*%
X130000000Y-60000000D03*
%TD*%
%TO.P,H4,1,1*%
%TO.N,GND*%
X130000000Y-124000000D03*
%TD*%
D13*
%TO.P,J1,1,Pin_1*%
%TO.N,/VAC In B*%
X138000000Y-124000000D03*
%TO.P,J1,2,Pin_2*%
%TO.N,/VAC In A*%
X143000000Y-124000000D03*
%TD*%
D10*
%TO.P,H3,1,1*%
%TO.N,GND*%
X170000000Y-124000000D03*
%TD*%
D13*
%TO.P,J2,1,Pin_1*%
%TO.N,/VAC Out A*%
X157000000Y-124000000D03*
%TO.P,J2,2,Pin_2*%
%TO.N,/VAC In B*%
X162000000Y-124000000D03*
%TD*%
D14*
%TO.P,J4,1,Pin_1*%
%TO.N,+5V Internal*%
X170000000Y-101750000D03*
D15*
%TO.P,J4,2,Pin_2*%
%TO.N,/WS2812*%
X170000000Y-104250000D03*
%TO.P,J4,3,Pin_3*%
%TO.N,GND*%
X170000000Y-106750000D03*
%TD*%
D16*
%TO.P,U3,1,5V*%
%TO.N,+5V Internal*%
X150440000Y-75500000D03*
D17*
X152250000Y-75500000D03*
D16*
%TO.P,U3,2,GND*%
%TO.N,GND*%
X150440000Y-78040000D03*
D17*
X152250000Y-78040000D03*
D16*
%TO.P,U3,3,3V3*%
%TO.N,+3.3V*%
X150440000Y-80580000D03*
D17*
X152250000Y-80580000D03*
D16*
%TO.P,U3,4,GPIO_0*%
%TO.N,unconnected-(U3-GPIO_0-Pad4)*%
X150440000Y-83120000D03*
D17*
%TO.N,unconnected-(U3-GPIO_0-Pad4)_1*%
X152250000Y-83120000D03*
D16*
%TO.P,U3,5,GPIO_1*%
%TO.N,unconnected-(U3-GPIO_1-Pad5)*%
X150440000Y-85660000D03*
D17*
%TO.N,unconnected-(U3-GPIO_1-Pad5)_1*%
X152250000Y-85660000D03*
D16*
%TO.P,U3,6,GPIO_2*%
%TO.N,unconnected-(U3-GPIO_2-Pad6)_1*%
X150440000Y-88200000D03*
D17*
%TO.N,unconnected-(U3-GPIO_2-Pad6)*%
X152250000Y-88200000D03*
D16*
%TO.P,U3,7,GPIO_3*%
%TO.N,unconnected-(U3-GPIO_3-Pad7)_1*%
X150440000Y-90740000D03*
D17*
%TO.N,unconnected-(U3-GPIO_3-Pad7)*%
X152250000Y-90740000D03*
D16*
%TO.P,U3,8,GPIO_4*%
%TO.N,/ADC Input*%
X150440000Y-93280000D03*
D17*
X152250000Y-93280000D03*
D16*
%TO.P,U3,9,GPIO_5*%
%TO.N,unconnected-(U3-GPIO_5-Pad9)*%
X150440000Y-95820000D03*
D17*
%TO.N,unconnected-(U3-GPIO_5-Pad9)_1*%
X152250000Y-95820000D03*
%TO.P,U3,10,GPIO_6*%
%TO.N,/Ext Reset*%
X167490000Y-95820000D03*
D18*
X169300000Y-95820000D03*
D17*
%TO.P,U3,11,GPIO_7*%
%TO.N,unconnected-(U3-GPIO_7-Pad11)*%
X167490000Y-93280000D03*
D18*
%TO.N,unconnected-(U3-GPIO_7-Pad11)_1*%
X169300000Y-93280000D03*
D17*
%TO.P,U3,12,GPIO_8*%
%TO.N,unconnected-(U3-GPIO_8-Pad12)*%
X167490000Y-90740000D03*
D18*
%TO.N,unconnected-(U3-GPIO_8-Pad12)_1*%
X169300000Y-90740000D03*
D17*
%TO.P,U3,13,GPIO_9*%
%TO.N,unconnected-(U3-GPIO_9-Pad13)*%
X167490000Y-88200000D03*
D18*
%TO.N,unconnected-(U3-GPIO_9-Pad13)_1*%
X169300000Y-88200000D03*
D17*
%TO.P,U3,14,GPIO_10*%
%TO.N,unconnected-(U3-GPIO_10-Pad14)*%
X167490000Y-85660000D03*
D18*
%TO.N,unconnected-(U3-GPIO_10-Pad14)_1*%
X169300000Y-85660000D03*
D17*
%TO.P,U3,15,GPIO_18*%
%TO.N,unconnected-(U3-GPIO_18-Pad15)*%
X167490000Y-83120000D03*
D18*
%TO.N,unconnected-(U3-GPIO_18-Pad15)_1*%
X169300000Y-83120000D03*
D17*
%TO.P,U3,16,GPIO_19*%
%TO.N,unconnected-(U3-GPIO_19-Pad16)_1*%
X167490000Y-80580000D03*
D18*
%TO.N,unconnected-(U3-GPIO_19-Pad16)*%
X169300000Y-80580000D03*
D17*
%TO.P,U3,17,GPIO_20*%
%TO.N,unconnected-(U3-GPIO_20-Pad17)*%
X167490000Y-78040000D03*
D18*
%TO.N,unconnected-(U3-GPIO_20-Pad17)_1*%
X169300000Y-78040000D03*
D17*
%TO.P,U3,18,GPIO_21*%
%TO.N,/WS2812*%
X167490000Y-75500000D03*
D18*
X169300000Y-75500000D03*
%TD*%
D19*
%TO.P,TP1,1,1*%
%TO.N,/ADC Input*%
X155750000Y-108750000D03*
%TD*%
D20*
%TO.N,GND*%
X132750000Y-73500000D03*
X143000000Y-114000000D03*
X135825000Y-83075000D03*
X141250000Y-83580552D03*
X130000000Y-92750000D03*
X127000000Y-83250000D03*
X130000000Y-70750000D03*
X130000000Y-73500000D03*
X132750000Y-70750000D03*
X154250000Y-113500000D03*
X127250000Y-97000000D03*
%TD*%
D21*
%TO.N,GND*%
X142960000Y-78040000D02*
X141250000Y-79750000D01*
X141250000Y-79750000D02*
X141250000Y-83580552D01*
D22*
X141290552Y-83540000D02*
X141250000Y-83580552D01*
D21*
X148440000Y-78040000D02*
X142960000Y-78040000D01*
D22*
%TO.N,+5V Internal*%
X164750000Y-87250000D02*
X164750000Y-100000000D01*
X166500000Y-101750000D02*
X170000000Y-101750000D01*
X153000000Y-75500000D02*
X148440000Y-75500000D01*
X164750000Y-87250000D02*
X153000000Y-75500000D01*
X164750000Y-100000000D02*
X166500000Y-101750000D01*
%TD*%
%TA.AperFunction,Conductor*%
%TO.N,GND*%
G36*
X174442539Y-55520185D02*
G01*
X174488294Y-55572989D01*
X174499500Y-55624500D01*
X174499500Y-69449138D01*
X174479815Y-69516177D01*
X174463181Y-69536819D01*
X174286319Y-69713681D01*
X174224996Y-69747166D01*
X174198638Y-69750000D01*
X144999999Y-69750000D01*
X144000000Y-70749999D01*
X144000000Y-70750000D01*
X144000000Y-112250000D01*
X168843251Y-112250000D01*
X168910290Y-112269685D01*
X168956045Y-112322489D01*
X168965989Y-112391647D01*
X168936964Y-112455203D01*
X168908348Y-112479539D01*
X168781654Y-112557684D01*
X168657684Y-112681654D01*
X168565643Y-112830875D01*
X168565641Y-112830880D01*
X168510494Y-112997302D01*
X168510493Y-112997309D01*
X168500000Y-113100013D01*
X168500000Y-113500000D01*
X169566988Y-113500000D01*
X169534075Y-113557007D01*
X169500000Y-113684174D01*
X169500000Y-113815826D01*
X169534075Y-113942993D01*
X169566988Y-114000000D01*
X168500001Y-114000000D01*
X168500001Y-114399986D01*
X168510494Y-114502697D01*
X168565641Y-114669119D01*
X168565643Y-114669124D01*
X168657684Y-114818345D01*
X168781654Y-114942315D01*
X168936484Y-115037815D01*
X168983208Y-115089763D01*
X168994431Y-115158726D01*
X168966587Y-115222808D01*
X168959069Y-115231035D01*
X168819889Y-115370215D01*
X168694951Y-115542179D01*
X168598444Y-115731585D01*
X168532753Y-115933760D01*
X168499500Y-116143713D01*
X168499500Y-116356286D01*
X168532753Y-116566239D01*
X168598444Y-116768414D01*
X168694951Y-116957820D01*
X168819890Y-117129786D01*
X168970213Y-117280109D01*
X169142179Y-117405048D01*
X169142181Y-117405049D01*
X169142184Y-117405051D01*
X169331588Y-117501557D01*
X169533757Y-117567246D01*
X169743713Y-117600500D01*
X169743714Y-117600500D01*
X170256286Y-117600500D01*
X170256287Y-117600500D01*
X170466243Y-117567246D01*
X170668412Y-117501557D01*
X170857816Y-117405051D01*
X170879789Y-117389086D01*
X171029786Y-117280109D01*
X171029788Y-117280106D01*
X171029792Y-117280104D01*
X171180104Y-117129792D01*
X171180106Y-117129788D01*
X171180109Y-117129786D01*
X171305048Y-116957820D01*
X171305047Y-116957820D01*
X171305051Y-116957816D01*
X171401557Y-116768412D01*
X171467246Y-116566243D01*
X171500500Y-116356287D01*
X171500500Y-116143713D01*
X171467246Y-115933757D01*
X171401557Y-115731588D01*
X171305051Y-115542184D01*
X171305049Y-115542181D01*
X171305048Y-115542179D01*
X171180109Y-115370213D01*
X171040931Y-115231035D01*
X171007446Y-115169712D01*
X171012430Y-115100020D01*
X171054302Y-115044087D01*
X171063516Y-115037815D01*
X171218343Y-114942317D01*
X171342315Y-114818345D01*
X171434356Y-114669124D01*
X171434358Y-114669119D01*
X171489505Y-114502697D01*
X171489506Y-114502690D01*
X171499999Y-114399986D01*
X171500000Y-114399973D01*
X171500000Y-114000000D01*
X170433012Y-114000000D01*
X170465925Y-113942993D01*
X170500000Y-113815826D01*
X170500000Y-113684174D01*
X170465925Y-113557007D01*
X170433012Y-113500000D01*
X171499999Y-113500000D01*
X171499999Y-113100028D01*
X171499998Y-113100013D01*
X171489505Y-112997302D01*
X171434358Y-112830880D01*
X171434356Y-112830875D01*
X171342315Y-112681654D01*
X171218345Y-112557684D01*
X171091652Y-112479539D01*
X171044928Y-112427591D01*
X171033705Y-112358628D01*
X171061549Y-112294546D01*
X171119618Y-112255690D01*
X171156749Y-112250000D01*
X174375500Y-112250000D01*
X174442539Y-112269685D01*
X174488294Y-112322489D01*
X174499500Y-112374000D01*
X174499500Y-129375500D01*
X174479815Y-129442539D01*
X174427011Y-129488294D01*
X174375500Y-129499500D01*
X125624500Y-129499500D01*
X125557461Y-129479815D01*
X125511706Y-129427011D01*
X125500500Y-129375500D01*
X125500500Y-123874038D01*
X136399500Y-123874038D01*
X136399500Y-124125961D01*
X136438910Y-124374785D01*
X136516760Y-124614383D01*
X136631132Y-124838848D01*
X136779201Y-125042649D01*
X136779205Y-125042654D01*
X136957345Y-125220794D01*
X136957350Y-125220798D01*
X137135117Y-125349952D01*
X137161155Y-125368870D01*
X137304184Y-125441747D01*
X137385616Y-125483239D01*
X137385618Y-125483239D01*
X137385621Y-125483241D01*
X137625215Y-125561090D01*
X137874038Y-125600500D01*
X137874039Y-125600500D01*
X138125961Y-125600500D01*
X138125962Y-125600500D01*
X138374785Y-125561090D01*
X138614379Y-125483241D01*
X138838845Y-125368870D01*
X139042656Y-125220793D01*
X139220793Y-125042656D01*
X139368870Y-124838845D01*
X139483241Y-124614379D01*
X139561090Y-124374785D01*
X139600500Y-124125962D01*
X139600500Y-123874038D01*
X141399500Y-123874038D01*
X141399500Y-124125961D01*
X141438910Y-124374785D01*
X141516760Y-124614383D01*
X141631132Y-124838848D01*
X141779201Y-125042649D01*
X141779205Y-125042654D01*
X141957345Y-125220794D01*
X141957350Y-125220798D01*
X142135117Y-125349952D01*
X142161155Y-125368870D01*
X142304184Y-125441747D01*
X142385616Y-125483239D01*
X142385618Y-125483239D01*
X142385621Y-125483241D01*
X142625215Y-125561090D01*
X142874038Y-125600500D01*
X142874039Y-125600500D01*
X143125961Y-125600500D01*
X143125962Y-125600500D01*
X143374785Y-125561090D01*
X143614379Y-125483241D01*
X143838845Y-125368870D01*
X144042656Y-125220793D01*
X144220793Y-125042656D01*
X144368870Y-124838845D01*
X144483241Y-124614379D01*
X144561090Y-124374785D01*
X144600500Y-124125962D01*
X144600500Y-123874038D01*
X155399500Y-123874038D01*
X155399500Y-124125961D01*
X155438910Y-124374785D01*
X155516760Y-124614383D01*
X155631132Y-124838848D01*
X155779201Y-125042649D01*
X155779205Y-125042654D01*
X155957345Y-125220794D01*
X155957350Y-125220798D01*
X156135117Y-125349952D01*
X156161155Y-125368870D01*
X156304184Y-125441747D01*
X156385616Y-125483239D01*
X156385618Y-125483239D01*
X156385621Y-125483241D01*
X156625215Y-125561090D01*
X156874038Y-125600500D01*
X156874039Y-125600500D01*
X157125961Y-125600500D01*
X157125962Y-125600500D01*
X157374785Y-125561090D01*
X157614379Y-125483241D01*
X157838845Y-125368870D01*
X158042656Y-125220793D01*
X158220793Y-125042656D01*
X158368870Y-124838845D01*
X158483241Y-124614379D01*
X158561090Y-124374785D01*
X158600500Y-124125962D01*
X158600500Y-123874038D01*
X160399500Y-123874038D01*
X160399500Y-124125961D01*
X160438910Y-124374785D01*
X160516760Y-124614383D01*
X160631132Y-124838848D01*
X160779201Y-125042649D01*
X160779205Y-125042654D01*
X160957345Y-125220794D01*
X160957350Y-125220798D01*
X161135117Y-125349952D01*
X161161155Y-125368870D01*
X161304184Y-125441747D01*
X161385616Y-125483239D01*
X161385618Y-125483239D01*
X161385621Y-125483241D01*
X161625215Y-125561090D01*
X161874038Y-125600500D01*
X161874039Y-125600500D01*
X162125961Y-125600500D01*
X162125962Y-125600500D01*
X162374785Y-125561090D01*
X162614379Y-125483241D01*
X162838845Y-125368870D01*
X163042656Y-125220793D01*
X163220793Y-125042656D01*
X163368870Y-124838845D01*
X163483241Y-124614379D01*
X163561090Y-124374785D01*
X163600500Y-124125962D01*
X163600500Y-123874038D01*
X163561090Y-123625215D01*
X163483241Y-123385621D01*
X163483239Y-123385618D01*
X163483239Y-123385616D01*
X163441747Y-123304184D01*
X163368870Y-123161155D01*
X163349952Y-123135117D01*
X163220798Y-122957350D01*
X163220794Y-122957345D01*
X163042654Y-122779205D01*
X163042649Y-122779201D01*
X162838848Y-122631132D01*
X162838847Y-122631131D01*
X162838845Y-122631130D01*
X162768747Y-122595413D01*
X162614383Y-122516760D01*
X162374785Y-122438910D01*
X162125962Y-122399500D01*
X161874038Y-122399500D01*
X161749626Y-122419205D01*
X161625214Y-122438910D01*
X161385616Y-122516760D01*
X161161151Y-122631132D01*
X160957350Y-122779201D01*
X160957345Y-122779205D01*
X160779205Y-122957345D01*
X160779201Y-122957350D01*
X160631132Y-123161151D01*
X160516760Y-123385616D01*
X160438910Y-123625214D01*
X160399500Y-123874038D01*
X158600500Y-123874038D01*
X158561090Y-123625215D01*
X158483241Y-123385621D01*
X158483239Y-123385618D01*
X158483239Y-123385616D01*
X158441747Y-123304184D01*
X158368870Y-123161155D01*
X158349952Y-123135117D01*
X158220798Y-122957350D01*
X158220794Y-122957345D01*
X158042654Y-122779205D01*
X158042649Y-122779201D01*
X157838848Y-122631132D01*
X157838847Y-122631131D01*
X157838845Y-122631130D01*
X157768747Y-122595413D01*
X157614383Y-122516760D01*
X157374785Y-122438910D01*
X157125962Y-122399500D01*
X156874038Y-122399500D01*
X156749626Y-122419205D01*
X156625214Y-122438910D01*
X156385616Y-122516760D01*
X156161151Y-122631132D01*
X155957350Y-122779201D01*
X155957345Y-122779205D01*
X155779205Y-122957345D01*
X155779201Y-122957350D01*
X155631132Y-123161151D01*
X155516760Y-123385616D01*
X155438910Y-123625214D01*
X155399500Y-123874038D01*
X144600500Y-123874038D01*
X144561090Y-123625215D01*
X144483241Y-123385621D01*
X144483239Y-123385618D01*
X144483239Y-123385616D01*
X144441747Y-123304184D01*
X144368870Y-123161155D01*
X144349952Y-123135117D01*
X144220798Y-122957350D01*
X144220794Y-122957345D01*
X144042654Y-122779205D01*
X144042649Y-122779201D01*
X143838848Y-122631132D01*
X143838847Y-122631131D01*
X143838845Y-122631130D01*
X143768747Y-122595413D01*
X143614383Y-122516760D01*
X143374785Y-122438910D01*
X143125962Y-122399500D01*
X142874038Y-122399500D01*
X142749626Y-122419205D01*
X142625214Y-122438910D01*
X142385616Y-122516760D01*
X142161151Y-122631132D01*
X141957350Y-122779201D01*
X141957345Y-122779205D01*
X141779205Y-122957345D01*
X141779201Y-122957350D01*
X141631132Y-123161151D01*
X141516760Y-123385616D01*
X141438910Y-123625214D01*
X141399500Y-123874038D01*
X139600500Y-123874038D01*
X139561090Y-123625215D01*
X139483241Y-123385621D01*
X139483239Y-123385618D01*
X139483239Y-123385616D01*
X139441747Y-123304184D01*
X139368870Y-123161155D01*
X139349952Y-123135117D01*
X139220798Y-122957350D01*
X139220794Y-122957345D01*
X139042654Y-122779205D01*
X139042649Y-122779201D01*
X138838848Y-122631132D01*
X138838847Y-122631131D01*
X138838845Y-122631130D01*
X138768747Y-122595413D01*
X138614383Y-122516760D01*
X138374785Y-122438910D01*
X138125962Y-122399500D01*
X137874038Y-122399500D01*
X137749626Y-122419205D01*
X137625214Y-122438910D01*
X137385616Y-122516760D01*
X137161151Y-122631132D01*
X136957350Y-122779201D01*
X136957345Y-122779205D01*
X136779205Y-122957345D01*
X136779201Y-122957350D01*
X136631132Y-123161151D01*
X136516760Y-123385616D01*
X136438910Y-123625214D01*
X136399500Y-123874038D01*
X125500500Y-123874038D01*
X125500500Y-55624500D01*
X125520185Y-55557461D01*
X125572989Y-55511706D01*
X125624500Y-55500500D01*
X174375500Y-55500500D01*
X174442539Y-55520185D01*
G37*
%TD.AperFunction*%
%TD*%
M02*
