%TF.GenerationSoftware,KiCad,Pcbnew,9.0.2*%
%TF.CreationDate,2025-08-03T19:13:41+01:00*%
%TF.ProjectId,doorbell_pcb_v2,646f6f72-6265-46c6-9c5f-7063625f7632,rev?*%
%TF.SameCoordinates,Original*%
%TF.FileFunction,Legend,Top*%
%TF.FilePolarity,Positive*%
%FSLAX46Y46*%
G04 Gerber Fmt 4.6, Leading zero omitted, Abs format (unit mm)*
G04 Created by KiCad (PCBNEW 9.0.2) date 2025-08-03 19:13:41*
%MOMM*%
%LPD*%
G01*
G04 APERTURE LIST*
G04 Aperture macros list*
%AMRoundRect*
0 Rectangle with rounded corners*
0 $1 Rounding radius*
0 $2 $3 $4 $5 $6 $7 $8 $9 X,Y pos of 4 corners*
0 Add a 4 corners polygon primitive as box body*
4,1,4,$2,$3,$4,$5,$6,$7,$8,$9,$2,$3,0*
0 Add four circle primitives for the rounded corners*
1,1,$1+$1,$2,$3*
1,1,$1+$1,$4,$5*
1,1,$1+$1,$6,$7*
1,1,$1+$1,$8,$9*
0 Add four rect primitives between the rounded corners*
20,1,$1+$1,$2,$3,$4,$5,0*
20,1,$1+$1,$4,$5,$6,$7,0*
20,1,$1+$1,$6,$7,$8,$9,0*
20,1,$1+$1,$8,$9,$2,$3,0*%
G04 Aperture macros list end*
%ADD10C,0.300000*%
%ADD11C,0.100000*%
%ADD12C,0.200000*%
%ADD13C,0.150000*%
%ADD14C,0.120000*%
%ADD15C,0.250000*%
%ADD16RoundRect,0.250000X0.475000X-0.337500X0.475000X0.337500X-0.475000X0.337500X-0.475000X-0.337500X0*%
%ADD17RoundRect,0.250000X-0.450000X0.350000X-0.450000X-0.350000X0.450000X-0.350000X0.450000X0.350000X0*%
%ADD18C,4.400000*%
%ADD19RoundRect,0.250000X0.450000X-0.350000X0.450000X0.350000X-0.450000X0.350000X-0.450000X-0.350000X0*%
%ADD20RoundRect,0.250000X-0.337500X-0.475000X0.337500X-0.475000X0.337500X0.475000X-0.337500X0.475000X0*%
%ADD21RoundRect,0.250000X0.450000X-0.325000X0.450000X0.325000X-0.450000X0.325000X-0.450000X-0.325000X0*%
%ADD22RoundRect,0.250000X1.950000X1.000000X-1.950000X1.000000X-1.950000X-1.000000X1.950000X-1.000000X0*%
%ADD23R,2.000000X1.200000*%
%ADD24R,1.300000X1.500000*%
%ADD25RoundRect,0.150000X0.150000X-0.825000X0.150000X0.825000X-0.150000X0.825000X-0.150000X-0.825000X0*%
%ADD26C,2.200000*%
%ADD27RoundRect,0.250000X-0.475000X0.337500X-0.475000X-0.337500X0.475000X-0.337500X0.475000X0.337500X0*%
%ADD28RoundRect,0.250000X0.350000X-0.850000X0.350000X0.850000X-0.350000X0.850000X-0.350000X-0.850000X0*%
%ADD29RoundRect,0.249997X2.650003X-2.950003X2.650003X2.950003X-2.650003X2.950003X-2.650003X-2.950003X0*%
%ADD30R,1.700000X1.700000*%
%ADD31C,1.700000*%
%ADD32RoundRect,0.225000X2.775000X0.525000X-2.775000X0.525000X-2.775000X-0.525000X2.775000X-0.525000X0*%
%ADD33C,1.000000*%
%ADD34RoundRect,0.225000X-2.775000X-0.525000X2.775000X-0.525000X2.775000X0.525000X-2.775000X0.525000X0*%
%ADD35R,1.500000X1.500000*%
%ADD36RoundRect,0.225000X0.225000X0.375000X-0.225000X0.375000X-0.225000X-0.375000X0.225000X-0.375000X0*%
G04 APERTURE END LIST*
D10*
X137654510Y-60950828D02*
X137654510Y-59450828D01*
X137654510Y-59450828D02*
X138011653Y-59450828D01*
X138011653Y-59450828D02*
X138225939Y-59522257D01*
X138225939Y-59522257D02*
X138368796Y-59665114D01*
X138368796Y-59665114D02*
X138440225Y-59807971D01*
X138440225Y-59807971D02*
X138511653Y-60093685D01*
X138511653Y-60093685D02*
X138511653Y-60307971D01*
X138511653Y-60307971D02*
X138440225Y-60593685D01*
X138440225Y-60593685D02*
X138368796Y-60736542D01*
X138368796Y-60736542D02*
X138225939Y-60879400D01*
X138225939Y-60879400D02*
X138011653Y-60950828D01*
X138011653Y-60950828D02*
X137654510Y-60950828D01*
X139368796Y-60950828D02*
X139225939Y-60879400D01*
X139225939Y-60879400D02*
X139154510Y-60807971D01*
X139154510Y-60807971D02*
X139083082Y-60665114D01*
X139083082Y-60665114D02*
X139083082Y-60236542D01*
X139083082Y-60236542D02*
X139154510Y-60093685D01*
X139154510Y-60093685D02*
X139225939Y-60022257D01*
X139225939Y-60022257D02*
X139368796Y-59950828D01*
X139368796Y-59950828D02*
X139583082Y-59950828D01*
X139583082Y-59950828D02*
X139725939Y-60022257D01*
X139725939Y-60022257D02*
X139797368Y-60093685D01*
X139797368Y-60093685D02*
X139868796Y-60236542D01*
X139868796Y-60236542D02*
X139868796Y-60665114D01*
X139868796Y-60665114D02*
X139797368Y-60807971D01*
X139797368Y-60807971D02*
X139725939Y-60879400D01*
X139725939Y-60879400D02*
X139583082Y-60950828D01*
X139583082Y-60950828D02*
X139368796Y-60950828D01*
X140725939Y-60950828D02*
X140583082Y-60879400D01*
X140583082Y-60879400D02*
X140511653Y-60807971D01*
X140511653Y-60807971D02*
X140440225Y-60665114D01*
X140440225Y-60665114D02*
X140440225Y-60236542D01*
X140440225Y-60236542D02*
X140511653Y-60093685D01*
X140511653Y-60093685D02*
X140583082Y-60022257D01*
X140583082Y-60022257D02*
X140725939Y-59950828D01*
X140725939Y-59950828D02*
X140940225Y-59950828D01*
X140940225Y-59950828D02*
X141083082Y-60022257D01*
X141083082Y-60022257D02*
X141154511Y-60093685D01*
X141154511Y-60093685D02*
X141225939Y-60236542D01*
X141225939Y-60236542D02*
X141225939Y-60665114D01*
X141225939Y-60665114D02*
X141154511Y-60807971D01*
X141154511Y-60807971D02*
X141083082Y-60879400D01*
X141083082Y-60879400D02*
X140940225Y-60950828D01*
X140940225Y-60950828D02*
X140725939Y-60950828D01*
X141868796Y-60950828D02*
X141868796Y-59950828D01*
X141868796Y-60236542D02*
X141940225Y-60093685D01*
X141940225Y-60093685D02*
X142011654Y-60022257D01*
X142011654Y-60022257D02*
X142154511Y-59950828D01*
X142154511Y-59950828D02*
X142297368Y-59950828D01*
X142797367Y-60950828D02*
X142797367Y-59450828D01*
X142797367Y-60022257D02*
X142940225Y-59950828D01*
X142940225Y-59950828D02*
X143225939Y-59950828D01*
X143225939Y-59950828D02*
X143368796Y-60022257D01*
X143368796Y-60022257D02*
X143440225Y-60093685D01*
X143440225Y-60093685D02*
X143511653Y-60236542D01*
X143511653Y-60236542D02*
X143511653Y-60665114D01*
X143511653Y-60665114D02*
X143440225Y-60807971D01*
X143440225Y-60807971D02*
X143368796Y-60879400D01*
X143368796Y-60879400D02*
X143225939Y-60950828D01*
X143225939Y-60950828D02*
X142940225Y-60950828D01*
X142940225Y-60950828D02*
X142797367Y-60879400D01*
X144725939Y-60879400D02*
X144583082Y-60950828D01*
X144583082Y-60950828D02*
X144297368Y-60950828D01*
X144297368Y-60950828D02*
X144154510Y-60879400D01*
X144154510Y-60879400D02*
X144083082Y-60736542D01*
X144083082Y-60736542D02*
X144083082Y-60165114D01*
X144083082Y-60165114D02*
X144154510Y-60022257D01*
X144154510Y-60022257D02*
X144297368Y-59950828D01*
X144297368Y-59950828D02*
X144583082Y-59950828D01*
X144583082Y-59950828D02*
X144725939Y-60022257D01*
X144725939Y-60022257D02*
X144797368Y-60165114D01*
X144797368Y-60165114D02*
X144797368Y-60307971D01*
X144797368Y-60307971D02*
X144083082Y-60450828D01*
X145654510Y-60950828D02*
X145511653Y-60879400D01*
X145511653Y-60879400D02*
X145440224Y-60736542D01*
X145440224Y-60736542D02*
X145440224Y-59450828D01*
X146440224Y-60950828D02*
X146297367Y-60879400D01*
X146297367Y-60879400D02*
X146225938Y-60736542D01*
X146225938Y-60736542D02*
X146225938Y-59450828D01*
X149011652Y-60950828D02*
X148511652Y-60236542D01*
X148154509Y-60950828D02*
X148154509Y-59450828D01*
X148154509Y-59450828D02*
X148725938Y-59450828D01*
X148725938Y-59450828D02*
X148868795Y-59522257D01*
X148868795Y-59522257D02*
X148940224Y-59593685D01*
X148940224Y-59593685D02*
X149011652Y-59736542D01*
X149011652Y-59736542D02*
X149011652Y-59950828D01*
X149011652Y-59950828D02*
X148940224Y-60093685D01*
X148940224Y-60093685D02*
X148868795Y-60165114D01*
X148868795Y-60165114D02*
X148725938Y-60236542D01*
X148725938Y-60236542D02*
X148154509Y-60236542D01*
X149654509Y-60950828D02*
X149654509Y-59950828D01*
X149654509Y-59450828D02*
X149583081Y-59522257D01*
X149583081Y-59522257D02*
X149654509Y-59593685D01*
X149654509Y-59593685D02*
X149725938Y-59522257D01*
X149725938Y-59522257D02*
X149654509Y-59450828D01*
X149654509Y-59450828D02*
X149654509Y-59593685D01*
X150368795Y-59950828D02*
X150368795Y-60950828D01*
X150368795Y-60093685D02*
X150440224Y-60022257D01*
X150440224Y-60022257D02*
X150583081Y-59950828D01*
X150583081Y-59950828D02*
X150797367Y-59950828D01*
X150797367Y-59950828D02*
X150940224Y-60022257D01*
X150940224Y-60022257D02*
X151011653Y-60165114D01*
X151011653Y-60165114D02*
X151011653Y-60950828D01*
X152368796Y-59950828D02*
X152368796Y-61165114D01*
X152368796Y-61165114D02*
X152297367Y-61307971D01*
X152297367Y-61307971D02*
X152225938Y-61379400D01*
X152225938Y-61379400D02*
X152083081Y-61450828D01*
X152083081Y-61450828D02*
X151868796Y-61450828D01*
X151868796Y-61450828D02*
X151725938Y-61379400D01*
X152368796Y-60879400D02*
X152225938Y-60950828D01*
X152225938Y-60950828D02*
X151940224Y-60950828D01*
X151940224Y-60950828D02*
X151797367Y-60879400D01*
X151797367Y-60879400D02*
X151725938Y-60807971D01*
X151725938Y-60807971D02*
X151654510Y-60665114D01*
X151654510Y-60665114D02*
X151654510Y-60236542D01*
X151654510Y-60236542D02*
X151725938Y-60093685D01*
X151725938Y-60093685D02*
X151797367Y-60022257D01*
X151797367Y-60022257D02*
X151940224Y-59950828D01*
X151940224Y-59950828D02*
X152225938Y-59950828D01*
X152225938Y-59950828D02*
X152368796Y-60022257D01*
X154225938Y-60950828D02*
X154225938Y-59450828D01*
X154225938Y-59450828D02*
X154583081Y-59450828D01*
X154583081Y-59450828D02*
X154797367Y-59522257D01*
X154797367Y-59522257D02*
X154940224Y-59665114D01*
X154940224Y-59665114D02*
X155011653Y-59807971D01*
X155011653Y-59807971D02*
X155083081Y-60093685D01*
X155083081Y-60093685D02*
X155083081Y-60307971D01*
X155083081Y-60307971D02*
X155011653Y-60593685D01*
X155011653Y-60593685D02*
X154940224Y-60736542D01*
X154940224Y-60736542D02*
X154797367Y-60879400D01*
X154797367Y-60879400D02*
X154583081Y-60950828D01*
X154583081Y-60950828D02*
X154225938Y-60950828D01*
X156297367Y-60879400D02*
X156154510Y-60950828D01*
X156154510Y-60950828D02*
X155868796Y-60950828D01*
X155868796Y-60950828D02*
X155725938Y-60879400D01*
X155725938Y-60879400D02*
X155654510Y-60736542D01*
X155654510Y-60736542D02*
X155654510Y-60165114D01*
X155654510Y-60165114D02*
X155725938Y-60022257D01*
X155725938Y-60022257D02*
X155868796Y-59950828D01*
X155868796Y-59950828D02*
X156154510Y-59950828D01*
X156154510Y-59950828D02*
X156297367Y-60022257D01*
X156297367Y-60022257D02*
X156368796Y-60165114D01*
X156368796Y-60165114D02*
X156368796Y-60307971D01*
X156368796Y-60307971D02*
X155654510Y-60450828D01*
X156797367Y-59950828D02*
X157368795Y-59950828D01*
X157011652Y-59450828D02*
X157011652Y-60736542D01*
X157011652Y-60736542D02*
X157083081Y-60879400D01*
X157083081Y-60879400D02*
X157225938Y-60950828D01*
X157225938Y-60950828D02*
X157368795Y-60950828D01*
X158440224Y-60879400D02*
X158297367Y-60950828D01*
X158297367Y-60950828D02*
X158011653Y-60950828D01*
X158011653Y-60950828D02*
X157868795Y-60879400D01*
X157868795Y-60879400D02*
X157797367Y-60736542D01*
X157797367Y-60736542D02*
X157797367Y-60165114D01*
X157797367Y-60165114D02*
X157868795Y-60022257D01*
X157868795Y-60022257D02*
X158011653Y-59950828D01*
X158011653Y-59950828D02*
X158297367Y-59950828D01*
X158297367Y-59950828D02*
X158440224Y-60022257D01*
X158440224Y-60022257D02*
X158511653Y-60165114D01*
X158511653Y-60165114D02*
X158511653Y-60307971D01*
X158511653Y-60307971D02*
X157797367Y-60450828D01*
X159797367Y-60879400D02*
X159654509Y-60950828D01*
X159654509Y-60950828D02*
X159368795Y-60950828D01*
X159368795Y-60950828D02*
X159225938Y-60879400D01*
X159225938Y-60879400D02*
X159154509Y-60807971D01*
X159154509Y-60807971D02*
X159083081Y-60665114D01*
X159083081Y-60665114D02*
X159083081Y-60236542D01*
X159083081Y-60236542D02*
X159154509Y-60093685D01*
X159154509Y-60093685D02*
X159225938Y-60022257D01*
X159225938Y-60022257D02*
X159368795Y-59950828D01*
X159368795Y-59950828D02*
X159654509Y-59950828D01*
X159654509Y-59950828D02*
X159797367Y-60022257D01*
X160225938Y-59950828D02*
X160797366Y-59950828D01*
X160440223Y-59450828D02*
X160440223Y-60736542D01*
X160440223Y-60736542D02*
X160511652Y-60879400D01*
X160511652Y-60879400D02*
X160654509Y-60950828D01*
X160654509Y-60950828D02*
X160797366Y-60950828D01*
X161511652Y-60950828D02*
X161368795Y-60879400D01*
X161368795Y-60879400D02*
X161297366Y-60807971D01*
X161297366Y-60807971D02*
X161225938Y-60665114D01*
X161225938Y-60665114D02*
X161225938Y-60236542D01*
X161225938Y-60236542D02*
X161297366Y-60093685D01*
X161297366Y-60093685D02*
X161368795Y-60022257D01*
X161368795Y-60022257D02*
X161511652Y-59950828D01*
X161511652Y-59950828D02*
X161725938Y-59950828D01*
X161725938Y-59950828D02*
X161868795Y-60022257D01*
X161868795Y-60022257D02*
X161940224Y-60093685D01*
X161940224Y-60093685D02*
X162011652Y-60236542D01*
X162011652Y-60236542D02*
X162011652Y-60665114D01*
X162011652Y-60665114D02*
X161940224Y-60807971D01*
X161940224Y-60807971D02*
X161868795Y-60879400D01*
X161868795Y-60879400D02*
X161725938Y-60950828D01*
X161725938Y-60950828D02*
X161511652Y-60950828D01*
X162654509Y-60950828D02*
X162654509Y-59950828D01*
X162654509Y-60236542D02*
X162725938Y-60093685D01*
X162725938Y-60093685D02*
X162797367Y-60022257D01*
X162797367Y-60022257D02*
X162940224Y-59950828D01*
X162940224Y-59950828D02*
X163083081Y-59950828D01*
D11*
X145077693Y-103570038D02*
X144982455Y-103522419D01*
X144982455Y-103522419D02*
X144839598Y-103522419D01*
X144839598Y-103522419D02*
X144696741Y-103570038D01*
X144696741Y-103570038D02*
X144601503Y-103665276D01*
X144601503Y-103665276D02*
X144553884Y-103760514D01*
X144553884Y-103760514D02*
X144506265Y-103950990D01*
X144506265Y-103950990D02*
X144506265Y-104093847D01*
X144506265Y-104093847D02*
X144553884Y-104284323D01*
X144553884Y-104284323D02*
X144601503Y-104379561D01*
X144601503Y-104379561D02*
X144696741Y-104474800D01*
X144696741Y-104474800D02*
X144839598Y-104522419D01*
X144839598Y-104522419D02*
X144934836Y-104522419D01*
X144934836Y-104522419D02*
X145077693Y-104474800D01*
X145077693Y-104474800D02*
X145125312Y-104427180D01*
X145125312Y-104427180D02*
X145125312Y-104093847D01*
X145125312Y-104093847D02*
X144934836Y-104093847D01*
X145553884Y-104522419D02*
X145553884Y-103522419D01*
X145553884Y-103522419D02*
X146125312Y-104522419D01*
X146125312Y-104522419D02*
X146125312Y-103522419D01*
X146601503Y-104522419D02*
X146601503Y-103522419D01*
X146601503Y-103522419D02*
X146839598Y-103522419D01*
X146839598Y-103522419D02*
X146982455Y-103570038D01*
X146982455Y-103570038D02*
X147077693Y-103665276D01*
X147077693Y-103665276D02*
X147125312Y-103760514D01*
X147125312Y-103760514D02*
X147172931Y-103950990D01*
X147172931Y-103950990D02*
X147172931Y-104093847D01*
X147172931Y-104093847D02*
X147125312Y-104284323D01*
X147125312Y-104284323D02*
X147077693Y-104379561D01*
X147077693Y-104379561D02*
X146982455Y-104474800D01*
X146982455Y-104474800D02*
X146839598Y-104522419D01*
X146839598Y-104522419D02*
X146601503Y-104522419D01*
D12*
X155269673Y-97193409D02*
X155603006Y-97193409D01*
X155745863Y-97717219D02*
X155269673Y-97717219D01*
X155269673Y-97717219D02*
X155269673Y-96717219D01*
X155269673Y-96717219D02*
X155745863Y-96717219D01*
X156126816Y-97669600D02*
X156269673Y-97717219D01*
X156269673Y-97717219D02*
X156507768Y-97717219D01*
X156507768Y-97717219D02*
X156603006Y-97669600D01*
X156603006Y-97669600D02*
X156650625Y-97621980D01*
X156650625Y-97621980D02*
X156698244Y-97526742D01*
X156698244Y-97526742D02*
X156698244Y-97431504D01*
X156698244Y-97431504D02*
X156650625Y-97336266D01*
X156650625Y-97336266D02*
X156603006Y-97288647D01*
X156603006Y-97288647D02*
X156507768Y-97241028D01*
X156507768Y-97241028D02*
X156317292Y-97193409D01*
X156317292Y-97193409D02*
X156222054Y-97145790D01*
X156222054Y-97145790D02*
X156174435Y-97098171D01*
X156174435Y-97098171D02*
X156126816Y-97002933D01*
X156126816Y-97002933D02*
X156126816Y-96907695D01*
X156126816Y-96907695D02*
X156174435Y-96812457D01*
X156174435Y-96812457D02*
X156222054Y-96764838D01*
X156222054Y-96764838D02*
X156317292Y-96717219D01*
X156317292Y-96717219D02*
X156555387Y-96717219D01*
X156555387Y-96717219D02*
X156698244Y-96764838D01*
X157126816Y-97717219D02*
X157126816Y-96717219D01*
X157126816Y-96717219D02*
X157507768Y-96717219D01*
X157507768Y-96717219D02*
X157603006Y-96764838D01*
X157603006Y-96764838D02*
X157650625Y-96812457D01*
X157650625Y-96812457D02*
X157698244Y-96907695D01*
X157698244Y-96907695D02*
X157698244Y-97050552D01*
X157698244Y-97050552D02*
X157650625Y-97145790D01*
X157650625Y-97145790D02*
X157603006Y-97193409D01*
X157603006Y-97193409D02*
X157507768Y-97241028D01*
X157507768Y-97241028D02*
X157126816Y-97241028D01*
X158031578Y-96717219D02*
X158650625Y-96717219D01*
X158650625Y-96717219D02*
X158317292Y-97098171D01*
X158317292Y-97098171D02*
X158460149Y-97098171D01*
X158460149Y-97098171D02*
X158555387Y-97145790D01*
X158555387Y-97145790D02*
X158603006Y-97193409D01*
X158603006Y-97193409D02*
X158650625Y-97288647D01*
X158650625Y-97288647D02*
X158650625Y-97526742D01*
X158650625Y-97526742D02*
X158603006Y-97621980D01*
X158603006Y-97621980D02*
X158555387Y-97669600D01*
X158555387Y-97669600D02*
X158460149Y-97717219D01*
X158460149Y-97717219D02*
X158174435Y-97717219D01*
X158174435Y-97717219D02*
X158079197Y-97669600D01*
X158079197Y-97669600D02*
X158031578Y-97621980D01*
X159031578Y-96812457D02*
X159079197Y-96764838D01*
X159079197Y-96764838D02*
X159174435Y-96717219D01*
X159174435Y-96717219D02*
X159412530Y-96717219D01*
X159412530Y-96717219D02*
X159507768Y-96764838D01*
X159507768Y-96764838D02*
X159555387Y-96812457D01*
X159555387Y-96812457D02*
X159603006Y-96907695D01*
X159603006Y-96907695D02*
X159603006Y-97002933D01*
X159603006Y-97002933D02*
X159555387Y-97145790D01*
X159555387Y-97145790D02*
X158983959Y-97717219D01*
X158983959Y-97717219D02*
X159603006Y-97717219D01*
X160031578Y-97336266D02*
X160793483Y-97336266D01*
X161841101Y-97621980D02*
X161793482Y-97669600D01*
X161793482Y-97669600D02*
X161650625Y-97717219D01*
X161650625Y-97717219D02*
X161555387Y-97717219D01*
X161555387Y-97717219D02*
X161412530Y-97669600D01*
X161412530Y-97669600D02*
X161317292Y-97574361D01*
X161317292Y-97574361D02*
X161269673Y-97479123D01*
X161269673Y-97479123D02*
X161222054Y-97288647D01*
X161222054Y-97288647D02*
X161222054Y-97145790D01*
X161222054Y-97145790D02*
X161269673Y-96955314D01*
X161269673Y-96955314D02*
X161317292Y-96860076D01*
X161317292Y-96860076D02*
X161412530Y-96764838D01*
X161412530Y-96764838D02*
X161555387Y-96717219D01*
X161555387Y-96717219D02*
X161650625Y-96717219D01*
X161650625Y-96717219D02*
X161793482Y-96764838D01*
X161793482Y-96764838D02*
X161841101Y-96812457D01*
X162174435Y-96717219D02*
X162793482Y-96717219D01*
X162793482Y-96717219D02*
X162460149Y-97098171D01*
X162460149Y-97098171D02*
X162603006Y-97098171D01*
X162603006Y-97098171D02*
X162698244Y-97145790D01*
X162698244Y-97145790D02*
X162745863Y-97193409D01*
X162745863Y-97193409D02*
X162793482Y-97288647D01*
X162793482Y-97288647D02*
X162793482Y-97526742D01*
X162793482Y-97526742D02*
X162745863Y-97621980D01*
X162745863Y-97621980D02*
X162698244Y-97669600D01*
X162698244Y-97669600D02*
X162603006Y-97717219D01*
X162603006Y-97717219D02*
X162317292Y-97717219D01*
X162317292Y-97717219D02*
X162222054Y-97669600D01*
X162222054Y-97669600D02*
X162174435Y-97621980D01*
X163888721Y-96717219D02*
X164555387Y-96717219D01*
X164555387Y-96717219D02*
X163888721Y-97717219D01*
X163888721Y-97717219D02*
X164555387Y-97717219D01*
X165317292Y-97669600D02*
X165222054Y-97717219D01*
X165222054Y-97717219D02*
X165031578Y-97717219D01*
X165031578Y-97717219D02*
X164936340Y-97669600D01*
X164936340Y-97669600D02*
X164888721Y-97574361D01*
X164888721Y-97574361D02*
X164888721Y-97193409D01*
X164888721Y-97193409D02*
X164936340Y-97098171D01*
X164936340Y-97098171D02*
X165031578Y-97050552D01*
X165031578Y-97050552D02*
X165222054Y-97050552D01*
X165222054Y-97050552D02*
X165317292Y-97098171D01*
X165317292Y-97098171D02*
X165364911Y-97193409D01*
X165364911Y-97193409D02*
X165364911Y-97288647D01*
X165364911Y-97288647D02*
X164888721Y-97383885D01*
X165793483Y-97717219D02*
X165793483Y-97050552D01*
X165793483Y-97241028D02*
X165841102Y-97145790D01*
X165841102Y-97145790D02*
X165888721Y-97098171D01*
X165888721Y-97098171D02*
X165983959Y-97050552D01*
X165983959Y-97050552D02*
X166079197Y-97050552D01*
X166555388Y-97717219D02*
X166460150Y-97669600D01*
X166460150Y-97669600D02*
X166412531Y-97621980D01*
X166412531Y-97621980D02*
X166364912Y-97526742D01*
X166364912Y-97526742D02*
X166364912Y-97241028D01*
X166364912Y-97241028D02*
X166412531Y-97145790D01*
X166412531Y-97145790D02*
X166460150Y-97098171D01*
X166460150Y-97098171D02*
X166555388Y-97050552D01*
X166555388Y-97050552D02*
X166698245Y-97050552D01*
X166698245Y-97050552D02*
X166793483Y-97098171D01*
X166793483Y-97098171D02*
X166841102Y-97145790D01*
X166841102Y-97145790D02*
X166888721Y-97241028D01*
X166888721Y-97241028D02*
X166888721Y-97526742D01*
X166888721Y-97526742D02*
X166841102Y-97621980D01*
X166841102Y-97621980D02*
X166793483Y-97669600D01*
X166793483Y-97669600D02*
X166698245Y-97717219D01*
X166698245Y-97717219D02*
X166555388Y-97717219D01*
X153676816Y-128517219D02*
X154010149Y-129517219D01*
X154010149Y-129517219D02*
X154343482Y-128517219D01*
X154819673Y-129517219D02*
X154724435Y-129469600D01*
X154724435Y-129469600D02*
X154676816Y-129421980D01*
X154676816Y-129421980D02*
X154629197Y-129326742D01*
X154629197Y-129326742D02*
X154629197Y-129041028D01*
X154629197Y-129041028D02*
X154676816Y-128945790D01*
X154676816Y-128945790D02*
X154724435Y-128898171D01*
X154724435Y-128898171D02*
X154819673Y-128850552D01*
X154819673Y-128850552D02*
X154962530Y-128850552D01*
X154962530Y-128850552D02*
X155057768Y-128898171D01*
X155057768Y-128898171D02*
X155105387Y-128945790D01*
X155105387Y-128945790D02*
X155153006Y-129041028D01*
X155153006Y-129041028D02*
X155153006Y-129326742D01*
X155153006Y-129326742D02*
X155105387Y-129421980D01*
X155105387Y-129421980D02*
X155057768Y-129469600D01*
X155057768Y-129469600D02*
X154962530Y-129517219D01*
X154962530Y-129517219D02*
X154819673Y-129517219D01*
X156010149Y-128850552D02*
X156010149Y-129517219D01*
X155581578Y-128850552D02*
X155581578Y-129374361D01*
X155581578Y-129374361D02*
X155629197Y-129469600D01*
X155629197Y-129469600D02*
X155724435Y-129517219D01*
X155724435Y-129517219D02*
X155867292Y-129517219D01*
X155867292Y-129517219D02*
X155962530Y-129469600D01*
X155962530Y-129469600D02*
X156010149Y-129421980D01*
X156343483Y-128850552D02*
X156724435Y-128850552D01*
X156486340Y-128517219D02*
X156486340Y-129374361D01*
X156486340Y-129374361D02*
X156533959Y-129469600D01*
X156533959Y-129469600D02*
X156629197Y-129517219D01*
X156629197Y-129517219D02*
X156724435Y-129517219D01*
X158105388Y-129898171D02*
X158057769Y-129850552D01*
X158057769Y-129850552D02*
X157962531Y-129707695D01*
X157962531Y-129707695D02*
X157914912Y-129612457D01*
X157914912Y-129612457D02*
X157867293Y-129469600D01*
X157867293Y-129469600D02*
X157819674Y-129231504D01*
X157819674Y-129231504D02*
X157819674Y-129041028D01*
X157819674Y-129041028D02*
X157867293Y-128802933D01*
X157867293Y-128802933D02*
X157914912Y-128660076D01*
X157914912Y-128660076D02*
X157962531Y-128564838D01*
X157962531Y-128564838D02*
X158057769Y-128421980D01*
X158057769Y-128421980D02*
X158105388Y-128374361D01*
X158914912Y-128517219D02*
X158724436Y-128517219D01*
X158724436Y-128517219D02*
X158629198Y-128564838D01*
X158629198Y-128564838D02*
X158581579Y-128612457D01*
X158581579Y-128612457D02*
X158486341Y-128755314D01*
X158486341Y-128755314D02*
X158438722Y-128945790D01*
X158438722Y-128945790D02*
X158438722Y-129326742D01*
X158438722Y-129326742D02*
X158486341Y-129421980D01*
X158486341Y-129421980D02*
X158533960Y-129469600D01*
X158533960Y-129469600D02*
X158629198Y-129517219D01*
X158629198Y-129517219D02*
X158819674Y-129517219D01*
X158819674Y-129517219D02*
X158914912Y-129469600D01*
X158914912Y-129469600D02*
X158962531Y-129421980D01*
X158962531Y-129421980D02*
X159010150Y-129326742D01*
X159010150Y-129326742D02*
X159010150Y-129088647D01*
X159010150Y-129088647D02*
X158962531Y-128993409D01*
X158962531Y-128993409D02*
X158914912Y-128945790D01*
X158914912Y-128945790D02*
X158819674Y-128898171D01*
X158819674Y-128898171D02*
X158629198Y-128898171D01*
X158629198Y-128898171D02*
X158533960Y-128945790D01*
X158533960Y-128945790D02*
X158486341Y-128993409D01*
X158486341Y-128993409D02*
X158438722Y-129088647D01*
X159438722Y-129136266D02*
X160200627Y-129136266D01*
X161200626Y-129517219D02*
X160629198Y-129517219D01*
X160914912Y-129517219D02*
X160914912Y-128517219D01*
X160914912Y-128517219D02*
X160819674Y-128660076D01*
X160819674Y-128660076D02*
X160724436Y-128755314D01*
X160724436Y-128755314D02*
X160629198Y-128802933D01*
X161581579Y-128612457D02*
X161629198Y-128564838D01*
X161629198Y-128564838D02*
X161724436Y-128517219D01*
X161724436Y-128517219D02*
X161962531Y-128517219D01*
X161962531Y-128517219D02*
X162057769Y-128564838D01*
X162057769Y-128564838D02*
X162105388Y-128612457D01*
X162105388Y-128612457D02*
X162153007Y-128707695D01*
X162153007Y-128707695D02*
X162153007Y-128802933D01*
X162153007Y-128802933D02*
X162105388Y-128945790D01*
X162105388Y-128945790D02*
X161533960Y-129517219D01*
X161533960Y-129517219D02*
X162153007Y-129517219D01*
X162438722Y-128517219D02*
X162772055Y-129517219D01*
X162772055Y-129517219D02*
X163105388Y-128517219D01*
X164153008Y-129231504D02*
X164629198Y-129231504D01*
X164057770Y-129517219D02*
X164391103Y-128517219D01*
X164391103Y-128517219D02*
X164724436Y-129517219D01*
X165629198Y-129421980D02*
X165581579Y-129469600D01*
X165581579Y-129469600D02*
X165438722Y-129517219D01*
X165438722Y-129517219D02*
X165343484Y-129517219D01*
X165343484Y-129517219D02*
X165200627Y-129469600D01*
X165200627Y-129469600D02*
X165105389Y-129374361D01*
X165105389Y-129374361D02*
X165057770Y-129279123D01*
X165057770Y-129279123D02*
X165010151Y-129088647D01*
X165010151Y-129088647D02*
X165010151Y-128945790D01*
X165010151Y-128945790D02*
X165057770Y-128755314D01*
X165057770Y-128755314D02*
X165105389Y-128660076D01*
X165105389Y-128660076D02*
X165200627Y-128564838D01*
X165200627Y-128564838D02*
X165343484Y-128517219D01*
X165343484Y-128517219D02*
X165438722Y-128517219D01*
X165438722Y-128517219D02*
X165581579Y-128564838D01*
X165581579Y-128564838D02*
X165629198Y-128612457D01*
X165962532Y-129898171D02*
X166010151Y-129850552D01*
X166010151Y-129850552D02*
X166105389Y-129707695D01*
X166105389Y-129707695D02*
X166153008Y-129612457D01*
X166153008Y-129612457D02*
X166200627Y-129469600D01*
X166200627Y-129469600D02*
X166248246Y-129231504D01*
X166248246Y-129231504D02*
X166248246Y-129041028D01*
X166248246Y-129041028D02*
X166200627Y-128802933D01*
X166200627Y-128802933D02*
X166153008Y-128660076D01*
X166153008Y-128660076D02*
X166105389Y-128564838D01*
X166105389Y-128564838D02*
X166010151Y-128421980D01*
X166010151Y-128421980D02*
X165962532Y-128374361D01*
X126710149Y-110467219D02*
X126900625Y-110467219D01*
X126900625Y-110467219D02*
X126995863Y-110514838D01*
X126995863Y-110514838D02*
X127091101Y-110610076D01*
X127091101Y-110610076D02*
X127138720Y-110800552D01*
X127138720Y-110800552D02*
X127138720Y-111133885D01*
X127138720Y-111133885D02*
X127091101Y-111324361D01*
X127091101Y-111324361D02*
X126995863Y-111419600D01*
X126995863Y-111419600D02*
X126900625Y-111467219D01*
X126900625Y-111467219D02*
X126710149Y-111467219D01*
X126710149Y-111467219D02*
X126614911Y-111419600D01*
X126614911Y-111419600D02*
X126519673Y-111324361D01*
X126519673Y-111324361D02*
X126472054Y-111133885D01*
X126472054Y-111133885D02*
X126472054Y-110800552D01*
X126472054Y-110800552D02*
X126519673Y-110610076D01*
X126519673Y-110610076D02*
X126614911Y-110514838D01*
X126614911Y-110514838D02*
X126710149Y-110467219D01*
X127567292Y-111467219D02*
X127567292Y-110467219D01*
X127567292Y-110467219D02*
X128138720Y-111467219D01*
X128138720Y-111467219D02*
X128138720Y-110467219D01*
D11*
X144880074Y-98672419D02*
X144403884Y-98672419D01*
X144403884Y-98672419D02*
X144356265Y-99148609D01*
X144356265Y-99148609D02*
X144403884Y-99100990D01*
X144403884Y-99100990D02*
X144499122Y-99053371D01*
X144499122Y-99053371D02*
X144737217Y-99053371D01*
X144737217Y-99053371D02*
X144832455Y-99100990D01*
X144832455Y-99100990D02*
X144880074Y-99148609D01*
X144880074Y-99148609D02*
X144927693Y-99243847D01*
X144927693Y-99243847D02*
X144927693Y-99481942D01*
X144927693Y-99481942D02*
X144880074Y-99577180D01*
X144880074Y-99577180D02*
X144832455Y-99624800D01*
X144832455Y-99624800D02*
X144737217Y-99672419D01*
X144737217Y-99672419D02*
X144499122Y-99672419D01*
X144499122Y-99672419D02*
X144403884Y-99624800D01*
X144403884Y-99624800D02*
X144356265Y-99577180D01*
X145213408Y-98672419D02*
X145546741Y-99672419D01*
X145546741Y-99672419D02*
X145880074Y-98672419D01*
D12*
X134576816Y-128467219D02*
X134910149Y-129467219D01*
X134910149Y-129467219D02*
X135243482Y-128467219D01*
X135576816Y-129467219D02*
X135576816Y-128800552D01*
X135576816Y-128467219D02*
X135529197Y-128514838D01*
X135529197Y-128514838D02*
X135576816Y-128562457D01*
X135576816Y-128562457D02*
X135624435Y-128514838D01*
X135624435Y-128514838D02*
X135576816Y-128467219D01*
X135576816Y-128467219D02*
X135576816Y-128562457D01*
X136053006Y-128800552D02*
X136053006Y-129467219D01*
X136053006Y-128895790D02*
X136100625Y-128848171D01*
X136100625Y-128848171D02*
X136195863Y-128800552D01*
X136195863Y-128800552D02*
X136338720Y-128800552D01*
X136338720Y-128800552D02*
X136433958Y-128848171D01*
X136433958Y-128848171D02*
X136481577Y-128943409D01*
X136481577Y-128943409D02*
X136481577Y-129467219D01*
X138005387Y-129848171D02*
X137957768Y-129800552D01*
X137957768Y-129800552D02*
X137862530Y-129657695D01*
X137862530Y-129657695D02*
X137814911Y-129562457D01*
X137814911Y-129562457D02*
X137767292Y-129419600D01*
X137767292Y-129419600D02*
X137719673Y-129181504D01*
X137719673Y-129181504D02*
X137719673Y-128991028D01*
X137719673Y-128991028D02*
X137767292Y-128752933D01*
X137767292Y-128752933D02*
X137814911Y-128610076D01*
X137814911Y-128610076D02*
X137862530Y-128514838D01*
X137862530Y-128514838D02*
X137957768Y-128371980D01*
X137957768Y-128371980D02*
X138005387Y-128324361D01*
X138814911Y-128467219D02*
X138624435Y-128467219D01*
X138624435Y-128467219D02*
X138529197Y-128514838D01*
X138529197Y-128514838D02*
X138481578Y-128562457D01*
X138481578Y-128562457D02*
X138386340Y-128705314D01*
X138386340Y-128705314D02*
X138338721Y-128895790D01*
X138338721Y-128895790D02*
X138338721Y-129276742D01*
X138338721Y-129276742D02*
X138386340Y-129371980D01*
X138386340Y-129371980D02*
X138433959Y-129419600D01*
X138433959Y-129419600D02*
X138529197Y-129467219D01*
X138529197Y-129467219D02*
X138719673Y-129467219D01*
X138719673Y-129467219D02*
X138814911Y-129419600D01*
X138814911Y-129419600D02*
X138862530Y-129371980D01*
X138862530Y-129371980D02*
X138910149Y-129276742D01*
X138910149Y-129276742D02*
X138910149Y-129038647D01*
X138910149Y-129038647D02*
X138862530Y-128943409D01*
X138862530Y-128943409D02*
X138814911Y-128895790D01*
X138814911Y-128895790D02*
X138719673Y-128848171D01*
X138719673Y-128848171D02*
X138529197Y-128848171D01*
X138529197Y-128848171D02*
X138433959Y-128895790D01*
X138433959Y-128895790D02*
X138386340Y-128943409D01*
X138386340Y-128943409D02*
X138338721Y-129038647D01*
X139338721Y-129086266D02*
X140100626Y-129086266D01*
X141100625Y-129467219D02*
X140529197Y-129467219D01*
X140814911Y-129467219D02*
X140814911Y-128467219D01*
X140814911Y-128467219D02*
X140719673Y-128610076D01*
X140719673Y-128610076D02*
X140624435Y-128705314D01*
X140624435Y-128705314D02*
X140529197Y-128752933D01*
X141481578Y-128562457D02*
X141529197Y-128514838D01*
X141529197Y-128514838D02*
X141624435Y-128467219D01*
X141624435Y-128467219D02*
X141862530Y-128467219D01*
X141862530Y-128467219D02*
X141957768Y-128514838D01*
X141957768Y-128514838D02*
X142005387Y-128562457D01*
X142005387Y-128562457D02*
X142053006Y-128657695D01*
X142053006Y-128657695D02*
X142053006Y-128752933D01*
X142053006Y-128752933D02*
X142005387Y-128895790D01*
X142005387Y-128895790D02*
X141433959Y-129467219D01*
X141433959Y-129467219D02*
X142053006Y-129467219D01*
X142338721Y-128467219D02*
X142672054Y-129467219D01*
X142672054Y-129467219D02*
X143005387Y-128467219D01*
X144053007Y-129181504D02*
X144529197Y-129181504D01*
X143957769Y-129467219D02*
X144291102Y-128467219D01*
X144291102Y-128467219D02*
X144624435Y-129467219D01*
X145529197Y-129371980D02*
X145481578Y-129419600D01*
X145481578Y-129419600D02*
X145338721Y-129467219D01*
X145338721Y-129467219D02*
X145243483Y-129467219D01*
X145243483Y-129467219D02*
X145100626Y-129419600D01*
X145100626Y-129419600D02*
X145005388Y-129324361D01*
X145005388Y-129324361D02*
X144957769Y-129229123D01*
X144957769Y-129229123D02*
X144910150Y-129038647D01*
X144910150Y-129038647D02*
X144910150Y-128895790D01*
X144910150Y-128895790D02*
X144957769Y-128705314D01*
X144957769Y-128705314D02*
X145005388Y-128610076D01*
X145005388Y-128610076D02*
X145100626Y-128514838D01*
X145100626Y-128514838D02*
X145243483Y-128467219D01*
X145243483Y-128467219D02*
X145338721Y-128467219D01*
X145338721Y-128467219D02*
X145481578Y-128514838D01*
X145481578Y-128514838D02*
X145529197Y-128562457D01*
X145862531Y-129848171D02*
X145910150Y-129800552D01*
X145910150Y-129800552D02*
X146005388Y-129657695D01*
X146005388Y-129657695D02*
X146053007Y-129562457D01*
X146053007Y-129562457D02*
X146100626Y-129419600D01*
X146100626Y-129419600D02*
X146148245Y-129181504D01*
X146148245Y-129181504D02*
X146148245Y-128991028D01*
X146148245Y-128991028D02*
X146100626Y-128752933D01*
X146100626Y-128752933D02*
X146053007Y-128610076D01*
X146053007Y-128610076D02*
X146005388Y-128514838D01*
X146005388Y-128514838D02*
X145910150Y-128371980D01*
X145910150Y-128371980D02*
X145862531Y-128324361D01*
D11*
X144458646Y-101122419D02*
X145077693Y-101122419D01*
X145077693Y-101122419D02*
X144744360Y-101503371D01*
X144744360Y-101503371D02*
X144887217Y-101503371D01*
X144887217Y-101503371D02*
X144982455Y-101550990D01*
X144982455Y-101550990D02*
X145030074Y-101598609D01*
X145030074Y-101598609D02*
X145077693Y-101693847D01*
X145077693Y-101693847D02*
X145077693Y-101931942D01*
X145077693Y-101931942D02*
X145030074Y-102027180D01*
X145030074Y-102027180D02*
X144982455Y-102074800D01*
X144982455Y-102074800D02*
X144887217Y-102122419D01*
X144887217Y-102122419D02*
X144601503Y-102122419D01*
X144601503Y-102122419D02*
X144506265Y-102074800D01*
X144506265Y-102074800D02*
X144458646Y-102027180D01*
X145363408Y-101122419D02*
X145696741Y-102122419D01*
X145696741Y-102122419D02*
X146030074Y-101122419D01*
X146268170Y-101122419D02*
X146887217Y-101122419D01*
X146887217Y-101122419D02*
X146553884Y-101503371D01*
X146553884Y-101503371D02*
X146696741Y-101503371D01*
X146696741Y-101503371D02*
X146791979Y-101550990D01*
X146791979Y-101550990D02*
X146839598Y-101598609D01*
X146839598Y-101598609D02*
X146887217Y-101693847D01*
X146887217Y-101693847D02*
X146887217Y-101931942D01*
X146887217Y-101931942D02*
X146839598Y-102027180D01*
X146839598Y-102027180D02*
X146791979Y-102074800D01*
X146791979Y-102074800D02*
X146696741Y-102122419D01*
X146696741Y-102122419D02*
X146411027Y-102122419D01*
X146411027Y-102122419D02*
X146315789Y-102074800D01*
X146315789Y-102074800D02*
X146268170Y-102027180D01*
D12*
X126210149Y-115417219D02*
X126400625Y-115417219D01*
X126400625Y-115417219D02*
X126495863Y-115464838D01*
X126495863Y-115464838D02*
X126591101Y-115560076D01*
X126591101Y-115560076D02*
X126638720Y-115750552D01*
X126638720Y-115750552D02*
X126638720Y-116083885D01*
X126638720Y-116083885D02*
X126591101Y-116274361D01*
X126591101Y-116274361D02*
X126495863Y-116369600D01*
X126495863Y-116369600D02*
X126400625Y-116417219D01*
X126400625Y-116417219D02*
X126210149Y-116417219D01*
X126210149Y-116417219D02*
X126114911Y-116369600D01*
X126114911Y-116369600D02*
X126019673Y-116274361D01*
X126019673Y-116274361D02*
X125972054Y-116083885D01*
X125972054Y-116083885D02*
X125972054Y-115750552D01*
X125972054Y-115750552D02*
X126019673Y-115560076D01*
X126019673Y-115560076D02*
X126114911Y-115464838D01*
X126114911Y-115464838D02*
X126210149Y-115417219D01*
X127400625Y-115893409D02*
X127067292Y-115893409D01*
X127067292Y-116417219D02*
X127067292Y-115417219D01*
X127067292Y-115417219D02*
X127543482Y-115417219D01*
X128257768Y-115893409D02*
X127924435Y-115893409D01*
X127924435Y-116417219D02*
X127924435Y-115417219D01*
X127924435Y-115417219D02*
X128400625Y-115417219D01*
D13*
X142883333Y-116259580D02*
X142835714Y-116307200D01*
X142835714Y-116307200D02*
X142692857Y-116354819D01*
X142692857Y-116354819D02*
X142597619Y-116354819D01*
X142597619Y-116354819D02*
X142454762Y-116307200D01*
X142454762Y-116307200D02*
X142359524Y-116211961D01*
X142359524Y-116211961D02*
X142311905Y-116116723D01*
X142311905Y-116116723D02*
X142264286Y-115926247D01*
X142264286Y-115926247D02*
X142264286Y-115783390D01*
X142264286Y-115783390D02*
X142311905Y-115592914D01*
X142311905Y-115592914D02*
X142359524Y-115497676D01*
X142359524Y-115497676D02*
X142454762Y-115402438D01*
X142454762Y-115402438D02*
X142597619Y-115354819D01*
X142597619Y-115354819D02*
X142692857Y-115354819D01*
X142692857Y-115354819D02*
X142835714Y-115402438D01*
X142835714Y-115402438D02*
X142883333Y-115450057D01*
X143264286Y-115450057D02*
X143311905Y-115402438D01*
X143311905Y-115402438D02*
X143407143Y-115354819D01*
X143407143Y-115354819D02*
X143645238Y-115354819D01*
X143645238Y-115354819D02*
X143740476Y-115402438D01*
X143740476Y-115402438D02*
X143788095Y-115450057D01*
X143788095Y-115450057D02*
X143835714Y-115545295D01*
X143835714Y-115545295D02*
X143835714Y-115640533D01*
X143835714Y-115640533D02*
X143788095Y-115783390D01*
X143788095Y-115783390D02*
X143216667Y-116354819D01*
X143216667Y-116354819D02*
X143835714Y-116354819D01*
X138433333Y-71654819D02*
X138100000Y-71178628D01*
X137861905Y-71654819D02*
X137861905Y-70654819D01*
X137861905Y-70654819D02*
X138242857Y-70654819D01*
X138242857Y-70654819D02*
X138338095Y-70702438D01*
X138338095Y-70702438D02*
X138385714Y-70750057D01*
X138385714Y-70750057D02*
X138433333Y-70845295D01*
X138433333Y-70845295D02*
X138433333Y-70988152D01*
X138433333Y-70988152D02*
X138385714Y-71083390D01*
X138385714Y-71083390D02*
X138338095Y-71131009D01*
X138338095Y-71131009D02*
X138242857Y-71178628D01*
X138242857Y-71178628D02*
X137861905Y-71178628D01*
X138766667Y-70654819D02*
X139385714Y-70654819D01*
X139385714Y-70654819D02*
X139052381Y-71035771D01*
X139052381Y-71035771D02*
X139195238Y-71035771D01*
X139195238Y-71035771D02*
X139290476Y-71083390D01*
X139290476Y-71083390D02*
X139338095Y-71131009D01*
X139338095Y-71131009D02*
X139385714Y-71226247D01*
X139385714Y-71226247D02*
X139385714Y-71464342D01*
X139385714Y-71464342D02*
X139338095Y-71559580D01*
X139338095Y-71559580D02*
X139290476Y-71607200D01*
X139290476Y-71607200D02*
X139195238Y-71654819D01*
X139195238Y-71654819D02*
X138909524Y-71654819D01*
X138909524Y-71654819D02*
X138814286Y-71607200D01*
X138814286Y-71607200D02*
X138766667Y-71559580D01*
X149333333Y-107454819D02*
X149000000Y-106978628D01*
X148761905Y-107454819D02*
X148761905Y-106454819D01*
X148761905Y-106454819D02*
X149142857Y-106454819D01*
X149142857Y-106454819D02*
X149238095Y-106502438D01*
X149238095Y-106502438D02*
X149285714Y-106550057D01*
X149285714Y-106550057D02*
X149333333Y-106645295D01*
X149333333Y-106645295D02*
X149333333Y-106788152D01*
X149333333Y-106788152D02*
X149285714Y-106883390D01*
X149285714Y-106883390D02*
X149238095Y-106931009D01*
X149238095Y-106931009D02*
X149142857Y-106978628D01*
X149142857Y-106978628D02*
X148761905Y-106978628D01*
X150285714Y-107454819D02*
X149714286Y-107454819D01*
X150000000Y-107454819D02*
X150000000Y-106454819D01*
X150000000Y-106454819D02*
X149904762Y-106597676D01*
X149904762Y-106597676D02*
X149809524Y-106692914D01*
X149809524Y-106692914D02*
X149714286Y-106740533D01*
X158083333Y-116359580D02*
X158035714Y-116407200D01*
X158035714Y-116407200D02*
X157892857Y-116454819D01*
X157892857Y-116454819D02*
X157797619Y-116454819D01*
X157797619Y-116454819D02*
X157654762Y-116407200D01*
X157654762Y-116407200D02*
X157559524Y-116311961D01*
X157559524Y-116311961D02*
X157511905Y-116216723D01*
X157511905Y-116216723D02*
X157464286Y-116026247D01*
X157464286Y-116026247D02*
X157464286Y-115883390D01*
X157464286Y-115883390D02*
X157511905Y-115692914D01*
X157511905Y-115692914D02*
X157559524Y-115597676D01*
X157559524Y-115597676D02*
X157654762Y-115502438D01*
X157654762Y-115502438D02*
X157797619Y-115454819D01*
X157797619Y-115454819D02*
X157892857Y-115454819D01*
X157892857Y-115454819D02*
X158035714Y-115502438D01*
X158035714Y-115502438D02*
X158083333Y-115550057D01*
X159035714Y-116454819D02*
X158464286Y-116454819D01*
X158750000Y-116454819D02*
X158750000Y-115454819D01*
X158750000Y-115454819D02*
X158654762Y-115597676D01*
X158654762Y-115597676D02*
X158559524Y-115692914D01*
X158559524Y-115692914D02*
X158464286Y-115740533D01*
X140861905Y-71654819D02*
X140861905Y-70654819D01*
X140861905Y-70654819D02*
X141100000Y-70654819D01*
X141100000Y-70654819D02*
X141242857Y-70702438D01*
X141242857Y-70702438D02*
X141338095Y-70797676D01*
X141338095Y-70797676D02*
X141385714Y-70892914D01*
X141385714Y-70892914D02*
X141433333Y-71083390D01*
X141433333Y-71083390D02*
X141433333Y-71226247D01*
X141433333Y-71226247D02*
X141385714Y-71416723D01*
X141385714Y-71416723D02*
X141338095Y-71511961D01*
X141338095Y-71511961D02*
X141242857Y-71607200D01*
X141242857Y-71607200D02*
X141100000Y-71654819D01*
X141100000Y-71654819D02*
X140861905Y-71654819D01*
X141814286Y-70750057D02*
X141861905Y-70702438D01*
X141861905Y-70702438D02*
X141957143Y-70654819D01*
X141957143Y-70654819D02*
X142195238Y-70654819D01*
X142195238Y-70654819D02*
X142290476Y-70702438D01*
X142290476Y-70702438D02*
X142338095Y-70750057D01*
X142338095Y-70750057D02*
X142385714Y-70845295D01*
X142385714Y-70845295D02*
X142385714Y-70940533D01*
X142385714Y-70940533D02*
X142338095Y-71083390D01*
X142338095Y-71083390D02*
X141766667Y-71654819D01*
X141766667Y-71654819D02*
X142385714Y-71654819D01*
X139833333Y-87859580D02*
X139785714Y-87907200D01*
X139785714Y-87907200D02*
X139642857Y-87954819D01*
X139642857Y-87954819D02*
X139547619Y-87954819D01*
X139547619Y-87954819D02*
X139404762Y-87907200D01*
X139404762Y-87907200D02*
X139309524Y-87811961D01*
X139309524Y-87811961D02*
X139261905Y-87716723D01*
X139261905Y-87716723D02*
X139214286Y-87526247D01*
X139214286Y-87526247D02*
X139214286Y-87383390D01*
X139214286Y-87383390D02*
X139261905Y-87192914D01*
X139261905Y-87192914D02*
X139309524Y-87097676D01*
X139309524Y-87097676D02*
X139404762Y-87002438D01*
X139404762Y-87002438D02*
X139547619Y-86954819D01*
X139547619Y-86954819D02*
X139642857Y-86954819D01*
X139642857Y-86954819D02*
X139785714Y-87002438D01*
X139785714Y-87002438D02*
X139833333Y-87050057D01*
X140166667Y-86954819D02*
X140785714Y-86954819D01*
X140785714Y-86954819D02*
X140452381Y-87335771D01*
X140452381Y-87335771D02*
X140595238Y-87335771D01*
X140595238Y-87335771D02*
X140690476Y-87383390D01*
X140690476Y-87383390D02*
X140738095Y-87431009D01*
X140738095Y-87431009D02*
X140785714Y-87526247D01*
X140785714Y-87526247D02*
X140785714Y-87764342D01*
X140785714Y-87764342D02*
X140738095Y-87859580D01*
X140738095Y-87859580D02*
X140690476Y-87907200D01*
X140690476Y-87907200D02*
X140595238Y-87954819D01*
X140595238Y-87954819D02*
X140309524Y-87954819D01*
X140309524Y-87954819D02*
X140214286Y-87907200D01*
X140214286Y-87907200D02*
X140166667Y-87859580D01*
X129466667Y-120107200D02*
X129609524Y-120154819D01*
X129609524Y-120154819D02*
X129847619Y-120154819D01*
X129847619Y-120154819D02*
X129942857Y-120107200D01*
X129942857Y-120107200D02*
X129990476Y-120059580D01*
X129990476Y-120059580D02*
X130038095Y-119964342D01*
X130038095Y-119964342D02*
X130038095Y-119869104D01*
X130038095Y-119869104D02*
X129990476Y-119773866D01*
X129990476Y-119773866D02*
X129942857Y-119726247D01*
X129942857Y-119726247D02*
X129847619Y-119678628D01*
X129847619Y-119678628D02*
X129657143Y-119631009D01*
X129657143Y-119631009D02*
X129561905Y-119583390D01*
X129561905Y-119583390D02*
X129514286Y-119535771D01*
X129514286Y-119535771D02*
X129466667Y-119440533D01*
X129466667Y-119440533D02*
X129466667Y-119345295D01*
X129466667Y-119345295D02*
X129514286Y-119250057D01*
X129514286Y-119250057D02*
X129561905Y-119202438D01*
X129561905Y-119202438D02*
X129657143Y-119154819D01*
X129657143Y-119154819D02*
X129895238Y-119154819D01*
X129895238Y-119154819D02*
X130038095Y-119202438D01*
X130371429Y-119154819D02*
X130609524Y-120154819D01*
X130609524Y-120154819D02*
X130800000Y-119440533D01*
X130800000Y-119440533D02*
X130990476Y-120154819D01*
X130990476Y-120154819D02*
X131228572Y-119154819D01*
X132133333Y-120154819D02*
X131561905Y-120154819D01*
X131847619Y-120154819D02*
X131847619Y-119154819D01*
X131847619Y-119154819D02*
X131752381Y-119297676D01*
X131752381Y-119297676D02*
X131657143Y-119392914D01*
X131657143Y-119392914D02*
X131561905Y-119440533D01*
X138104819Y-102288094D02*
X137104819Y-102288094D01*
X137104819Y-102288094D02*
X137104819Y-102049999D01*
X137104819Y-102049999D02*
X137152438Y-101907142D01*
X137152438Y-101907142D02*
X137247676Y-101811904D01*
X137247676Y-101811904D02*
X137342914Y-101764285D01*
X137342914Y-101764285D02*
X137533390Y-101716666D01*
X137533390Y-101716666D02*
X137676247Y-101716666D01*
X137676247Y-101716666D02*
X137866723Y-101764285D01*
X137866723Y-101764285D02*
X137961961Y-101811904D01*
X137961961Y-101811904D02*
X138057200Y-101907142D01*
X138057200Y-101907142D02*
X138104819Y-102049999D01*
X138104819Y-102049999D02*
X138104819Y-102288094D01*
X138104819Y-100764285D02*
X138104819Y-101335713D01*
X138104819Y-101049999D02*
X137104819Y-101049999D01*
X137104819Y-101049999D02*
X137247676Y-101145237D01*
X137247676Y-101145237D02*
X137342914Y-101240475D01*
X137342914Y-101240475D02*
X137390533Y-101335713D01*
X148988095Y-120454819D02*
X148988095Y-121264342D01*
X148988095Y-121264342D02*
X149035714Y-121359580D01*
X149035714Y-121359580D02*
X149083333Y-121407200D01*
X149083333Y-121407200D02*
X149178571Y-121454819D01*
X149178571Y-121454819D02*
X149369047Y-121454819D01*
X149369047Y-121454819D02*
X149464285Y-121407200D01*
X149464285Y-121407200D02*
X149511904Y-121359580D01*
X149511904Y-121359580D02*
X149559523Y-121264342D01*
X149559523Y-121264342D02*
X149559523Y-120454819D01*
X150559523Y-121454819D02*
X149988095Y-121454819D01*
X150273809Y-121454819D02*
X150273809Y-120454819D01*
X150273809Y-120454819D02*
X150178571Y-120597676D01*
X150178571Y-120597676D02*
X150083333Y-120692914D01*
X150083333Y-120692914D02*
X149988095Y-120740533D01*
X140166666Y-118454819D02*
X140166666Y-119169104D01*
X140166666Y-119169104D02*
X140119047Y-119311961D01*
X140119047Y-119311961D02*
X140023809Y-119407200D01*
X140023809Y-119407200D02*
X139880952Y-119454819D01*
X139880952Y-119454819D02*
X139785714Y-119454819D01*
X141166666Y-119454819D02*
X140595238Y-119454819D01*
X140880952Y-119454819D02*
X140880952Y-118454819D01*
X140880952Y-118454819D02*
X140785714Y-118597676D01*
X140785714Y-118597676D02*
X140690476Y-118692914D01*
X140690476Y-118692914D02*
X140595238Y-118740533D01*
X159166666Y-118454819D02*
X159166666Y-119169104D01*
X159166666Y-119169104D02*
X159119047Y-119311961D01*
X159119047Y-119311961D02*
X159023809Y-119407200D01*
X159023809Y-119407200D02*
X158880952Y-119454819D01*
X158880952Y-119454819D02*
X158785714Y-119454819D01*
X159595238Y-118550057D02*
X159642857Y-118502438D01*
X159642857Y-118502438D02*
X159738095Y-118454819D01*
X159738095Y-118454819D02*
X159976190Y-118454819D01*
X159976190Y-118454819D02*
X160071428Y-118502438D01*
X160071428Y-118502438D02*
X160119047Y-118550057D01*
X160119047Y-118550057D02*
X160166666Y-118645295D01*
X160166666Y-118645295D02*
X160166666Y-118740533D01*
X160166666Y-118740533D02*
X160119047Y-118883390D01*
X160119047Y-118883390D02*
X159547619Y-119454819D01*
X159547619Y-119454819D02*
X160166666Y-119454819D01*
X127609580Y-81416666D02*
X127657200Y-81464285D01*
X127657200Y-81464285D02*
X127704819Y-81607142D01*
X127704819Y-81607142D02*
X127704819Y-81702380D01*
X127704819Y-81702380D02*
X127657200Y-81845237D01*
X127657200Y-81845237D02*
X127561961Y-81940475D01*
X127561961Y-81940475D02*
X127466723Y-81988094D01*
X127466723Y-81988094D02*
X127276247Y-82035713D01*
X127276247Y-82035713D02*
X127133390Y-82035713D01*
X127133390Y-82035713D02*
X126942914Y-81988094D01*
X126942914Y-81988094D02*
X126847676Y-81940475D01*
X126847676Y-81940475D02*
X126752438Y-81845237D01*
X126752438Y-81845237D02*
X126704819Y-81702380D01*
X126704819Y-81702380D02*
X126704819Y-81607142D01*
X126704819Y-81607142D02*
X126752438Y-81464285D01*
X126752438Y-81464285D02*
X126800057Y-81416666D01*
X127038152Y-80559523D02*
X127704819Y-80559523D01*
X126657200Y-80797618D02*
X127371485Y-81035713D01*
X127371485Y-81035713D02*
X127371485Y-80416666D01*
X136109580Y-81416666D02*
X136157200Y-81464285D01*
X136157200Y-81464285D02*
X136204819Y-81607142D01*
X136204819Y-81607142D02*
X136204819Y-81702380D01*
X136204819Y-81702380D02*
X136157200Y-81845237D01*
X136157200Y-81845237D02*
X136061961Y-81940475D01*
X136061961Y-81940475D02*
X135966723Y-81988094D01*
X135966723Y-81988094D02*
X135776247Y-82035713D01*
X135776247Y-82035713D02*
X135633390Y-82035713D01*
X135633390Y-82035713D02*
X135442914Y-81988094D01*
X135442914Y-81988094D02*
X135347676Y-81940475D01*
X135347676Y-81940475D02*
X135252438Y-81845237D01*
X135252438Y-81845237D02*
X135204819Y-81702380D01*
X135204819Y-81702380D02*
X135204819Y-81607142D01*
X135204819Y-81607142D02*
X135252438Y-81464285D01*
X135252438Y-81464285D02*
X135300057Y-81416666D01*
X135204819Y-80511904D02*
X135204819Y-80988094D01*
X135204819Y-80988094D02*
X135681009Y-81035713D01*
X135681009Y-81035713D02*
X135633390Y-80988094D01*
X135633390Y-80988094D02*
X135585771Y-80892856D01*
X135585771Y-80892856D02*
X135585771Y-80654761D01*
X135585771Y-80654761D02*
X135633390Y-80559523D01*
X135633390Y-80559523D02*
X135681009Y-80511904D01*
X135681009Y-80511904D02*
X135776247Y-80464285D01*
X135776247Y-80464285D02*
X136014342Y-80464285D01*
X136014342Y-80464285D02*
X136109580Y-80511904D01*
X136109580Y-80511904D02*
X136157200Y-80559523D01*
X136157200Y-80559523D02*
X136204819Y-80654761D01*
X136204819Y-80654761D02*
X136204819Y-80892856D01*
X136204819Y-80892856D02*
X136157200Y-80988094D01*
X136157200Y-80988094D02*
X136109580Y-81035713D01*
X126454819Y-75511904D02*
X127264342Y-75511904D01*
X127264342Y-75511904D02*
X127359580Y-75464285D01*
X127359580Y-75464285D02*
X127407200Y-75416666D01*
X127407200Y-75416666D02*
X127454819Y-75321428D01*
X127454819Y-75321428D02*
X127454819Y-75130952D01*
X127454819Y-75130952D02*
X127407200Y-75035714D01*
X127407200Y-75035714D02*
X127359580Y-74988095D01*
X127359580Y-74988095D02*
X127264342Y-74940476D01*
X127264342Y-74940476D02*
X126454819Y-74940476D01*
X126550057Y-74511904D02*
X126502438Y-74464285D01*
X126502438Y-74464285D02*
X126454819Y-74369047D01*
X126454819Y-74369047D02*
X126454819Y-74130952D01*
X126454819Y-74130952D02*
X126502438Y-74035714D01*
X126502438Y-74035714D02*
X126550057Y-73988095D01*
X126550057Y-73988095D02*
X126645295Y-73940476D01*
X126645295Y-73940476D02*
X126740533Y-73940476D01*
X126740533Y-73940476D02*
X126883390Y-73988095D01*
X126883390Y-73988095D02*
X127454819Y-74559523D01*
X127454819Y-74559523D02*
X127454819Y-73940476D01*
X141516666Y-96224819D02*
X141516666Y-96939104D01*
X141516666Y-96939104D02*
X141469047Y-97081961D01*
X141469047Y-97081961D02*
X141373809Y-97177200D01*
X141373809Y-97177200D02*
X141230952Y-97224819D01*
X141230952Y-97224819D02*
X141135714Y-97224819D01*
X141897619Y-96224819D02*
X142516666Y-96224819D01*
X142516666Y-96224819D02*
X142183333Y-96605771D01*
X142183333Y-96605771D02*
X142326190Y-96605771D01*
X142326190Y-96605771D02*
X142421428Y-96653390D01*
X142421428Y-96653390D02*
X142469047Y-96701009D01*
X142469047Y-96701009D02*
X142516666Y-96796247D01*
X142516666Y-96796247D02*
X142516666Y-97034342D01*
X142516666Y-97034342D02*
X142469047Y-97129580D01*
X142469047Y-97129580D02*
X142421428Y-97177200D01*
X142421428Y-97177200D02*
X142326190Y-97224819D01*
X142326190Y-97224819D02*
X142040476Y-97224819D01*
X142040476Y-97224819D02*
X141945238Y-97177200D01*
X141945238Y-97177200D02*
X141897619Y-97129580D01*
D11*
X159838095Y-68307419D02*
X159838095Y-69116942D01*
X159838095Y-69116942D02*
X159885714Y-69212180D01*
X159885714Y-69212180D02*
X159933333Y-69259800D01*
X159933333Y-69259800D02*
X160028571Y-69307419D01*
X160028571Y-69307419D02*
X160219047Y-69307419D01*
X160219047Y-69307419D02*
X160314285Y-69259800D01*
X160314285Y-69259800D02*
X160361904Y-69212180D01*
X160361904Y-69212180D02*
X160409523Y-69116942D01*
X160409523Y-69116942D02*
X160409523Y-68307419D01*
X160790476Y-68307419D02*
X161409523Y-68307419D01*
X161409523Y-68307419D02*
X161076190Y-68688371D01*
X161076190Y-68688371D02*
X161219047Y-68688371D01*
X161219047Y-68688371D02*
X161314285Y-68735990D01*
X161314285Y-68735990D02*
X161361904Y-68783609D01*
X161361904Y-68783609D02*
X161409523Y-68878847D01*
X161409523Y-68878847D02*
X161409523Y-69116942D01*
X161409523Y-69116942D02*
X161361904Y-69212180D01*
X161361904Y-69212180D02*
X161314285Y-69259800D01*
X161314285Y-69259800D02*
X161219047Y-69307419D01*
X161219047Y-69307419D02*
X160933333Y-69307419D01*
X160933333Y-69307419D02*
X160838095Y-69259800D01*
X160838095Y-69259800D02*
X160790476Y-69212180D01*
D13*
X151933333Y-107454819D02*
X151600000Y-106978628D01*
X151361905Y-107454819D02*
X151361905Y-106454819D01*
X151361905Y-106454819D02*
X151742857Y-106454819D01*
X151742857Y-106454819D02*
X151838095Y-106502438D01*
X151838095Y-106502438D02*
X151885714Y-106550057D01*
X151885714Y-106550057D02*
X151933333Y-106645295D01*
X151933333Y-106645295D02*
X151933333Y-106788152D01*
X151933333Y-106788152D02*
X151885714Y-106883390D01*
X151885714Y-106883390D02*
X151838095Y-106931009D01*
X151838095Y-106931009D02*
X151742857Y-106978628D01*
X151742857Y-106978628D02*
X151361905Y-106978628D01*
X152314286Y-106550057D02*
X152361905Y-106502438D01*
X152361905Y-106502438D02*
X152457143Y-106454819D01*
X152457143Y-106454819D02*
X152695238Y-106454819D01*
X152695238Y-106454819D02*
X152790476Y-106502438D01*
X152790476Y-106502438D02*
X152838095Y-106550057D01*
X152838095Y-106550057D02*
X152885714Y-106645295D01*
X152885714Y-106645295D02*
X152885714Y-106740533D01*
X152885714Y-106740533D02*
X152838095Y-106883390D01*
X152838095Y-106883390D02*
X152266667Y-107454819D01*
X152266667Y-107454819D02*
X152885714Y-107454819D01*
X142888095Y-108154819D02*
X143459523Y-108154819D01*
X143173809Y-109154819D02*
X143173809Y-108154819D01*
X143792857Y-109154819D02*
X143792857Y-108154819D01*
X143792857Y-108154819D02*
X144173809Y-108154819D01*
X144173809Y-108154819D02*
X144269047Y-108202438D01*
X144269047Y-108202438D02*
X144316666Y-108250057D01*
X144316666Y-108250057D02*
X144364285Y-108345295D01*
X144364285Y-108345295D02*
X144364285Y-108488152D01*
X144364285Y-108488152D02*
X144316666Y-108583390D01*
X144316666Y-108583390D02*
X144269047Y-108631009D01*
X144269047Y-108631009D02*
X144173809Y-108678628D01*
X144173809Y-108678628D02*
X143792857Y-108678628D01*
X145316666Y-109154819D02*
X144745238Y-109154819D01*
X145030952Y-109154819D02*
X145030952Y-108154819D01*
X145030952Y-108154819D02*
X144935714Y-108297676D01*
X144935714Y-108297676D02*
X144840476Y-108392914D01*
X144840476Y-108392914D02*
X144745238Y-108440533D01*
X139661905Y-77054819D02*
X139661905Y-76054819D01*
X139661905Y-76054819D02*
X139900000Y-76054819D01*
X139900000Y-76054819D02*
X140042857Y-76102438D01*
X140042857Y-76102438D02*
X140138095Y-76197676D01*
X140138095Y-76197676D02*
X140185714Y-76292914D01*
X140185714Y-76292914D02*
X140233333Y-76483390D01*
X140233333Y-76483390D02*
X140233333Y-76626247D01*
X140233333Y-76626247D02*
X140185714Y-76816723D01*
X140185714Y-76816723D02*
X140138095Y-76911961D01*
X140138095Y-76911961D02*
X140042857Y-77007200D01*
X140042857Y-77007200D02*
X139900000Y-77054819D01*
X139900000Y-77054819D02*
X139661905Y-77054819D01*
X140566667Y-76054819D02*
X141185714Y-76054819D01*
X141185714Y-76054819D02*
X140852381Y-76435771D01*
X140852381Y-76435771D02*
X140995238Y-76435771D01*
X140995238Y-76435771D02*
X141090476Y-76483390D01*
X141090476Y-76483390D02*
X141138095Y-76531009D01*
X141138095Y-76531009D02*
X141185714Y-76626247D01*
X141185714Y-76626247D02*
X141185714Y-76864342D01*
X141185714Y-76864342D02*
X141138095Y-76959580D01*
X141138095Y-76959580D02*
X141090476Y-77007200D01*
X141090476Y-77007200D02*
X140995238Y-77054819D01*
X140995238Y-77054819D02*
X140709524Y-77054819D01*
X140709524Y-77054819D02*
X140614286Y-77007200D01*
X140614286Y-77007200D02*
X140566667Y-76959580D01*
D14*
%TO.C,C2*%
X144515000Y-115261252D02*
X144515000Y-114738748D01*
X145985000Y-115261252D02*
X145985000Y-114738748D01*
%TO.C,R3*%
X137815000Y-73572936D02*
X137815000Y-74027064D01*
X139285000Y-73572936D02*
X139285000Y-74027064D01*
%TO.C,R1*%
X148765000Y-109889564D02*
X148765000Y-109435436D01*
X150235000Y-109889564D02*
X150235000Y-109435436D01*
%TO.C,C1*%
X154738748Y-115265000D02*
X155261252Y-115265000D01*
X154738748Y-116735000D02*
X155261252Y-116735000D01*
%TO.C,D2*%
X140590000Y-72775000D02*
X140590000Y-75635000D01*
X140590000Y-75635000D02*
X142510000Y-75635000D01*
X142510000Y-75635000D02*
X142510000Y-72775000D01*
%TO.C,C3*%
X127840000Y-84640000D02*
X127840000Y-88490000D01*
X127840000Y-95360000D02*
X127840000Y-91510000D01*
X137495563Y-84640000D02*
X127840000Y-84640000D01*
X137495563Y-95360000D02*
X127840000Y-95360000D01*
X138560000Y-85704437D02*
X137495563Y-84640000D01*
X138560000Y-85704437D02*
X138560000Y-88490000D01*
X138560000Y-94295563D02*
X137495563Y-95360000D01*
X138560000Y-94295563D02*
X138560000Y-91510000D01*
X139425000Y-93385000D02*
X139425000Y-92135000D01*
X140050000Y-92760000D02*
X138800000Y-92760000D01*
D15*
%TO.C,SW1*%
X131050000Y-110170000D02*
X131070000Y-108930000D01*
X131050000Y-112670000D02*
X131050000Y-111830000D01*
X131050000Y-115170000D02*
X131050000Y-114330000D01*
X131050000Y-118100000D02*
X131050000Y-116830000D01*
X131050000Y-118100000D02*
X134630000Y-118100000D01*
X131580000Y-110450000D02*
X134120000Y-110450000D01*
X131580000Y-116550000D02*
X131580000Y-110450000D01*
X132340000Y-115020000D02*
X133360000Y-115020000D01*
X132340000Y-116040000D02*
X132340000Y-115020000D01*
X133360000Y-115020000D02*
X133360000Y-116040000D01*
X133360000Y-116040000D02*
X132340000Y-116040000D01*
X134120000Y-110450000D02*
X134120000Y-116550000D01*
X134120000Y-116550000D02*
X131580000Y-116550000D01*
X134630000Y-108930000D02*
X131050000Y-108930000D01*
X134630000Y-108930000D02*
X134630000Y-110180000D01*
X134630000Y-111820000D02*
X134630000Y-112680000D01*
X134630000Y-114320000D02*
X134630000Y-115180000D01*
X134630000Y-116820000D02*
X134630000Y-118100000D01*
D14*
%TO.C,D1*%
X128300000Y-98265000D02*
X128300000Y-104835000D01*
X128300000Y-104835000D02*
X129090000Y-104835000D01*
X129090000Y-98265000D02*
X128300000Y-98265000D01*
X134190000Y-98265000D02*
X130910000Y-98265000D01*
X134190000Y-104835000D02*
X130910000Y-104835000D01*
X136010000Y-104835000D02*
X136800000Y-104835000D01*
X136800000Y-98265000D02*
X136010000Y-98265000D01*
X136800000Y-98275000D02*
X136800000Y-104825000D01*
X136290000Y-97337500D02*
X136010000Y-97337500D01*
X136010000Y-97057500D01*
X136290000Y-97337500D01*
G36*
X136290000Y-97337500D02*
G01*
X136010000Y-97337500D01*
X136010000Y-97057500D01*
X136290000Y-97337500D01*
G37*
%TO.C,U1*%
X147440000Y-116000000D02*
X147440000Y-114050000D01*
X147440000Y-116000000D02*
X147440000Y-117950000D01*
X152560000Y-116000000D02*
X152560000Y-114050000D01*
X152560000Y-116000000D02*
X152560000Y-117950000D01*
X147535000Y-118700000D02*
X147205000Y-118940000D01*
X147205000Y-118460000D01*
X147535000Y-118700000D01*
G36*
X147535000Y-118700000D02*
G01*
X147205000Y-118940000D01*
X147205000Y-118460000D01*
X147535000Y-118700000D01*
G37*
D15*
%TO.C,J1*%
X135500000Y-120000000D02*
X135500000Y-127700000D01*
X135500000Y-120000000D02*
X145500000Y-120000000D01*
X135500000Y-121800000D02*
X145500000Y-121800000D01*
X135500000Y-125840000D02*
X145500000Y-125840000D01*
X135500000Y-127700000D02*
X145500000Y-127700000D01*
X145500000Y-120000000D02*
X145500000Y-127700000D01*
X145580000Y-121330000D02*
X146210000Y-121330000D01*
X146210000Y-121330000D02*
X146210000Y-122370000D01*
X146210000Y-122370000D02*
X145580000Y-122370000D01*
%TO.C,J2*%
X154500000Y-120000000D02*
X154500000Y-127700000D01*
X154500000Y-120000000D02*
X164500000Y-120000000D01*
X154500000Y-121800000D02*
X164500000Y-121800000D01*
X154500000Y-125840000D02*
X164500000Y-125840000D01*
X154500000Y-127700000D02*
X164500000Y-127700000D01*
X164500000Y-120000000D02*
X164500000Y-127700000D01*
X164580000Y-121330000D02*
X165210000Y-121330000D01*
X165210000Y-121330000D02*
X165210000Y-122370000D01*
X165210000Y-122370000D02*
X164580000Y-122370000D01*
D14*
%TO.C,C4*%
X128515000Y-81988748D02*
X128515000Y-82511252D01*
X129985000Y-81988748D02*
X129985000Y-82511252D01*
%TO.C,C5*%
X133015000Y-81776248D02*
X133015000Y-82298752D01*
X134485000Y-81776248D02*
X134485000Y-82298752D01*
%TO.C,U2*%
X128075000Y-70475000D02*
X128075000Y-76895000D01*
X128075000Y-76895000D02*
X128345000Y-76895000D01*
X134975000Y-70475000D02*
X134975000Y-76895000D01*
X134975000Y-76895000D02*
X134705000Y-76895000D01*
X128385000Y-78625000D02*
X127915000Y-78965000D01*
X127915000Y-78285000D01*
X128385000Y-78625000D01*
G36*
X128385000Y-78625000D02*
G01*
X127915000Y-78965000D01*
X127915000Y-78285000D01*
X128385000Y-78625000D01*
G37*
%TO.C,J3*%
X140470000Y-97770000D02*
X141850000Y-97770000D01*
X140470000Y-99150000D02*
X140470000Y-97770000D01*
X140470000Y-100420000D02*
X140470000Y-105610000D01*
X140470000Y-100420000D02*
X143230000Y-100420000D01*
X140470000Y-105610000D02*
X143230000Y-105610000D01*
X143230000Y-100420000D02*
X143230000Y-105610000D01*
D11*
%TO.C,U3*%
X151900000Y-71980000D02*
X151900000Y-72730000D01*
X151900000Y-71980000D02*
X156500000Y-71980000D01*
X152000000Y-95505000D02*
X152000000Y-94755000D01*
X152000000Y-95505000D02*
X165300000Y-95480000D01*
X169800000Y-72005000D02*
X165200000Y-72005000D01*
X169800000Y-72005000D02*
X169800000Y-72755000D01*
X169900000Y-95480000D02*
X165300000Y-95480000D01*
X169900000Y-95480000D02*
X169900000Y-94730000D01*
X156580000Y-70580000D02*
X165080000Y-70580000D01*
X165080000Y-77580000D01*
X156580000Y-77580000D01*
X156580000Y-70580000D01*
D14*
%TO.C,R2*%
X151515000Y-109435436D02*
X151515000Y-109889564D01*
X152985000Y-109435436D02*
X152985000Y-109889564D01*
%TO.C,TP1*%
X145850000Y-107700000D02*
X147750000Y-107700000D01*
X145850000Y-109600000D02*
X145850000Y-107700000D01*
X147750000Y-107700000D02*
X147750000Y-109600000D01*
X147750000Y-109600000D02*
X145850000Y-109600000D01*
%TO.C,D3*%
X142510000Y-77600000D02*
X138500000Y-77600000D01*
X142510000Y-79600000D02*
X138500000Y-79600000D01*
X142510000Y-79600000D02*
X142510000Y-77600000D01*
%TD*%
%LPC*%
D16*
%TO.C,C2*%
X145250000Y-116037500D03*
X145250000Y-113962500D03*
%TD*%
D17*
%TO.C,R3*%
X138550000Y-72800000D03*
X138550000Y-74800000D03*
%TD*%
D18*
%TO.C,H2*%
X170000000Y-60000000D03*
%TD*%
D19*
%TO.C,R1*%
X149500000Y-110662500D03*
X149500000Y-108662500D03*
%TD*%
D20*
%TO.C,C1*%
X153962500Y-116000000D03*
X156037500Y-116000000D03*
%TD*%
D21*
%TO.C,D2*%
X141550000Y-74800000D03*
X141550000Y-72750000D03*
%TD*%
D22*
%TO.C,C3*%
X137400000Y-90000000D03*
X129000000Y-90000000D03*
%TD*%
D23*
%TO.C,SW1*%
X130000000Y-116000000D03*
X130000000Y-113500000D03*
X130000000Y-111000000D03*
X135700000Y-116000000D03*
X135700000Y-113500000D03*
X135700000Y-111000000D03*
%TD*%
D18*
%TO.C,H1*%
X130000000Y-60000000D03*
%TD*%
%TO.C,H4*%
X130000000Y-124000000D03*
%TD*%
D24*
%TO.C,D1*%
X135100000Y-97100000D03*
X130000000Y-97100000D03*
X130000000Y-106000000D03*
X135100000Y-106000000D03*
%TD*%
D25*
%TO.C,U1*%
X148095000Y-118475000D03*
X149365000Y-118475000D03*
X150635000Y-118475000D03*
X151905000Y-118475000D03*
X151905000Y-113525000D03*
X150635000Y-113525000D03*
X149365000Y-113525000D03*
X148095000Y-113525000D03*
%TD*%
D26*
%TO.C,J1*%
X138000000Y-124000000D03*
X143000000Y-124000000D03*
%TD*%
D18*
%TO.C,H3*%
X170000000Y-124000000D03*
%TD*%
D26*
%TO.C,J2*%
X157000000Y-124000000D03*
X162000000Y-124000000D03*
%TD*%
D27*
%TO.C,C4*%
X129250000Y-81212500D03*
X129250000Y-83287500D03*
%TD*%
%TO.C,C5*%
X133750000Y-81000000D03*
X133750000Y-83075000D03*
%TD*%
D28*
%TO.C,U2*%
X129245000Y-78625000D03*
D29*
X131525000Y-72325000D03*
D28*
X133805000Y-78625000D03*
%TD*%
D30*
%TO.C,J3*%
X141850000Y-99150000D03*
D31*
X141850000Y-101690000D03*
X141850000Y-104230000D03*
%TD*%
D32*
%TO.C,U3*%
X151400000Y-73580000D03*
D33*
X153210000Y-73580000D03*
D32*
X151400000Y-76120000D03*
D33*
X153210000Y-76120000D03*
D32*
X151400000Y-78660000D03*
D33*
X153210000Y-78660000D03*
D32*
X151400000Y-81200000D03*
D33*
X153210000Y-81200000D03*
D32*
X151400000Y-83740000D03*
D33*
X153210000Y-83740000D03*
D32*
X151400000Y-86280000D03*
D33*
X153210000Y-86280000D03*
D32*
X151400000Y-88820000D03*
D33*
X153210000Y-88820000D03*
D32*
X151400000Y-91360000D03*
D33*
X153210000Y-91360000D03*
D32*
X151400000Y-93900000D03*
D33*
X153210000Y-93900000D03*
X168450000Y-93900000D03*
D34*
X170260000Y-93900000D03*
D33*
X168450000Y-91360000D03*
D34*
X170260000Y-91360000D03*
D33*
X168450000Y-88820000D03*
D34*
X170260000Y-88820000D03*
D33*
X168450000Y-86280000D03*
D34*
X170260000Y-86280000D03*
D33*
X168450000Y-83740000D03*
D34*
X170260000Y-83740000D03*
D33*
X168450000Y-81200000D03*
D34*
X170260000Y-81200000D03*
D33*
X168450000Y-78660000D03*
D34*
X170260000Y-78660000D03*
D33*
X168450000Y-76120000D03*
D34*
X170260000Y-76120000D03*
D33*
X168450000Y-73580000D03*
D34*
X170260000Y-73580000D03*
%TD*%
D17*
%TO.C,R2*%
X152250000Y-108662500D03*
X152250000Y-110662500D03*
%TD*%
D35*
%TO.C,TP1*%
X146800000Y-108650000D03*
%TD*%
D36*
%TO.C,D3*%
X141800000Y-78600000D03*
X138500000Y-78600000D03*
%TD*%
%LPD*%
M02*
