M48
; DRILL file {KiCad 9.0.2} date 2025-07-25T15:36:06+0100
; FORMAT={-:-/ absolute / inch / decimal}
; #@! TF.CreationDate,2025-07-25T15:36:06+01:00
; #@! TF.GenerationSoftware,Kicad,Pcbnew,9.0.2
; #@! TF.FileFunction,Plated,1,2,PTH
FMAT,2
INCH
; #@! TA.AperFunction,Plated,PTH,ComponentDrill
T1C0.0276
; #@! TA.AperFunction,Plated,PTH,ViaDrill
T2C0.0295
; #@! TA.AperFunction,Plated,PTH,ComponentDrill
T3C0.0315
; #@! TA.AperFunction,Plated,PTH,ComponentDrill
T4C0.0374
; #@! TA.AperFunction,Plated,PTH,ComponentDrill
T5C0.0394
; #@! TA.AperFunction,Plated,PTH,ComponentDrill
T6C0.0551
; #@! TA.AperFunction,Plated,PTH,ComponentDrill
T7C0.0866
%
G90
G05
T1
X6.1319Y-4.2815
T2
X5.0Y-3.2776
X5.0098Y-3.8189
X5.1181Y-2.7854
X5.1181Y-2.8937
X5.1181Y-3.6516
X5.2264Y-2.7854
X5.2264Y-2.8937
X5.3474Y-3.2707
X5.561Y-3.2906
X5.6299Y-4.4882
X6.0728Y-4.4685
T3
X5.8441Y-2.9724
X5.8441Y-3.0724
X5.8441Y-3.1724
X5.8441Y-3.2724
X5.8441Y-3.3724
X5.8441Y-3.4724
X5.8441Y-3.5724
X5.8441Y-3.6724
X5.8441Y-3.7724
X5.9941Y-2.9724
X5.9941Y-3.0724
X5.9941Y-3.1724
X5.9941Y-3.2724
X5.9941Y-3.3724
X5.9941Y-3.4724
X5.9941Y-3.5724
X5.9941Y-3.6724
X5.9941Y-3.7724
X6.5941Y-2.9724
X6.5941Y-3.0724
X6.5941Y-3.1724
X6.5941Y-3.2724
X6.5941Y-3.3724
X6.5941Y-3.4724
X6.5941Y-3.5724
X6.5941Y-3.6724
X6.5941Y-3.7724
X6.7441Y-2.9724
X6.7441Y-3.0724
X6.7441Y-3.1724
X6.7441Y-3.2724
X6.7441Y-3.3724
X6.7441Y-3.4724
X6.7441Y-3.5724
X6.7441Y-3.6724
X6.7441Y-3.7724
T4
X6.6929Y-4.0059
X6.6929Y-4.1043
X6.6929Y-4.2028
T5
X6.6929Y-4.4783
X6.6929Y-4.5768
T6
X5.4331Y-4.8819
X5.6299Y-4.8819
X6.1811Y-4.8819
X6.378Y-4.8819
T7
X5.1181Y-2.3622
X5.1181Y-4.8819
X6.6929Y-2.3622
X6.6929Y-4.8819
M30
