M48
; DRILL file {KiCad 9.0.2} date 2025-08-03T19:13:41+0100
; FORMAT={-:-/ absolute / inch / decimal}
; #@! TF.CreationDate,2025-08-03T19:13:41+01:00
; #@! TF.GenerationSoftware,Kicad,Pcbnew,9.0.2
; #@! TF.FileFunction,Plated,1,2,PTH
FMAT,2
INCH
; #@! TA.AperFunction,Plated,PTH,ComponentDrill
T1C0.0276
; #@! TA.AperFunction,Plated,PTH,ViaDrill
T2C0.0295
; #@! TA.AperFunction,Plated,PTH,ComponentDrill
T3C0.0315
; #@! TA.AperFunction,Plated,PTH,ComponentDrill
T4C0.0394
; #@! TA.AperFunction,Plated,PTH,ComponentDrill
T5C0.0551
; #@! TA.AperFunction,Plated,PTH,ComponentDrill
T6C0.0866
%
G90
G05
T1
X5.7795Y-4.2776
T2
X5.0059Y-3.2815
X5.0846Y-3.4409
X5.0886Y-3.6417
X5.2126Y-3.8228
X5.3524Y-3.2697
X5.5984Y-4.4862
X5.6772Y-2.8642
X6.0492Y-4.4646
X6.0728Y-4.3563
X6.1417Y-4.6575
T3
X5.8819Y-2.8969
X5.8819Y-2.9969
X5.8819Y-3.0969
X5.8819Y-3.1969
X5.8819Y-3.2969
X5.8819Y-3.3969
X5.8819Y-3.4969
X5.8819Y-3.5969
X5.8819Y-3.6969
X6.0319Y-2.8969
X6.0319Y-2.9969
X6.0319Y-3.0969
X6.0319Y-3.1969
X6.0319Y-3.2969
X6.0319Y-3.3969
X6.0319Y-3.4969
X6.0319Y-3.5969
X6.0319Y-3.6969
X6.6319Y-2.8969
X6.6319Y-2.9969
X6.6319Y-3.0969
X6.6319Y-3.1969
X6.6319Y-3.2969
X6.6319Y-3.3969
X6.6319Y-3.4969
X6.6319Y-3.5969
X6.6319Y-3.6969
X6.7819Y-2.8969
X6.7819Y-2.9969
X6.7819Y-3.0969
X6.7819Y-3.1969
X6.7819Y-3.2969
X6.7819Y-3.3969
X6.7819Y-3.4969
X6.7819Y-3.5969
X6.7819Y-3.6969
T4
X5.5846Y-3.9035
X5.5846Y-4.0035
X5.5846Y-4.1035
T5
X5.4331Y-4.8819
X5.6299Y-4.8819
X6.1811Y-4.8819
X6.378Y-4.8819
T6
X5.1181Y-2.3622
X5.1181Y-4.8819
X6.6929Y-2.3622
X6.6929Y-4.8819
M30
