%TF.GenerationSoftware,KiCad,Pcbnew,9.0.2*%
%TF.CreationDate,2025-07-25T15:36:06+01:00*%
%TF.ProjectId,doorbell_pcb_v2,646f6f72-6265-46c6-9c5f-7063625f7632,rev?*%
%TF.SameCoordinates,Original*%
%TF.FileFunction,Copper,L1,Top*%
%TF.FilePolarity,Positive*%
%FSLAX46Y46*%
G04 Gerber Fmt 4.6, Leading zero omitted, Abs format (unit mm)*
G04 Created by KiCad (PCBNEW 9.0.2) date 2025-07-25 15:36:06*
%MOMM*%
%LPD*%
G01*
G04 APERTURE LIST*
G04 Aperture macros list*
%AMRoundRect*
0 Rectangle with rounded corners*
0 $1 Rounding radius*
0 $2 $3 $4 $5 $6 $7 $8 $9 X,Y pos of 4 corners*
0 Add a 4 corners polygon primitive as box body*
4,1,4,$2,$3,$4,$5,$6,$7,$8,$9,$2,$3,0*
0 Add four circle primitives for the rounded corners*
1,1,$1+$1,$2,$3*
1,1,$1+$1,$4,$5*
1,1,$1+$1,$6,$7*
1,1,$1+$1,$8,$9*
0 Add four rect primitives between the rounded corners*
20,1,$1+$1,$2,$3,$4,$5,0*
20,1,$1+$1,$4,$5,$6,$7,0*
20,1,$1+$1,$6,$7,$8,$9,0*
20,1,$1+$1,$8,$9,$2,$3,0*%
G04 Aperture macros list end*
%TA.AperFunction,SMDPad,CuDef*%
%ADD10RoundRect,0.250000X0.475000X-0.337500X0.475000X0.337500X-0.475000X0.337500X-0.475000X-0.337500X0*%
%TD*%
%TA.AperFunction,SMDPad,CuDef*%
%ADD11RoundRect,0.250000X0.450000X-0.350000X0.450000X0.350000X-0.450000X0.350000X-0.450000X-0.350000X0*%
%TD*%
%TA.AperFunction,ComponentPad*%
%ADD12C,4.400000*%
%TD*%
%TA.AperFunction,SMDPad,CuDef*%
%ADD13RoundRect,0.250000X-0.337500X-0.475000X0.337500X-0.475000X0.337500X0.475000X-0.337500X0.475000X0*%
%TD*%
%TA.AperFunction,ComponentPad*%
%ADD14RoundRect,0.250000X-0.750000X0.600000X-0.750000X-0.600000X0.750000X-0.600000X0.750000X0.600000X0*%
%TD*%
%TA.AperFunction,ComponentPad*%
%ADD15O,2.000000X1.700000*%
%TD*%
%TA.AperFunction,SMDPad,CuDef*%
%ADD16RoundRect,0.250000X0.450000X-0.325000X0.450000X0.325000X-0.450000X0.325000X-0.450000X-0.325000X0*%
%TD*%
%TA.AperFunction,SMDPad,CuDef*%
%ADD17RoundRect,0.250000X1.950000X1.000000X-1.950000X1.000000X-1.950000X-1.000000X1.950000X-1.000000X0*%
%TD*%
%TA.AperFunction,SMDPad,CuDef*%
%ADD18R,2.000000X1.200000*%
%TD*%
%TA.AperFunction,SMDPad,CuDef*%
%ADD19R,1.300000X1.500000*%
%TD*%
%TA.AperFunction,SMDPad,CuDef*%
%ADD20RoundRect,0.150000X0.150000X-0.825000X0.150000X0.825000X-0.150000X0.825000X-0.150000X-0.825000X0*%
%TD*%
%TA.AperFunction,ComponentPad*%
%ADD21C,2.200000*%
%TD*%
%TA.AperFunction,SMDPad,CuDef*%
%ADD22RoundRect,0.250000X-0.475000X0.337500X-0.475000X-0.337500X0.475000X-0.337500X0.475000X0.337500X0*%
%TD*%
%TA.AperFunction,SMDPad,CuDef*%
%ADD23RoundRect,0.250000X0.350000X-0.850000X0.350000X0.850000X-0.350000X0.850000X-0.350000X-0.850000X0*%
%TD*%
%TA.AperFunction,SMDPad,CuDef*%
%ADD24RoundRect,0.249997X2.650003X-2.950003X2.650003X2.950003X-2.650003X2.950003X-2.650003X-2.950003X0*%
%TD*%
%TA.AperFunction,ComponentPad*%
%ADD25RoundRect,0.250000X-0.725000X0.600000X-0.725000X-0.600000X0.725000X-0.600000X0.725000X0.600000X0*%
%TD*%
%TA.AperFunction,ComponentPad*%
%ADD26O,1.950000X1.700000*%
%TD*%
%TA.AperFunction,ComponentPad*%
%ADD27RoundRect,0.225000X2.775000X0.525000X-2.775000X0.525000X-2.775000X-0.525000X2.775000X-0.525000X0*%
%TD*%
%TA.AperFunction,ComponentPad*%
%ADD28C,1.000000*%
%TD*%
%TA.AperFunction,ComponentPad*%
%ADD29RoundRect,0.225000X-2.775000X-0.525000X2.775000X-0.525000X2.775000X0.525000X-2.775000X0.525000X0*%
%TD*%
%TA.AperFunction,SMDPad,CuDef*%
%ADD30RoundRect,0.250000X-0.450000X0.350000X-0.450000X-0.350000X0.450000X-0.350000X0.450000X0.350000X0*%
%TD*%
%TA.AperFunction,ComponentPad*%
%ADD31R,1.500000X1.500000*%
%TD*%
%TA.AperFunction,SMDPad,CuDef*%
%ADD32RoundRect,0.225000X-0.375000X0.225000X-0.375000X-0.225000X0.375000X-0.225000X0.375000X0.225000X0*%
%TD*%
%TA.AperFunction,ViaPad*%
%ADD33C,1.500000*%
%TD*%
%TA.AperFunction,Conductor*%
%ADD34C,0.500000*%
%TD*%
%TA.AperFunction,Conductor*%
%ADD35C,1.000000*%
%TD*%
%TA.AperFunction,Conductor*%
%ADD36C,2.000000*%
%TD*%
G04 APERTURE END LIST*
D10*
%TO.P,C2,1*%
%TO.N,+5V Internal*%
X145250000Y-116037500D03*
%TO.P,C2,2*%
%TO.N,GND*%
X145250000Y-113962500D03*
%TD*%
D11*
%TO.P,R4,1*%
%TO.N,Net-(D3-A)*%
X141250000Y-77475000D03*
%TO.P,R4,2*%
%TO.N,+5V Internal*%
X141250000Y-75475000D03*
%TD*%
%TO.P,R3,1*%
%TO.N,/Ext Reset*%
X162500000Y-110500000D03*
%TO.P,R3,2*%
%TO.N,+3.3V*%
X162500000Y-108500000D03*
%TD*%
D12*
%TO.P,H2,1,1*%
%TO.N,GND*%
X170000000Y-60000000D03*
%TD*%
D11*
%TO.P,R1,1*%
%TO.N,/V Sense*%
X149500000Y-110662500D03*
%TO.P,R1,2*%
%TO.N,/ADC Input*%
X149500000Y-108662500D03*
%TD*%
D13*
%TO.P,C1,1*%
%TO.N,Net-(U1-FILTER)*%
X153962500Y-116000000D03*
%TO.P,C1,2*%
%TO.N,GND*%
X156037500Y-116000000D03*
%TD*%
D14*
%TO.P,J3,1,Pin_1*%
%TO.N,GND*%
X170000000Y-113750000D03*
D15*
%TO.P,J3,2,Pin_2*%
%TO.N,/Ext Reset*%
X170000000Y-116250000D03*
%TD*%
D16*
%TO.P,D3,1,K*%
%TO.N,GND*%
X141250000Y-81750000D03*
%TO.P,D3,2,A*%
%TO.N,Net-(D3-A)*%
X141250000Y-79700000D03*
%TD*%
D17*
%TO.P,C3,1*%
%TO.N,Net-(D1-+)*%
X137400000Y-90000000D03*
%TO.P,C3,2*%
%TO.N,GND*%
X129000000Y-90000000D03*
%TD*%
D18*
%TO.P,SW1,1,1*%
%TO.N,unconnected-(SW1-Pad1)*%
X130000000Y-116000000D03*
%TO.P,SW1,2,2*%
%TO.N,/VAC In B*%
X130000000Y-113500000D03*
%TO.P,SW1,3,3*%
%TO.N,Net-(D1-Pad3)*%
X130000000Y-111000000D03*
%TO.P,SW1,4,4*%
%TO.N,unconnected-(SW1-Pad4)*%
X135700000Y-116000000D03*
%TO.P,SW1,5,5*%
%TO.N,/VAC In A*%
X135700000Y-113500000D03*
%TO.P,SW1,6,6*%
%TO.N,Net-(D1-Pad4)*%
X135700000Y-111000000D03*
%TD*%
D12*
%TO.P,H1,1,1*%
%TO.N,GND*%
X130000000Y-60000000D03*
%TD*%
%TO.P,H4,1,1*%
%TO.N,GND*%
X130000000Y-124000000D03*
%TD*%
D19*
%TO.P,D1,1,+*%
%TO.N,Net-(D1-+)*%
X135100000Y-97100000D03*
%TO.P,D1,2,-*%
%TO.N,GND*%
X130000000Y-97100000D03*
%TO.P,D1,3*%
%TO.N,Net-(D1-Pad3)*%
X130000000Y-106000000D03*
%TO.P,D1,4*%
%TO.N,Net-(D1-Pad4)*%
X135100000Y-106000000D03*
%TD*%
D20*
%TO.P,U1,1,IP+*%
%TO.N,/VAC In A*%
X148095000Y-118475000D03*
%TO.P,U1,2,IP+*%
X149365000Y-118475000D03*
%TO.P,U1,3,IP-*%
%TO.N,/VAC Out A*%
X150635000Y-118475000D03*
%TO.P,U1,4,IP-*%
X151905000Y-118475000D03*
%TO.P,U1,5,GND*%
%TO.N,GND*%
X151905000Y-113525000D03*
%TO.P,U1,6,FILTER*%
%TO.N,Net-(U1-FILTER)*%
X150635000Y-113525000D03*
%TO.P,U1,7,VIOUT*%
%TO.N,/V Sense*%
X149365000Y-113525000D03*
%TO.P,U1,8,VCC*%
%TO.N,+5V Internal*%
X148095000Y-113525000D03*
%TD*%
D21*
%TO.P,J1,1,Pin_1*%
%TO.N,/VAC In B*%
X138000000Y-124000000D03*
%TO.P,J1,2,Pin_2*%
%TO.N,/VAC In A*%
X143000000Y-124000000D03*
%TD*%
D12*
%TO.P,H3,1,1*%
%TO.N,GND*%
X170000000Y-124000000D03*
%TD*%
D21*
%TO.P,J2,1,Pin_1*%
%TO.N,/VAC Out A*%
X157000000Y-124000000D03*
%TO.P,J2,2,Pin_2*%
%TO.N,/VAC In B*%
X162000000Y-124000000D03*
%TD*%
D22*
%TO.P,C5,1*%
%TO.N,Net-(D1-+)*%
X129250000Y-81212500D03*
%TO.P,C5,2*%
%TO.N,GND*%
X129250000Y-83287500D03*
%TD*%
%TO.P,C7,1*%
%TO.N,+5V*%
X133750000Y-81000000D03*
%TO.P,C7,2*%
%TO.N,GND*%
X133750000Y-83075000D03*
%TD*%
D23*
%TO.P,U2,1,VI*%
%TO.N,Net-(D1-+)*%
X129245000Y-78625000D03*
D24*
%TO.P,U2,2,GND*%
%TO.N,GND*%
X131525000Y-72325000D03*
D23*
%TO.P,U2,3,VO*%
%TO.N,+5V*%
X133805000Y-78625000D03*
%TD*%
D25*
%TO.P,J4,1,Pin_1*%
%TO.N,+5V Internal*%
X170000000Y-101750000D03*
D26*
%TO.P,J4,2,Pin_2*%
%TO.N,/WS2812*%
X170000000Y-104250000D03*
%TO.P,J4,3,Pin_3*%
%TO.N,GND*%
X170000000Y-106750000D03*
%TD*%
D27*
%TO.P,U3,1,5V*%
%TO.N,+5V Internal*%
X150440000Y-75500000D03*
D28*
X152250000Y-75500000D03*
D27*
%TO.P,U3,2,GND*%
%TO.N,GND*%
X150440000Y-78040000D03*
D28*
X152250000Y-78040000D03*
D27*
%TO.P,U3,3,3V3*%
%TO.N,+3.3V*%
X150440000Y-80580000D03*
D28*
X152250000Y-80580000D03*
D27*
%TO.P,U3,4,GPIO_0*%
%TO.N,unconnected-(U3-GPIO_0-Pad4)*%
X150440000Y-83120000D03*
D28*
%TO.N,unconnected-(U3-GPIO_0-Pad4)_1*%
X152250000Y-83120000D03*
D27*
%TO.P,U3,5,GPIO_1*%
%TO.N,unconnected-(U3-GPIO_1-Pad5)*%
X150440000Y-85660000D03*
D28*
%TO.N,unconnected-(U3-GPIO_1-Pad5)_1*%
X152250000Y-85660000D03*
D27*
%TO.P,U3,6,GPIO_2*%
%TO.N,unconnected-(U3-GPIO_2-Pad6)_1*%
X150440000Y-88200000D03*
D28*
%TO.N,unconnected-(U3-GPIO_2-Pad6)*%
X152250000Y-88200000D03*
D27*
%TO.P,U3,7,GPIO_3*%
%TO.N,unconnected-(U3-GPIO_3-Pad7)_1*%
X150440000Y-90740000D03*
D28*
%TO.N,unconnected-(U3-GPIO_3-Pad7)*%
X152250000Y-90740000D03*
D27*
%TO.P,U3,8,GPIO_4*%
%TO.N,/ADC Input*%
X150440000Y-93280000D03*
D28*
X152250000Y-93280000D03*
D27*
%TO.P,U3,9,GPIO_5*%
%TO.N,unconnected-(U3-GPIO_5-Pad9)*%
X150440000Y-95820000D03*
D28*
%TO.N,unconnected-(U3-GPIO_5-Pad9)_1*%
X152250000Y-95820000D03*
%TO.P,U3,10,GPIO_6*%
%TO.N,/Ext Reset*%
X167490000Y-95820000D03*
D29*
X169300000Y-95820000D03*
D28*
%TO.P,U3,11,GPIO_7*%
%TO.N,unconnected-(U3-GPIO_7-Pad11)*%
X167490000Y-93280000D03*
D29*
%TO.N,unconnected-(U3-GPIO_7-Pad11)_1*%
X169300000Y-93280000D03*
D28*
%TO.P,U3,12,GPIO_8*%
%TO.N,unconnected-(U3-GPIO_8-Pad12)*%
X167490000Y-90740000D03*
D29*
%TO.N,unconnected-(U3-GPIO_8-Pad12)_1*%
X169300000Y-90740000D03*
D28*
%TO.P,U3,13,GPIO_9*%
%TO.N,unconnected-(U3-GPIO_9-Pad13)*%
X167490000Y-88200000D03*
D29*
%TO.N,unconnected-(U3-GPIO_9-Pad13)_1*%
X169300000Y-88200000D03*
D28*
%TO.P,U3,14,GPIO_10*%
%TO.N,unconnected-(U3-GPIO_10-Pad14)*%
X167490000Y-85660000D03*
D29*
%TO.N,unconnected-(U3-GPIO_10-Pad14)_1*%
X169300000Y-85660000D03*
D28*
%TO.P,U3,15,GPIO_18*%
%TO.N,unconnected-(U3-GPIO_18-Pad15)*%
X167490000Y-83120000D03*
D29*
%TO.N,unconnected-(U3-GPIO_18-Pad15)_1*%
X169300000Y-83120000D03*
D28*
%TO.P,U3,16,GPIO_19*%
%TO.N,unconnected-(U3-GPIO_19-Pad16)_1*%
X167490000Y-80580000D03*
D29*
%TO.N,unconnected-(U3-GPIO_19-Pad16)*%
X169300000Y-80580000D03*
D28*
%TO.P,U3,17,GPIO_20*%
%TO.N,unconnected-(U3-GPIO_20-Pad17)*%
X167490000Y-78040000D03*
D29*
%TO.N,unconnected-(U3-GPIO_20-Pad17)_1*%
X169300000Y-78040000D03*
D28*
%TO.P,U3,18,GPIO_21*%
%TO.N,/WS2812*%
X167490000Y-75500000D03*
D29*
X169300000Y-75500000D03*
%TD*%
D30*
%TO.P,R2,1*%
%TO.N,/ADC Input*%
X152250000Y-108662500D03*
%TO.P,R2,2*%
%TO.N,GND*%
X152250000Y-110662500D03*
%TD*%
D31*
%TO.P,TP1,1,1*%
%TO.N,/ADC Input*%
X155750000Y-108750000D03*
%TD*%
D32*
%TO.P,D2,1,K*%
%TO.N,+5V Internal*%
X138250000Y-75350000D03*
%TO.P,D2,2,A*%
%TO.N,+5V*%
X138250000Y-78650000D03*
%TD*%
D33*
%TO.N,GND*%
X132750000Y-73500000D03*
X143000000Y-114000000D03*
X135825000Y-83075000D03*
X141250000Y-83580552D03*
X130000000Y-92750000D03*
X127000000Y-83250000D03*
X130000000Y-70750000D03*
X130000000Y-73500000D03*
X132750000Y-70750000D03*
X154250000Y-113500000D03*
X127250000Y-97000000D03*
%TD*%
D34*
%TO.N,GND*%
X154250000Y-113500000D02*
X151930000Y-113500000D01*
D35*
X127000000Y-83250000D02*
X129212500Y-83250000D01*
X130000000Y-97100000D02*
X127350000Y-97100000D01*
D34*
X153662500Y-110662500D02*
X154250000Y-111250000D01*
D35*
X133750000Y-83075000D02*
X135825000Y-83075000D01*
D34*
X152250000Y-110662500D02*
X153662500Y-110662500D01*
D35*
X145212500Y-114000000D02*
X145250000Y-113962500D01*
X131599993Y-72250007D02*
X131525000Y-72325000D01*
D34*
X156037500Y-116000000D02*
X156037500Y-115287500D01*
X141250000Y-83580552D02*
X141250000Y-81750000D01*
X154250000Y-111250000D02*
X154250000Y-113500000D01*
D35*
X129212500Y-83250000D02*
X129250000Y-83287500D01*
X133699985Y-70150015D02*
X131525000Y-72325000D01*
D34*
X151930000Y-113500000D02*
X151905000Y-113525000D01*
X129900000Y-97000000D02*
X130000000Y-97100000D01*
X170000000Y-106750000D02*
X170000000Y-113750000D01*
D35*
X127350000Y-97100000D02*
X127250000Y-97000000D01*
X130000000Y-91000000D02*
X129000000Y-90000000D01*
D34*
X156037500Y-115287500D02*
X154250000Y-113500000D01*
D35*
X129500000Y-70300000D02*
X131525000Y-72325000D01*
X135825000Y-83075000D02*
X136000000Y-83250000D01*
X130000000Y-92750000D02*
X130000000Y-91000000D01*
X143000000Y-114000000D02*
X145212500Y-114000000D01*
D34*
%TO.N,Net-(U1-FILTER)*%
X150635000Y-113525000D02*
X150635000Y-115135000D01*
X150635000Y-115135000D02*
X151500000Y-116000000D01*
X151500000Y-116000000D02*
X153962500Y-116000000D01*
D35*
%TO.N,+5V Internal*%
X144750000Y-110180000D02*
X144750000Y-75475000D01*
X141125000Y-75350000D02*
X141250000Y-75475000D01*
X148095000Y-115155000D02*
X147212500Y-116037500D01*
X147212500Y-116037500D02*
X145250000Y-116037500D01*
X138062500Y-75500000D02*
X140937500Y-75500000D01*
X144750000Y-75475000D02*
X148415000Y-75475000D01*
X148095000Y-113525000D02*
X144750000Y-110180000D01*
X141250000Y-75475000D02*
X144750000Y-75475000D01*
X148095000Y-113525000D02*
X148095000Y-115155000D01*
X148415000Y-75475000D02*
X148440000Y-75500000D01*
%TO.N,Net-(D1-+)*%
X129245000Y-78625000D02*
X129245000Y-81207500D01*
X135100000Y-92300000D02*
X137400000Y-90000000D01*
X131250000Y-86750000D02*
X134500000Y-90000000D01*
X129245000Y-81207500D02*
X129250000Y-81212500D01*
X134500000Y-90000000D02*
X137400000Y-90000000D01*
X129250000Y-81212500D02*
X130712500Y-81212500D01*
X131250000Y-81750000D02*
X131250000Y-86750000D01*
X135100000Y-97100000D02*
X135100000Y-92300000D01*
X130712500Y-81212500D02*
X131250000Y-81750000D01*
%TO.N,+5V*%
X138225000Y-78625000D02*
X138250000Y-78650000D01*
X133750000Y-81000000D02*
X133750000Y-78680000D01*
X133805000Y-78625000D02*
X138225000Y-78625000D01*
X133750000Y-78680000D02*
X133805000Y-78625000D01*
%TO.N,Net-(D1-Pad3)*%
X130000000Y-106000000D02*
X130000000Y-111000000D01*
%TO.N,Net-(D1-Pad4)*%
X135100000Y-110400000D02*
X135700000Y-111000000D01*
X135100000Y-106000000D02*
X135100000Y-110400000D01*
%TO.N,Net-(D3-A)*%
X141250000Y-77475000D02*
X141250000Y-79700000D01*
D36*
%TO.N,/VAC In A*%
X143000000Y-123570000D02*
X148095000Y-118475000D01*
D35*
X143000000Y-118250000D02*
X143000000Y-124000000D01*
X138250000Y-113500000D02*
X143000000Y-118250000D01*
D36*
X143000000Y-124000000D02*
X143000000Y-123570000D01*
D35*
X135700000Y-113500000D02*
X138250000Y-113500000D01*
%TO.N,/VAC In B*%
X133000000Y-119000000D02*
X133000000Y-114500000D01*
D36*
X158250000Y-127750000D02*
X162000000Y-124000000D01*
X138000000Y-124000000D02*
X141750000Y-127750000D01*
D35*
X133000000Y-114500000D02*
X132000000Y-113500000D01*
X132000000Y-113500000D02*
X130000000Y-113500000D01*
X138000000Y-124000000D02*
X133000000Y-119000000D01*
D36*
X141750000Y-127750000D02*
X158250000Y-127750000D01*
%TO.N,/VAC Out A*%
X157000000Y-124000000D02*
X157000000Y-123570000D01*
X157000000Y-123570000D02*
X151905000Y-118475000D01*
D34*
%TO.N,/Ext Reset*%
X164750000Y-98560000D02*
X164750000Y-109750000D01*
X166250000Y-116250000D02*
X170000000Y-116250000D01*
X164000000Y-110500000D02*
X162500000Y-110500000D01*
X167490000Y-95820000D02*
X164750000Y-98560000D01*
X162500000Y-112500000D02*
X166250000Y-116250000D01*
X164750000Y-109750000D02*
X164000000Y-110500000D01*
X162500000Y-110500000D02*
X162500000Y-112500000D01*
%TO.N,/WS2812*%
X174000000Y-76500000D02*
X173000000Y-75500000D01*
X174000000Y-76500000D02*
X174000000Y-102500000D01*
X174000000Y-102500000D02*
X172250000Y-104250000D01*
X173000000Y-75500000D02*
X171300000Y-75500000D01*
X172250000Y-104250000D02*
X170000000Y-104250000D01*
%TO.N,/V Sense*%
X149365000Y-113525000D02*
X149365000Y-110710000D01*
X149365000Y-110710000D02*
X149500000Y-110575000D01*
%TO.N,/ADC Input*%
X148470000Y-93250000D02*
X148440000Y-93280000D01*
X155750000Y-108750000D02*
X155750000Y-94500000D01*
X155750000Y-108750000D02*
X152337500Y-108750000D01*
X154500000Y-93250000D02*
X148470000Y-93250000D01*
X155750000Y-94500000D02*
X154500000Y-93250000D01*
X152337500Y-108750000D02*
X152250000Y-108662500D01*
X149500000Y-108750000D02*
X152250000Y-108750000D01*
%TO.N,+3.3V*%
X162500000Y-88000000D02*
X162500000Y-108500000D01*
X148440000Y-80580000D02*
X148520000Y-80500000D01*
X155000000Y-80500000D02*
X162500000Y-88000000D01*
X148520000Y-80500000D02*
X155000000Y-80500000D01*
%TD*%
%TA.AperFunction,Conductor*%
%TO.N,/VAC Out A*%
G36*
X152443039Y-117269685D02*
G01*
X152488794Y-117322489D01*
X152500000Y-117374000D01*
X152500000Y-119626000D01*
X152480315Y-119693039D01*
X152427511Y-119738794D01*
X152376000Y-119750000D01*
X150374000Y-119750000D01*
X150306961Y-119730315D01*
X150261206Y-119677511D01*
X150250000Y-119626000D01*
X150250000Y-117374000D01*
X150269685Y-117306961D01*
X150322489Y-117261206D01*
X150374000Y-117250000D01*
X152376000Y-117250000D01*
X152443039Y-117269685D01*
G37*
%TD.AperFunction*%
%TD*%
%TA.AperFunction,Conductor*%
%TO.N,GND*%
G36*
X174442539Y-55520185D02*
G01*
X174488294Y-55572989D01*
X174499500Y-55624500D01*
X174499500Y-69626000D01*
X174479815Y-69693039D01*
X174427011Y-69738794D01*
X174375500Y-69750000D01*
X135000000Y-69750000D01*
X135000000Y-73377104D01*
X134980315Y-73444143D01*
X134927511Y-73489898D01*
X134877109Y-73501099D01*
X125625609Y-73583875D01*
X125558397Y-73564791D01*
X125512171Y-73512399D01*
X125500500Y-73459880D01*
X125500500Y-55624500D01*
X125520185Y-55557461D01*
X125572989Y-55511706D01*
X125624500Y-55500500D01*
X174375500Y-55500500D01*
X174442539Y-55520185D01*
G37*
%TD.AperFunction*%
%TD*%
%TA.AperFunction,Conductor*%
%TO.N,/VAC In A*%
G36*
X149693039Y-117269685D02*
G01*
X149738794Y-117322489D01*
X149750000Y-117374000D01*
X149750000Y-119626000D01*
X149730315Y-119693039D01*
X149677511Y-119738794D01*
X149626000Y-119750000D01*
X147624000Y-119750000D01*
X147556961Y-119730315D01*
X147511206Y-119677511D01*
X147500000Y-119626000D01*
X147500000Y-117374000D01*
X147519685Y-117306961D01*
X147572489Y-117261206D01*
X147624000Y-117250000D01*
X149626000Y-117250000D01*
X149693039Y-117269685D01*
G37*
%TD.AperFunction*%
%TD*%
M02*
